<?xml version="1.0" encoding="utf-8"?>
<!-- Generator: Adobe Illustrator 22.1.0, SVG Export Plug-In . SVG Version: 6.00 Build 0)  -->
<svg version="1.1" id="Layer_1" xmlns="http://www.w3.org/2000/svg" xmlns:xlink="http://www.w3.org/1999/xlink" x="0px" y="0px"
	 viewBox="0 0 2465 2084" style="enable-background:new 0 0 2465 2084;" xml:space="preserve">
<style type="text/css">
	.st0{fill:url(#SVGID_1_);}
	.st1{opacity:0.3;}
	.st2{clip-path:url(#SVGID_3_);fill:#FFFFFF;}
	.st3{clip-path:url(#SVGID_5_);fill:#FFFFFF;}
	.st4{clip-path:url(#SVGID_7_);fill:#FFFFFF;}
	.st5{clip-path:url(#SVGID_9_);fill:#FFFFFF;}
	.st6{clip-path:url(#SVGID_11_);fill:#FFFFFF;}
	.st7{clip-path:url(#SVGID_13_);fill:#FFFFFF;}
	.st8{clip-path:url(#SVGID_15_);fill:#FFFFFF;}
	.st9{clip-path:url(#SVGID_17_);fill:#FFFFFF;}
	.st10{fill:#FFFFFF;}
	.st11{clip-path:url(#SVGID_19_);fill:#FFFFFF;}
	.st12{clip-path:url(#SVGID_21_);fill:#FFFFFF;}
	.st13{clip-path:url(#SVGID_23_);fill:#FFFFFF;}
	.st14{clip-path:url(#SVGID_25_);fill:#FFFFFF;}
	.st15{clip-path:url(#SVGID_27_);fill:#FFFFFF;}
	.st16{clip-path:url(#SVGID_29_);fill:#FFFFFF;}
	.st17{clip-path:url(#SVGID_31_);fill:#FFFFFF;}
	.st18{clip-path:url(#SVGID_33_);fill:#FFFFFF;}
	.st19{clip-path:url(#SVGID_35_);fill:#FFFFFF;}
	.st20{clip-path:url(#SVGID_37_);fill:#FFFFFF;}
	.st21{clip-path:url(#SVGID_39_);fill:#FFFFFF;}
	.st22{clip-path:url(#SVGID_41_);fill:#FFFFFF;}
	.st23{clip-path:url(#SVGID_43_);fill:#FFFFFF;}
	.st24{clip-path:url(#SVGID_45_);fill:#FFFFFF;}
	.st25{clip-path:url(#SVGID_47_);fill:#FFFFFF;}
	.st26{clip-path:url(#SVGID_49_);fill:#FFFFFF;}
</style>
<linearGradient id="SVGID_1_" gradientUnits="userSpaceOnUse" x1="414.3459" y1="270.8275" x2="418.5139" y2="270.8275" gradientTransform="matrix(0 -481.526 -481.526 0 131642.9844 201533.3125)">
	<stop  offset="0.2758" style="stop-color:#4B84FF"/>
	<stop  offset="0.7146" style="stop-color:#2D50A6"/>
	<stop  offset="1" style="stop-color:#171C59"/>
</linearGradient>
<rect class="st0" width="2465" height="2084"/>
<g>
	<g class="st1">
		<g>
			<defs>
				<rect id="SVGID_2_" x="904.9" y="761.2" width="187" height="51.6"/>
			</defs>
			<clipPath id="SVGID_3_">
				<use xlink:href="#SVGID_2_"  style="overflow:visible;"/>
			</clipPath>
			<path class="st2" d="M1076.5,807.1c-0.8,0-1.7,0-2.5,0.1c-1.4-11.9-11.5-21.1-23.7-21.1c-4.9,0-9.5,1.5-13.2,4
				c-0.6-1.3-1.5-2.4-2.6-3.2c2.1-2.7,3.4-6.1,3.4-9.8c0-8.8-7.1-15.9-15.9-15.9c-6.4,0-11.9,3.8-14.4,9.2
				c-7.1-4.7-15.6-7.5-24.7-7.5c-22.8,0-41.7,17.2-44.3,39.3c-1.5-0.2-3-0.2-4.6-0.2c-11.1,0-21.2,4.1-29,10.8h105.8h45.9h35.4
				C1087.8,809.3,1082.4,807.1,1076.5,807.1"/>
		</g>
	</g>
	<g class="st1">
		<g>
			<defs>
				<rect id="SVGID_4_" x="379.1" y="416.4" width="187" height="51.6"/>
			</defs>
			<clipPath id="SVGID_5_">
				<use xlink:href="#SVGID_4_"  style="overflow:visible;"/>
			</clipPath>
			<path class="st3" d="M550.6,462.3c-0.8,0-1.7,0-2.5,0.1c-1.4-11.9-11.5-21.1-23.7-21.1c-4.9,0-9.5,1.5-13.2,4
				c-0.6-1.3-1.5-2.4-2.6-3.2c2.1-2.7,3.4-6.1,3.4-9.8c0-8.8-7.1-15.9-15.9-15.9c-6.4,0-11.9,3.8-14.4,9.2
				c-7.1-4.7-15.6-7.5-24.7-7.5c-22.8,0-41.7,17.2-44.3,39.3c-1.5-0.2-3-0.2-4.6-0.2c-11.1,0-21.2,4.1-29,10.8h105.8h45.9h35.4
				C562,464.4,556.6,462.3,550.6,462.3"/>
		</g>
	</g>
	<g class="st1">
		<g>
			<defs>
				<rect id="SVGID_6_" x="149.1" y="268.4" width="187" height="51.6"/>
			</defs>
			<clipPath id="SVGID_7_">
				<use xlink:href="#SVGID_6_"  style="overflow:visible;"/>
			</clipPath>
			<path class="st4" d="M320.6,314.3c-0.8,0-1.7,0-2.5,0.1c-1.4-11.9-11.5-21.1-23.7-21.1c-4.9,0-9.5,1.5-13.2,4
				c-0.6-1.3-1.5-2.4-2.6-3.2c2.1-2.7,3.4-6.1,3.4-9.8c0-8.8-7.1-15.9-15.9-15.9c-6.4,0-11.9,3.8-14.4,9.2
				c-7.1-4.7-15.6-7.5-24.7-7.5c-22.8,0-41.7,17.2-44.3,39.3c-1.5-0.2-3-0.2-4.6-0.2c-11.1,0-21.2,4.1-29,10.8h105.8h45.9h35.4
				C332,316.4,326.6,314.3,320.6,314.3"/>
		</g>
	</g>
	<g class="st1">
		<g>
			<defs>
				<rect id="SVGID_8_" x="1115.1" y="402.6" width="132.8" height="36.7"/>
			</defs>
			<clipPath id="SVGID_9_">
				<use xlink:href="#SVGID_8_"  style="overflow:visible;"/>
			</clipPath>
			<path class="st5" d="M1236.9,435.2c-0.6,0-1.2,0-1.7,0.1c-1-8.4-8.2-15-16.9-15c-3.5,0-6.7,1-9.4,2.8c-0.4-0.9-1.1-1.7-1.9-2.3
				c1.5-1.9,2.4-4.3,2.4-7c0-6.2-5-11.3-11.3-11.3c-4.5,0-8.4,2.7-10.2,6.6c-5-3.4-11.1-5.3-17.6-5.3c-16.2,0-29.6,12.2-31.4,27.9
				c-1.1-0.1-2.2-0.2-3.3-0.2c-7.9,0-15.1,2.9-20.6,7.6h75.1h32.6h25.1C1245,436.7,1241.1,435.2,1236.9,435.2"/>
		</g>
	</g>
	<g class="st1">
		<g>
			<defs>
				<rect id="SVGID_10_" x="2031.1" y="47.6" width="132.8" height="36.7"/>
			</defs>
			<clipPath id="SVGID_11_">
				<use xlink:href="#SVGID_10_"  style="overflow:visible;"/>
			</clipPath>
			<path class="st6" d="M2152.9,80.2c-0.6,0-1.2,0-1.7,0.1c-1-8.4-8.2-15-16.9-15c-3.5,0-6.7,1-9.4,2.8c-0.4-0.9-1.1-1.7-1.9-2.3
				c1.5-1.9,2.4-4.3,2.4-7c0-6.2-5-11.3-11.3-11.3c-4.5,0-8.4,2.7-10.2,6.6c-5-3.4-11.1-5.3-17.6-5.3c-16.2,0-29.6,12.2-31.4,27.9
				c-1.1-0.1-2.2-0.2-3.3-0.2c-7.9,0-15.1,2.9-20.6,7.6h75.1h32.6h25.1C2161,81.7,2157.1,80.2,2152.9,80.2"/>
		</g>
	</g>
	<g class="st1">
		<g>
			<defs>
				<rect id="SVGID_12_" x="1793.8" y="288.8" width="132.8" height="36.7"/>
			</defs>
			<clipPath id="SVGID_13_">
				<use xlink:href="#SVGID_12_"  style="overflow:visible;"/>
			</clipPath>
			<path class="st7" d="M1915.6,321.3c-0.6,0-1.2,0-1.7,0.1c-1-8.4-8.2-15-16.9-15c-3.5,0-6.7,1-9.4,2.8c-0.4-0.9-1.1-1.7-1.9-2.3
				c1.5-1.9,2.4-4.3,2.4-7c0-6.2-5-11.3-11.3-11.3c-4.5,0-8.4,2.7-10.2,6.6c-5-3.4-11.1-5.3-17.6-5.3c-16.2,0-29.6,12.2-31.4,27.9
				c-1.1-0.1-2.2-0.2-3.3-0.2c-7.9,0-15.1,2.9-20.6,7.6h75.1h32.6h25.1C1923.7,322.9,1919.8,321.3,1915.6,321.3"/>
		</g>
	</g>
	<g class="st1">
		<g>
			<defs>
				<rect id="SVGID_14_" x="2139.8" y="414.8" width="132.8" height="36.7"/>
			</defs>
			<clipPath id="SVGID_15_">
				<use xlink:href="#SVGID_14_"  style="overflow:visible;"/>
			</clipPath>
			<path class="st8" d="M2261.6,447.3c-0.6,0-1.2,0-1.7,0.1c-1-8.4-8.2-15-16.9-15c-3.5,0-6.7,1-9.4,2.8c-0.4-0.9-1.1-1.7-1.9-2.3
				c1.5-1.9,2.4-4.3,2.4-7c0-6.2-5-11.3-11.3-11.3c-4.5,0-8.4,2.7-10.2,6.6c-5-3.4-11.1-5.3-17.6-5.3c-16.2,0-29.6,12.2-31.4,27.9
				c-1.1-0.1-2.2-0.2-3.3-0.2c-7.9,0-15.1,2.9-20.6,7.6h75.1h32.6h25.1C2269.7,448.9,2265.8,447.3,2261.6,447.3"/>
		</g>
	</g>
	<g class="st1">
		<g>
			<defs>
				<rect id="SVGID_16_" x="1493.8" y="598.4" width="246.5" height="68"/>
			</defs>
			<clipPath id="SVGID_17_">
				<use xlink:href="#SVGID_16_"  style="overflow:visible;"/>
			</clipPath>
			<path class="st9" d="M1719.8,658.8c-1.1,0-2.2,0.1-3.2,0.2c-1.8-15.6-15.1-27.8-31.3-27.8c-6.5,0-12.5,1.9-17.5,5.3
				c-0.8-1.7-2-3.2-3.5-4.3c2.8-3.6,4.5-8,4.5-12.9c0-11.5-9.4-20.9-20.9-20.9c-8.4,0-15.7,5-19,12.2c-9.3-6.2-20.5-9.9-32.6-9.9
				c-30.1,0-54.9,22.6-58.3,51.8c-2-0.2-4-0.3-6.1-0.3c-14.6,0-27.9,5.4-38.2,14.2h139.4h60.4h46.6
				C1734.8,661.7,1727.6,658.8,1719.8,658.8"/>
		</g>
	</g>
	<path class="st10" d="M559.9,131c0,2.6-2.1,4.7-4.7,4.7c-2.6,0-4.7-2.1-4.7-4.7c0-2.6,2.1-4.7,4.7-4.7
		C557.8,126.2,559.9,128.4,559.9,131"/>
	<path class="st10" d="M1402.6,465.5c0,2.6-2.1,4.7-4.7,4.7s-4.7-2.1-4.7-4.7c0-2.6,2.1-4.7,4.7-4.7S1402.6,462.9,1402.6,465.5"/>
	<path class="st10" d="M1389.6,343.5c0,2.6-2.1,4.7-4.7,4.7s-4.7-2.1-4.7-4.7c0-2.6,2.1-4.7,4.7-4.7S1389.6,340.9,1389.6,343.5"/>
	<path class="st10" d="M988.6,571.5c0,2.6-2.1,4.7-4.7,4.7c-2.6,0-4.7-2.1-4.7-4.7c0-2.6,2.1-4.7,4.7-4.7
		C986.5,566.8,988.6,568.9,988.6,571.5"/>
	<path class="st10" d="M276.3,620.9c0,2.6-2.1,4.7-4.7,4.7c-2.6,0-4.7-2.1-4.7-4.7c0-2.6,2.1-4.7,4.7-4.7
		C274.1,616.1,276.3,618.2,276.3,620.9"/>
	<path class="st10" d="M1011.8,335.6c0,2.6-2.1,4.7-4.7,4.7c-2.6,0-4.7-2.1-4.7-4.7c0-2.6,2.1-4.7,4.7-4.7
		C1009.6,330.9,1011.8,333,1011.8,335.6"/>
	<path class="st10" d="M527.8,630.7c0,2.6-2.1,4.7-4.7,4.7c-2.6,0-4.7-2.1-4.7-4.7c0-2.6,2.1-4.7,4.7-4.7
		C525.7,625.9,527.8,628.1,527.8,630.7"/>
	<path class="st10" d="M868.2,583.4c0,3.1-2.5,5.7-5.7,5.7s-5.7-2.5-5.7-5.7c0-3.1,2.5-5.7,5.7-5.7S868.2,580.2,868.2,583.4"/>
	<path class="st10" d="M881.2,681.4c0,3.1-2.5,5.7-5.7,5.7s-5.7-2.5-5.7-5.7c0-3.1,2.5-5.7,5.7-5.7S881.2,678.2,881.2,681.4"/>
	<path class="st10" d="M1306.8,730.6c0,2.6-2.1,4.7-4.7,4.7c-2.6,0-4.7-2.1-4.7-4.7c0-2.6,2.1-4.7,4.7-4.7
		C1304.7,725.9,1306.8,728,1306.8,730.6"/>
	<path class="st10" d="M1210.9,823.2c0,1.9-1.5,3.4-3.4,3.4c-1.9,0-3.4-1.5-3.4-3.4c0-1.9,1.5-3.4,3.4-3.4
		C1209.3,819.8,1210.9,821.3,1210.9,823.2"/>
	<path class="st10" d="M1221.6,598.6c0,1.9-1.5,3.4-3.4,3.4c-1.9,0-3.4-1.5-3.4-3.4c0-1.9,1.5-3.4,3.4-3.4
		C1220.1,595.2,1221.6,596.7,1221.6,598.6"/>
	<path class="st10" d="M918.7,457.6c0,1.9-1.5,3.4-3.4,3.4c-1.9,0-3.4-1.5-3.4-3.4c0-1.9,1.5-3.4,3.4-3.4
		C917.1,454.2,918.7,455.7,918.7,457.6"/>
	<path class="st10" d="M2014.7,358.6c0,1.9-1.5,3.4-3.4,3.4c-1.9,0-3.4-1.5-3.4-3.4c0-1.9,1.5-3.4,3.4-3.4
		C2013.1,355.2,2014.7,356.7,2014.7,358.6"/>
	<path class="st10" d="M714.7,621.6c0,1.9-1.5,3.4-3.4,3.4c-1.9,0-3.4-1.5-3.4-3.4c0-1.9,1.5-3.4,3.4-3.4
		C713.1,618.2,714.7,619.7,714.7,621.6"/>
	<path class="st10" d="M888.4,176.5c0,1.9-1.5,3.4-3.4,3.4c-1.9,0-3.4-1.5-3.4-3.4c0-1.9,1.5-3.4,3.4-3.4
		C886.9,173.1,888.4,174.6,888.4,176.5"/>
	<path class="st10" d="M246.4,62.5c0,1.9-1.5,3.4-3.4,3.4c-1.9,0-3.4-1.5-3.4-3.4c0-1.9,1.5-3.4,3.4-3.4
		C244.9,59.1,246.4,60.6,246.4,62.5"/>
	<path class="st10" d="M1923.6,315.3c0,1.9-1.5,3.4-3.4,3.4c-1.9,0-3.4-1.5-3.4-3.4c0-1.9,1.5-3.4,3.4-3.4
		C1922.1,311.9,1923.6,313.4,1923.6,315.3"/>
	<path class="st10" d="M1885.7,654.1c0,1.9-1.5,3.4-3.4,3.4c-1.9,0-3.4-1.5-3.4-3.4c0-1.9,1.5-3.4,3.4-3.4
		C1884.2,650.7,1885.7,652.2,1885.7,654.1"/>
	<path class="st10" d="M1219.5,272.5c0,1.9-1.5,3.4-3.4,3.4c-1.9,0-3.4-1.5-3.4-3.4c0-1.9,1.5-3.4,3.4-3.4
		C1218,269.1,1219.5,270.6,1219.5,272.5"/>
	<path class="st10" d="M1982,547.6c0,1.9-1.5,3.4-3.4,3.4c-1.9,0-3.4-1.5-3.4-3.4c0-1.9,1.5-3.4,3.4-3.4
		C1980.4,544.1,1982,545.7,1982,547.6"/>
	<path class="st10" d="M250,436.6c0,1.9-1.5,3.4-3.4,3.4s-3.4-1.5-3.4-3.4c0-1.9,1.5-3.4,3.4-3.4S250,434.7,250,436.6"/>
	<path class="st10" d="M1740.5,415.3c0,1.9-1.5,3.4-3.4,3.4c-1.9,0-3.4-1.5-3.4-3.4c0-1.9,1.5-3.4,3.4-3.4
		C1739,411.9,1740.5,413.4,1740.5,415.3"/>
	<path class="st10" d="M1784.5,517.3c0,1.9-1.5,3.4-3.4,3.4c-1.9,0-3.4-1.5-3.4-3.4c0-1.9,1.5-3.4,3.4-3.4
		C1783,513.9,1784.5,515.4,1784.5,517.3"/>
	<path class="st10" d="M523.5,328.3c0,1.9-1.5,3.4-3.4,3.4s-3.4-1.5-3.4-3.4c0-1.9,1.5-3.4,3.4-3.4S523.5,326.4,523.5,328.3"/>
	<path class="st10" d="M2115.5,200.3c0,1.9-1.5,3.4-3.4,3.4s-3.4-1.5-3.4-3.4c0-1.9,1.5-3.4,3.4-3.4S2115.5,198.4,2115.5,200.3"/>
	<path class="st10" d="M1073,104.1c0,1.9-1.5,3.4-3.4,3.4c-1.9,0-3.4-1.5-3.4-3.4c0-1.9,1.5-3.4,3.4-3.4
		C1071.5,100.7,1073,102.3,1073,104.1"/>
	<path class="st10" d="M148.2,487c0,4.4-3.5,7.9-7.9,7.9c-4.4,0-7.9-3.5-7.9-7.9c0-4.4,3.5-7.9,7.9-7.9
		C144.7,479.1,148.2,482.6,148.2,487"/>
	<path class="st10" d="M1391.5,124.7c0,4.4-3.5,7.9-7.9,7.9c-4.4,0-7.9-3.5-7.9-7.9c0-4.4,3.5-7.9,7.9-7.9
		C1388,116.8,1391.5,120.3,1391.5,124.7"/>
	<path class="st10" d="M1549.5,275.7c0,4.4-3.5,7.9-7.9,7.9c-4.4,0-7.9-3.5-7.9-7.9c0-4.4,3.5-7.9,7.9-7.9
		C1546,267.8,1549.5,271.3,1549.5,275.7"/>
	<path class="st10" d="M1913.9,157.8c0,4.4-3.5,7.9-7.9,7.9c-4.4,0-7.9-3.5-7.9-7.9c0-4.4,3.5-7.9,7.9-7.9
		C1910.3,149.9,1913.9,153.4,1913.9,157.8"/>
	<path class="st10" d="M1679.9,130.8c0,4.4-3.5,7.9-7.9,7.9c-4.4,0-7.9-3.5-7.9-7.9c0-4.4,3.5-7.9,7.9-7.9
		C1676.3,122.9,1679.9,126.4,1679.9,130.8"/>
</g>
<g>
	<g class="st1">
		<g>
			<defs>
				<rect id="SVGID_18_" x="897.9" y="2016.2" width="187" height="51.6"/>
			</defs>
			<clipPath id="SVGID_19_">
				<use xlink:href="#SVGID_18_"  style="overflow:visible;"/>
			</clipPath>
			<path class="st11" d="M1069.5,2062.1c-0.8,0-1.7,0-2.5,0.1c-1.4-11.9-11.5-21.1-23.7-21.1c-4.9,0-9.5,1.5-13.2,4
				c-0.6-1.3-1.5-2.4-2.6-3.2c2.1-2.7,3.4-6.1,3.4-9.8c0-8.8-7.1-15.9-15.9-15.9c-6.4,0-11.9,3.8-14.4,9.2
				c-7.1-4.7-15.6-7.5-24.7-7.5c-22.8,0-41.7,17.2-44.3,39.3c-1.5-0.2-3-0.2-4.6-0.2c-11.1,0-21.2,4.1-29,10.8h105.8h45.9h35.4
				C1080.8,2064.3,1075.4,2062.1,1069.5,2062.1"/>
		</g>
	</g>
	<g class="st1">
		<g>
			<defs>
				<rect id="SVGID_20_" x="372.1" y="1671.4" width="187" height="51.6"/>
			</defs>
			<clipPath id="SVGID_21_">
				<use xlink:href="#SVGID_20_"  style="overflow:visible;"/>
			</clipPath>
			<path class="st12" d="M543.6,1717.3c-0.8,0-1.7,0-2.5,0.1c-1.4-11.9-11.5-21.1-23.7-21.1c-4.9,0-9.5,1.5-13.2,4
				c-0.6-1.3-1.5-2.4-2.6-3.2c2.1-2.7,3.4-6.1,3.4-9.8c0-8.8-7.1-15.9-15.9-15.9c-6.4,0-11.9,3.8-14.4,9.2
				c-7.1-4.7-15.6-7.5-24.7-7.5c-22.8,0-41.7,17.2-44.3,39.3c-1.5-0.2-3-0.2-4.6-0.2c-11.1,0-21.2,4.1-29,10.8h105.8h45.9h35.4
				C555,1719.4,549.6,1717.3,543.6,1717.3"/>
		</g>
	</g>
	<g class="st1">
		<g>
			<defs>
				<rect id="SVGID_22_" x="142.1" y="1523.4" width="187" height="51.6"/>
			</defs>
			<clipPath id="SVGID_23_">
				<use xlink:href="#SVGID_22_"  style="overflow:visible;"/>
			</clipPath>
			<path class="st13" d="M313.6,1569.3c-0.8,0-1.7,0-2.5,0.1c-1.4-11.9-11.5-21.1-23.7-21.1c-4.9,0-9.5,1.5-13.2,4
				c-0.6-1.3-1.5-2.4-2.6-3.2c2.1-2.7,3.4-6.1,3.4-9.8c0-8.8-7.1-15.9-15.9-15.9c-6.4,0-11.9,3.8-14.4,9.2
				c-7.1-4.7-15.6-7.5-24.7-7.5c-22.8,0-41.7,17.2-44.3,39.3c-1.5-0.2-3-0.2-4.6-0.2c-11.1,0-21.2,4.1-29,10.8h105.8h45.9h35.4
				C325,1571.4,319.6,1569.3,313.6,1569.3"/>
		</g>
	</g>
	<g class="st1">
		<g>
			<defs>
				<rect id="SVGID_24_" x="1108.1" y="1657.6" width="132.8" height="36.7"/>
			</defs>
			<clipPath id="SVGID_25_">
				<use xlink:href="#SVGID_24_"  style="overflow:visible;"/>
			</clipPath>
			<path class="st14" d="M1229.9,1690.2c-0.6,0-1.2,0-1.7,0.1c-1-8.4-8.2-15-16.9-15c-3.5,0-6.7,1-9.4,2.8c-0.4-0.9-1.1-1.7-1.9-2.3
				c1.5-1.9,2.4-4.3,2.4-7c0-6.2-5-11.3-11.3-11.3c-4.5,0-8.4,2.7-10.2,6.6c-5-3.4-11.1-5.3-17.6-5.3c-16.2,0-29.6,12.2-31.4,27.9
				c-1.1-0.1-2.2-0.2-3.3-0.2c-7.9,0-15.1,2.9-20.6,7.6h75.1h32.6h25.1C1238,1691.7,1234.1,1690.2,1229.9,1690.2"/>
		</g>
	</g>
	<g class="st1">
		<g>
			<defs>
				<rect id="SVGID_26_" x="2024.1" y="1302.6" width="132.8" height="36.7"/>
			</defs>
			<clipPath id="SVGID_27_">
				<use xlink:href="#SVGID_26_"  style="overflow:visible;"/>
			</clipPath>
			<path class="st15" d="M2145.9,1335.2c-0.6,0-1.2,0-1.7,0.1c-1-8.4-8.2-15-16.9-15c-3.5,0-6.7,1-9.4,2.8c-0.4-0.9-1.1-1.7-1.9-2.3
				c1.5-1.9,2.4-4.3,2.4-7c0-6.2-5-11.3-11.3-11.3c-4.5,0-8.4,2.7-10.2,6.6c-5-3.4-11.1-5.3-17.6-5.3c-16.2,0-29.6,12.2-31.4,27.9
				c-1.1-0.1-2.2-0.2-3.3-0.2c-7.9,0-15.1,2.9-20.6,7.6h75.1h32.6h25.1C2154,1336.7,2150.1,1335.2,2145.9,1335.2"/>
		</g>
	</g>
	<g class="st1">
		<g>
			<defs>
				<rect id="SVGID_28_" x="1786.8" y="1543.8" width="132.8" height="36.7"/>
			</defs>
			<clipPath id="SVGID_29_">
				<use xlink:href="#SVGID_28_"  style="overflow:visible;"/>
			</clipPath>
			<path class="st16" d="M1908.6,1576.3c-0.6,0-1.2,0-1.7,0.1c-1-8.4-8.2-15-16.9-15c-3.5,0-6.7,1-9.4,2.8c-0.4-0.9-1.1-1.7-1.9-2.3
				c1.5-1.9,2.4-4.3,2.4-7c0-6.2-5-11.3-11.3-11.3c-4.5,0-8.4,2.7-10.2,6.6c-5-3.4-11.1-5.3-17.6-5.3c-16.2,0-29.6,12.2-31.4,27.9
				c-1.1-0.1-2.2-0.2-3.3-0.2c-7.9,0-15.1,2.9-20.6,7.6h75.1h32.6h25.1C1916.7,1577.9,1912.8,1576.3,1908.6,1576.3"/>
		</g>
	</g>
	<g class="st1">
		<g>
			<defs>
				<rect id="SVGID_30_" x="2132.8" y="1669.8" width="132.8" height="36.7"/>
			</defs>
			<clipPath id="SVGID_31_">
				<use xlink:href="#SVGID_30_"  style="overflow:visible;"/>
			</clipPath>
			<path class="st17" d="M2254.6,1702.3c-0.6,0-1.2,0-1.7,0.1c-1-8.4-8.2-15-16.9-15c-3.5,0-6.7,1-9.4,2.8c-0.4-0.9-1.1-1.7-1.9-2.3
				c1.5-1.9,2.4-4.3,2.4-7c0-6.2-5-11.3-11.3-11.3c-4.5,0-8.4,2.7-10.2,6.6c-5-3.4-11.1-5.3-17.6-5.3c-16.2,0-29.6,12.2-31.4,27.9
				c-1.1-0.1-2.2-0.2-3.3-0.2c-7.9,0-15.1,2.9-20.6,7.6h75.1h32.6h25.1C2262.7,1703.9,2258.8,1702.3,2254.6,1702.3"/>
		</g>
	</g>
	<g class="st1">
		<g>
			<defs>
				<rect id="SVGID_32_" x="1486.8" y="1853.4" width="246.5" height="68"/>
			</defs>
			<clipPath id="SVGID_33_">
				<use xlink:href="#SVGID_32_"  style="overflow:visible;"/>
			</clipPath>
			<path class="st18" d="M1712.8,1913.8c-1.1,0-2.2,0.1-3.2,0.2c-1.8-15.6-15.1-27.8-31.3-27.8c-6.5,0-12.5,1.9-17.5,5.3
				c-0.8-1.7-2-3.2-3.5-4.3c2.8-3.6,4.5-8,4.5-12.9c0-11.5-9.4-20.9-20.9-20.9c-8.4,0-15.7,5-19,12.2c-9.3-6.2-20.5-9.9-32.6-9.9
				c-30.1,0-54.9,22.6-58.3,51.8c-2-0.2-4-0.3-6.1-0.3c-14.6,0-27.9,5.4-38.2,14.2h139.4h60.4h46.6
				C1727.8,1916.7,1720.6,1913.8,1712.8,1913.8"/>
		</g>
	</g>
	<path class="st10" d="M552.9,1386c0,2.6-2.1,4.7-4.7,4.7c-2.6,0-4.7-2.1-4.7-4.7c0-2.6,2.1-4.7,4.7-4.7
		C550.8,1381.2,552.9,1383.4,552.9,1386"/>
	<path class="st10" d="M1395.6,1720.5c0,2.6-2.1,4.7-4.7,4.7s-4.7-2.1-4.7-4.7c0-2.6,2.1-4.7,4.7-4.7S1395.6,1717.9,1395.6,1720.5"
		/>
	<path class="st10" d="M1382.6,1598.5c0,2.6-2.1,4.7-4.7,4.7s-4.7-2.1-4.7-4.7c0-2.6,2.1-4.7,4.7-4.7S1382.6,1595.9,1382.6,1598.5"
		/>
	<path class="st10" d="M981.6,1826.5c0,2.6-2.1,4.7-4.7,4.7c-2.6,0-4.7-2.1-4.7-4.7c0-2.6,2.1-4.7,4.7-4.7
		C979.5,1821.8,981.6,1823.9,981.6,1826.5"/>
	<path class="st10" d="M269.3,1875.9c0,2.6-2.1,4.7-4.7,4.7c-2.6,0-4.7-2.1-4.7-4.7c0-2.6,2.1-4.7,4.7-4.7
		C267.1,1871.1,269.3,1873.2,269.3,1875.9"/>
	<path class="st10" d="M1004.8,1590.6c0,2.6-2.1,4.7-4.7,4.7c-2.6,0-4.7-2.1-4.7-4.7c0-2.6,2.1-4.7,4.7-4.7
		C1002.6,1585.9,1004.8,1588,1004.8,1590.6"/>
	<path class="st10" d="M520.8,1885.7c0,2.6-2.1,4.7-4.7,4.7c-2.6,0-4.7-2.1-4.7-4.7c0-2.6,2.1-4.7,4.7-4.7
		C518.7,1880.9,520.8,1883.1,520.8,1885.7"/>
	<path class="st10" d="M861.2,1838.4c0,3.1-2.5,5.7-5.7,5.7s-5.7-2.5-5.7-5.7c0-3.1,2.5-5.7,5.7-5.7S861.2,1835.2,861.2,1838.4"/>
	<path class="st10" d="M874.2,1936.4c0,3.1-2.5,5.7-5.7,5.7s-5.7-2.5-5.7-5.7c0-3.1,2.5-5.7,5.7-5.7S874.2,1933.2,874.2,1936.4"/>
	<path class="st10" d="M1299.8,1985.6c0,2.6-2.1,4.7-4.7,4.7c-2.6,0-4.7-2.1-4.7-4.7c0-2.6,2.1-4.7,4.7-4.7
		C1297.7,1980.9,1299.8,1983,1299.8,1985.6"/>
	<path class="st10" d="M1203.9,2078.2c0,1.9-1.5,3.4-3.4,3.4c-1.9,0-3.4-1.5-3.4-3.4c0-1.9,1.5-3.4,3.4-3.4
		C1202.3,2074.8,1203.9,2076.3,1203.9,2078.2"/>
	<path class="st10" d="M1214.6,1853.6c0,1.9-1.5,3.4-3.4,3.4c-1.9,0-3.4-1.5-3.4-3.4c0-1.9,1.5-3.4,3.4-3.4
		C1213.1,1850.2,1214.6,1851.7,1214.6,1853.6"/>
	<path class="st10" d="M911.7,1712.6c0,1.9-1.5,3.4-3.4,3.4c-1.9,0-3.4-1.5-3.4-3.4c0-1.9,1.5-3.4,3.4-3.4
		C910.1,1709.2,911.7,1710.7,911.7,1712.6"/>
	<path class="st10" d="M2007.7,1613.6c0,1.9-1.5,3.4-3.4,3.4c-1.9,0-3.4-1.5-3.4-3.4c0-1.9,1.5-3.4,3.4-3.4
		C2006.1,1610.2,2007.7,1611.7,2007.7,1613.6"/>
	<path class="st10" d="M707.7,1876.6c0,1.9-1.5,3.4-3.4,3.4c-1.9,0-3.4-1.5-3.4-3.4c0-1.9,1.5-3.4,3.4-3.4
		C706.1,1873.2,707.7,1874.7,707.7,1876.6"/>
	<path class="st10" d="M881.4,1431.5c0,1.9-1.5,3.4-3.4,3.4c-1.9,0-3.4-1.5-3.4-3.4c0-1.9,1.5-3.4,3.4-3.4
		C879.9,1428.1,881.4,1429.6,881.4,1431.5"/>
	<path class="st10" d="M239.4,1317.5c0,1.9-1.5,3.4-3.4,3.4c-1.9,0-3.4-1.5-3.4-3.4c0-1.9,1.5-3.4,3.4-3.4
		C237.9,1314.1,239.4,1315.6,239.4,1317.5"/>
	<path class="st10" d="M1916.6,1570.3c0,1.9-1.5,3.4-3.4,3.4c-1.9,0-3.4-1.5-3.4-3.4c0-1.9,1.5-3.4,3.4-3.4
		C1915.1,1566.9,1916.6,1568.4,1916.6,1570.3"/>
	<path class="st10" d="M1878.7,1909.1c0,1.9-1.5,3.4-3.4,3.4c-1.9,0-3.4-1.5-3.4-3.4c0-1.9,1.5-3.4,3.4-3.4
		C1877.2,1905.7,1878.7,1907.2,1878.7,1909.1"/>
	<path class="st10" d="M1212.5,1527.5c0,1.9-1.5,3.4-3.4,3.4c-1.9,0-3.4-1.5-3.4-3.4c0-1.9,1.5-3.4,3.4-3.4
		C1211,1524.1,1212.5,1525.6,1212.5,1527.5"/>
	<path class="st10" d="M1975,1802.6c0,1.9-1.5,3.4-3.4,3.4c-1.9,0-3.4-1.5-3.4-3.4c0-1.9,1.5-3.4,3.4-3.4
		C1973.4,1799.1,1975,1800.7,1975,1802.6"/>
	<path class="st10" d="M243,1691.6c0,1.9-1.5,3.4-3.4,3.4s-3.4-1.5-3.4-3.4c0-1.9,1.5-3.4,3.4-3.4S243,1689.7,243,1691.6"/>
	<path class="st10" d="M1733.5,1670.3c0,1.9-1.5,3.4-3.4,3.4c-1.9,0-3.4-1.5-3.4-3.4c0-1.9,1.5-3.4,3.4-3.4
		C1732,1666.9,1733.5,1668.4,1733.5,1670.3"/>
	<path class="st10" d="M1777.5,1772.3c0,1.9-1.5,3.4-3.4,3.4c-1.9,0-3.4-1.5-3.4-3.4c0-1.9,1.5-3.4,3.4-3.4
		C1776,1768.9,1777.5,1770.4,1777.5,1772.3"/>
	<path class="st10" d="M516.5,1583.3c0,1.9-1.5,3.4-3.4,3.4c-1.9,0-3.4-1.5-3.4-3.4c0-1.9,1.5-3.4,3.4-3.4
		C515,1579.9,516.5,1581.4,516.5,1583.3"/>
	<path class="st10" d="M2108.5,1455.3c0,1.9-1.5,3.4-3.4,3.4s-3.4-1.5-3.4-3.4c0-1.9,1.5-3.4,3.4-3.4S2108.5,1453.4,2108.5,1455.3"
		/>
	<path class="st10" d="M1066,1359.1c0,1.9-1.5,3.4-3.4,3.4c-1.9,0-3.4-1.5-3.4-3.4s1.5-3.4,3.4-3.4
		C1064.5,1355.7,1066,1357.3,1066,1359.1"/>
	<path class="st10" d="M141.2,1742c0,4.4-3.5,7.9-7.9,7.9c-4.4,0-7.9-3.5-7.9-7.9c0-4.4,3.5-7.9,7.9-7.9
		C137.7,1734.1,141.2,1737.6,141.2,1742"/>
	<path class="st10" d="M1384.5,1379.7c0,4.4-3.5,7.9-7.9,7.9c-4.4,0-7.9-3.5-7.9-7.9s3.5-7.9,7.9-7.9
		C1381,1371.8,1384.5,1375.3,1384.5,1379.7"/>
	<path class="st10" d="M1542.5,1530.7c0,4.4-3.5,7.9-7.9,7.9c-4.4,0-7.9-3.5-7.9-7.9s3.5-7.9,7.9-7.9
		C1539,1522.8,1542.5,1526.3,1542.5,1530.7"/>
	<path class="st10" d="M1906.9,1412.8c0,4.4-3.5,7.9-7.9,7.9c-4.4,0-7.9-3.5-7.9-7.9c0-4.4,3.5-7.9,7.9-7.9
		C1903.3,1404.9,1906.9,1408.4,1906.9,1412.8"/>
	<path class="st10" d="M1672.9,1385.8c0,4.4-3.5,7.9-7.9,7.9c-4.4,0-7.9-3.5-7.9-7.9c0-4.4,3.5-7.9,7.9-7.9
		C1669.3,1377.9,1672.9,1381.4,1672.9,1385.8"/>
</g>
<g>
	<g class="st1">
		<g>
			<defs>
				<rect id="SVGID_34_" x="904.9" y="1468.2" width="187" height="51.6"/>
			</defs>
			<clipPath id="SVGID_35_">
				<use xlink:href="#SVGID_34_"  style="overflow:visible;"/>
			</clipPath>
			<path class="st19" d="M1076.5,1514.1c-0.8,0-1.7,0-2.5,0.1c-1.4-11.9-11.5-21.1-23.7-21.1c-4.9,0-9.5,1.5-13.2,4
				c-0.6-1.3-1.5-2.4-2.6-3.2c2.1-2.7,3.4-6.1,3.4-9.8c0-8.8-7.1-15.9-15.9-15.9c-6.4,0-11.9,3.8-14.4,9.2
				c-7.1-4.7-15.6-7.5-24.7-7.5c-22.8,0-41.7,17.2-44.3,39.3c-1.5-0.2-3-0.2-4.6-0.2c-11.1,0-21.2,4.1-29,10.8h105.8h45.9h35.4
				C1087.8,1516.3,1082.4,1514.1,1076.5,1514.1"/>
		</g>
	</g>
	<g class="st1">
		<g>
			<defs>
				<rect id="SVGID_36_" x="379.1" y="1123.4" width="187" height="51.6"/>
			</defs>
			<clipPath id="SVGID_37_">
				<use xlink:href="#SVGID_36_"  style="overflow:visible;"/>
			</clipPath>
			<path class="st20" d="M550.6,1169.3c-0.8,0-1.7,0-2.5,0.1c-1.4-11.9-11.5-21.1-23.7-21.1c-4.9,0-9.5,1.5-13.2,4
				c-0.6-1.3-1.5-2.4-2.6-3.2c2.1-2.7,3.4-6.1,3.4-9.8c0-8.8-7.1-15.9-15.9-15.9c-6.4,0-11.9,3.8-14.4,9.2
				c-7.1-4.7-15.6-7.5-24.7-7.5c-22.8,0-41.7,17.2-44.3,39.3c-1.5-0.2-3-0.2-4.6-0.2c-11.1,0-21.2,4.1-29,10.8h105.8h45.9h35.4
				C562,1171.4,556.6,1169.3,550.6,1169.3"/>
		</g>
	</g>
	<g class="st1">
		<g>
			<defs>
				<rect id="SVGID_38_" x="149.1" y="975.4" width="187" height="51.6"/>
			</defs>
			<clipPath id="SVGID_39_">
				<use xlink:href="#SVGID_38_"  style="overflow:visible;"/>
			</clipPath>
			<path class="st21" d="M320.6,1021.3c-0.8,0-1.7,0-2.5,0.1c-1.4-11.9-11.5-21.1-23.7-21.1c-4.9,0-9.5,1.5-13.2,4
				c-0.6-1.3-1.5-2.4-2.6-3.2c2.1-2.7,3.4-6.1,3.4-9.8c0-8.8-7.1-15.9-15.9-15.9c-6.4,0-11.9,3.8-14.4,9.2
				c-7.1-4.7-15.6-7.5-24.7-7.5c-22.8,0-41.7,17.2-44.3,39.3c-1.5-0.2-3-0.2-4.6-0.2c-11.1,0-21.2,4.1-29,10.8h105.8h45.9h35.4
				C332,1023.4,326.6,1021.3,320.6,1021.3"/>
		</g>
	</g>
	<g class="st1">
		<g>
			<defs>
				<rect id="SVGID_40_" x="1115.1" y="1109.6" width="132.8" height="36.7"/>
			</defs>
			<clipPath id="SVGID_41_">
				<use xlink:href="#SVGID_40_"  style="overflow:visible;"/>
			</clipPath>
			<path class="st22" d="M1236.9,1142.2c-0.6,0-1.2,0-1.7,0.1c-1-8.4-8.2-15-16.9-15c-3.5,0-6.7,1-9.4,2.8c-0.4-0.9-1.1-1.7-1.9-2.3
				c1.5-1.9,2.4-4.3,2.4-7c0-6.2-5-11.3-11.3-11.3c-4.5,0-8.4,2.7-10.2,6.6c-5-3.4-11.1-5.3-17.6-5.3c-16.2,0-29.6,12.2-31.4,27.9
				c-1.1-0.1-2.2-0.2-3.3-0.2c-7.9,0-15.1,2.9-20.6,7.6h75.1h32.6h25.1C1245,1143.7,1241.1,1142.2,1236.9,1142.2"/>
		</g>
	</g>
	<g class="st1">
		<g>
			<defs>
				<rect id="SVGID_42_" x="2031.1" y="754.6" width="132.8" height="36.7"/>
			</defs>
			<clipPath id="SVGID_43_">
				<use xlink:href="#SVGID_42_"  style="overflow:visible;"/>
			</clipPath>
			<path class="st23" d="M2152.9,787.2c-0.6,0-1.2,0-1.7,0.1c-1-8.4-8.2-15-16.9-15c-3.5,0-6.7,1-9.4,2.8c-0.4-0.9-1.1-1.7-1.9-2.3
				c1.5-1.9,2.4-4.3,2.4-7c0-6.2-5-11.3-11.3-11.3c-4.5,0-8.4,2.7-10.2,6.6c-5-3.4-11.1-5.3-17.6-5.3c-16.2,0-29.6,12.2-31.4,27.9
				c-1.1-0.1-2.2-0.2-3.3-0.2c-7.9,0-15.1,2.9-20.6,7.6h75.1h32.6h25.1C2161,788.7,2157.1,787.2,2152.9,787.2"/>
		</g>
	</g>
	<g class="st1">
		<g>
			<defs>
				<rect id="SVGID_44_" x="1793.8" y="995.8" width="132.8" height="36.7"/>
			</defs>
			<clipPath id="SVGID_45_">
				<use xlink:href="#SVGID_44_"  style="overflow:visible;"/>
			</clipPath>
			<path class="st24" d="M1915.6,1028.3c-0.6,0-1.2,0-1.7,0.1c-1-8.4-8.2-15-16.9-15c-3.5,0-6.7,1-9.4,2.8c-0.4-0.9-1.1-1.7-1.9-2.3
				c1.5-1.9,2.4-4.3,2.4-7c0-6.2-5-11.3-11.3-11.3c-4.5,0-8.4,2.7-10.2,6.6c-5-3.4-11.1-5.3-17.6-5.3c-16.2,0-29.6,12.2-31.4,27.9
				c-1.1-0.1-2.2-0.2-3.3-0.2c-7.9,0-15.1,2.9-20.6,7.6h75.1h32.6h25.1C1923.7,1029.9,1919.8,1028.3,1915.6,1028.3"/>
		</g>
	</g>
	<g class="st1">
		<g>
			<defs>
				<rect id="SVGID_46_" x="2139.8" y="1121.8" width="132.8" height="36.7"/>
			</defs>
			<clipPath id="SVGID_47_">
				<use xlink:href="#SVGID_46_"  style="overflow:visible;"/>
			</clipPath>
			<path class="st25" d="M2261.6,1154.3c-0.6,0-1.2,0-1.7,0.1c-1-8.4-8.2-15-16.9-15c-3.5,0-6.7,1-9.4,2.8c-0.4-0.9-1.1-1.7-1.9-2.3
				c1.5-1.9,2.4-4.3,2.4-7c0-6.2-5-11.3-11.3-11.3c-4.5,0-8.4,2.7-10.2,6.6c-5-3.4-11.1-5.3-17.6-5.3c-16.2,0-29.6,12.2-31.4,27.9
				c-1.1-0.1-2.2-0.2-3.3-0.2c-7.9,0-15.1,2.9-20.6,7.6h75.1h32.6h25.1C2269.7,1155.9,2265.8,1154.3,2261.6,1154.3"/>
		</g>
	</g>
	<g class="st1">
		<g>
			<defs>
				<rect id="SVGID_48_" x="1493.8" y="1305.4" width="246.5" height="68"/>
			</defs>
			<clipPath id="SVGID_49_">
				<use xlink:href="#SVGID_48_"  style="overflow:visible;"/>
			</clipPath>
			<path class="st26" d="M1719.8,1365.8c-1.1,0-2.2,0.1-3.2,0.2c-1.8-15.6-15.1-27.8-31.3-27.8c-6.5,0-12.5,1.9-17.5,5.3
				c-0.8-1.7-2-3.2-3.5-4.3c2.8-3.6,4.5-8,4.5-12.9c0-11.5-9.4-20.9-20.9-20.9c-8.4,0-15.7,5-19,12.2c-9.3-6.2-20.5-9.9-32.6-9.9
				c-30.1,0-54.9,22.6-58.3,51.8c-2-0.2-4-0.3-6.1-0.3c-14.6,0-27.9,5.4-38.2,14.2h139.4h60.4h46.6
				C1734.8,1368.7,1727.6,1365.8,1719.8,1365.8"/>
		</g>
	</g>
	<path class="st10" d="M559.9,838c0,2.6-2.1,4.7-4.7,4.7c-2.6,0-4.7-2.1-4.7-4.7c0-2.6,2.1-4.7,4.7-4.7
		C557.8,833.2,559.9,835.4,559.9,838"/>
	<path class="st10" d="M1402.6,1172.5c0,2.6-2.1,4.7-4.7,4.7s-4.7-2.1-4.7-4.7c0-2.6,2.1-4.7,4.7-4.7S1402.6,1169.9,1402.6,1172.5"
		/>
	<path class="st10" d="M1389.6,1050.5c0,2.6-2.1,4.7-4.7,4.7s-4.7-2.1-4.7-4.7c0-2.6,2.1-4.7,4.7-4.7S1389.6,1047.9,1389.6,1050.5"
		/>
	<path class="st10" d="M988.6,1278.5c0,2.6-2.1,4.7-4.7,4.7c-2.6,0-4.7-2.1-4.7-4.7c0-2.6,2.1-4.7,4.7-4.7
		C986.5,1273.8,988.6,1275.9,988.6,1278.5"/>
	<path class="st10" d="M276.3,1327.9c0,2.6-2.1,4.7-4.7,4.7c-2.6,0-4.7-2.1-4.7-4.7c0-2.6,2.1-4.7,4.7-4.7
		C274.1,1323.1,276.3,1325.2,276.3,1327.9"/>
	<path class="st10" d="M1011.8,1042.6c0,2.6-2.1,4.7-4.7,4.7c-2.6,0-4.7-2.1-4.7-4.7c0-2.6,2.1-4.7,4.7-4.7
		C1009.6,1037.9,1011.8,1040,1011.8,1042.6"/>
	<path class="st10" d="M527.8,1337.7c0,2.6-2.1,4.7-4.7,4.7c-2.6,0-4.7-2.1-4.7-4.7c0-2.6,2.1-4.7,4.7-4.7
		C525.7,1332.9,527.8,1335.1,527.8,1337.7"/>
	<path class="st10" d="M868.2,1290.4c0,3.1-2.5,5.7-5.7,5.7s-5.7-2.5-5.7-5.7c0-3.1,2.5-5.7,5.7-5.7S868.2,1287.2,868.2,1290.4"/>
	<path class="st10" d="M881.2,1388.4c0,3.1-2.5,5.7-5.7,5.7s-5.7-2.5-5.7-5.7c0-3.1,2.5-5.7,5.7-5.7S881.2,1385.2,881.2,1388.4"/>
	<path class="st10" d="M1306.8,1437.6c0,2.6-2.1,4.7-4.7,4.7c-2.6,0-4.7-2.1-4.7-4.7c0-2.6,2.1-4.7,4.7-4.7
		C1304.7,1432.9,1306.8,1435,1306.8,1437.6"/>
	<path class="st10" d="M1210.9,1530.2c0,1.9-1.5,3.4-3.4,3.4c-1.9,0-3.4-1.5-3.4-3.4c0-1.9,1.5-3.4,3.4-3.4
		C1209.3,1526.8,1210.9,1528.3,1210.9,1530.2"/>
	<path class="st10" d="M1221.6,1305.6c0,1.9-1.5,3.4-3.4,3.4c-1.9,0-3.4-1.5-3.4-3.4c0-1.9,1.5-3.4,3.4-3.4
		C1220.1,1302.2,1221.6,1303.7,1221.6,1305.6"/>
	<path class="st10" d="M918.7,1164.6c0,1.9-1.5,3.4-3.4,3.4c-1.9,0-3.4-1.5-3.4-3.4c0-1.9,1.5-3.4,3.4-3.4
		C917.1,1161.2,918.7,1162.7,918.7,1164.6"/>
	<path class="st10" d="M2014.7,1065.6c0,1.9-1.5,3.4-3.4,3.4c-1.9,0-3.4-1.5-3.4-3.4c0-1.9,1.5-3.4,3.4-3.4
		C2013.1,1062.2,2014.7,1063.7,2014.7,1065.6"/>
	<path class="st10" d="M714.7,1328.6c0,1.9-1.5,3.4-3.4,3.4c-1.9,0-3.4-1.5-3.4-3.4c0-1.9,1.5-3.4,3.4-3.4
		C713.1,1325.2,714.7,1326.7,714.7,1328.6"/>
	<path class="st10" d="M888.4,883.5c0,1.9-1.5,3.4-3.4,3.4c-1.9,0-3.4-1.5-3.4-3.4c0-1.9,1.5-3.4,3.4-3.4
		C886.9,880.1,888.4,881.6,888.4,883.5"/>
	<path class="st10" d="M246.4,769.5c0,1.9-1.5,3.4-3.4,3.4c-1.9,0-3.4-1.5-3.4-3.4c0-1.9,1.5-3.4,3.4-3.4
		C244.9,766.1,246.4,767.6,246.4,769.5"/>
	<path class="st10" d="M1923.6,1022.3c0,1.9-1.5,3.4-3.4,3.4c-1.9,0-3.4-1.5-3.4-3.4c0-1.9,1.5-3.4,3.4-3.4
		C1922.1,1018.9,1923.6,1020.4,1923.6,1022.3"/>
	<path class="st10" d="M1885.7,1361.1c0,1.9-1.5,3.4-3.4,3.4c-1.9,0-3.4-1.5-3.4-3.4c0-1.9,1.5-3.4,3.4-3.4
		C1884.2,1357.7,1885.7,1359.2,1885.7,1361.1"/>
	<path class="st10" d="M1219.5,979.5c0,1.9-1.5,3.4-3.4,3.4c-1.9,0-3.4-1.5-3.4-3.4c0-1.9,1.5-3.4,3.4-3.4
		C1218,976.1,1219.5,977.6,1219.5,979.5"/>
	<path class="st10" d="M1982,1254.6c0,1.9-1.5,3.4-3.4,3.4c-1.9,0-3.4-1.5-3.4-3.4c0-1.9,1.5-3.4,3.4-3.4
		C1980.4,1251.1,1982,1252.7,1982,1254.6"/>
	<path class="st10" d="M250,1143.6c0,1.9-1.5,3.4-3.4,3.4s-3.4-1.5-3.4-3.4c0-1.9,1.5-3.4,3.4-3.4S250,1141.7,250,1143.6"/>
	<path class="st10" d="M1740.5,1122.3c0,1.9-1.5,3.4-3.4,3.4c-1.9,0-3.4-1.5-3.4-3.4c0-1.9,1.5-3.4,3.4-3.4
		C1739,1118.9,1740.5,1120.4,1740.5,1122.3"/>
	<path class="st10" d="M1784.5,1224.3c0,1.9-1.5,3.4-3.4,3.4c-1.9,0-3.4-1.5-3.4-3.4c0-1.9,1.5-3.4,3.4-3.4
		C1783,1220.9,1784.5,1222.4,1784.5,1224.3"/>
	<path class="st10" d="M523.5,1035.3c0,1.9-1.5,3.4-3.4,3.4s-3.4-1.5-3.4-3.4c0-1.9,1.5-3.4,3.4-3.4S523.5,1033.4,523.5,1035.3"/>
	<path class="st10" d="M2115.5,907.3c0,1.9-1.5,3.4-3.4,3.4s-3.4-1.5-3.4-3.4c0-1.9,1.5-3.4,3.4-3.4S2115.5,905.4,2115.5,907.3"/>
	<path class="st10" d="M1073,811.1c0,1.9-1.5,3.4-3.4,3.4c-1.9,0-3.4-1.5-3.4-3.4c0-1.9,1.5-3.4,3.4-3.4
		C1071.5,807.7,1073,809.3,1073,811.1"/>
	<path class="st10" d="M148.2,1194c0,4.4-3.5,7.9-7.9,7.9c-4.4,0-7.9-3.5-7.9-7.9c0-4.4,3.5-7.9,7.9-7.9
		C144.7,1186.1,148.2,1189.6,148.2,1194"/>
	<path class="st10" d="M1391.5,831.7c0,4.4-3.5,7.9-7.9,7.9c-4.4,0-7.9-3.5-7.9-7.9c0-4.4,3.5-7.9,7.9-7.9
		C1388,823.8,1391.5,827.3,1391.5,831.7"/>
	<path class="st10" d="M1549.5,982.7c0,4.4-3.5,7.9-7.9,7.9c-4.4,0-7.9-3.5-7.9-7.9c0-4.4,3.5-7.9,7.9-7.9
		C1546,974.8,1549.5,978.3,1549.5,982.7"/>
	<path class="st10" d="M1913.9,864.8c0,4.4-3.5,7.9-7.9,7.9c-4.4,0-7.9-3.5-7.9-7.9c0-4.4,3.5-7.9,7.9-7.9
		C1910.3,856.9,1913.9,860.4,1913.9,864.8"/>
	<path class="st10" d="M1679.9,837.8c0,4.4-3.5,7.9-7.9,7.9c-4.4,0-7.9-3.5-7.9-7.9c0-4.4,3.5-7.9,7.9-7.9
		C1676.3,829.9,1679.9,833.4,1679.9,837.8"/>
</g>
</svg>
