<?xml version="1.0" encoding="utf-8"?>
<!-- Generator: Adobe Illustrator 22.1.0, SVG Export Plug-In . SVG Version: 6.00 Build 0)  -->
<svg version="1.1" id="Layer_1" xmlns="http://www.w3.org/2000/svg" xmlns:xlink="http://www.w3.org/1999/xlink" x="0px" y="0px"
	 viewBox="0 0 2465 2084" style="enable-background:new 0 0 2465 2084;" xml:space="preserve">
<style type="text/css">
	.st0{fill:url(#SVGID_1_);}
	.st1{opacity:0.3;}
	.st2{clip-path:url(#SVGID_3_);fill:#FFFFFF;}
	.st3{clip-path:url(#SVGID_5_);fill:#FFFFFF;}
	.st4{clip-path:url(#SVGID_7_);fill:#FFFFFF;}
	.st5{clip-path:url(#SVGID_9_);fill:#FFFFFF;}
	.st6{clip-path:url(#SVGID_11_);fill:#FFFFFF;}
	.st7{clip-path:url(#SVGID_13_);fill:#FFFFFF;}
	.st8{clip-path:url(#SVGID_15_);fill:#FFFFFF;}
	.st9{clip-path:url(#SVGID_17_);fill:#FFFFFF;}
	.st10{fill:#FFFFFF;}
	.st11{clip-path:url(#SVGID_19_);fill:#FFFFFF;}
	.st12{clip-path:url(#SVGID_21_);fill:#FFFFFF;}
	.st13{clip-path:url(#SVGID_23_);fill:#FFFFFF;}
	.st14{clip-path:url(#SVGID_25_);fill:#FFFFFF;}
	.st15{clip-path:url(#SVGID_27_);fill:#FFFFFF;}
	.st16{clip-path:url(#SVGID_29_);fill:#FFFFFF;}
	.st17{clip-path:url(#SVGID_31_);fill:#FFFFFF;}
	.st18{clip-path:url(#SVGID_33_);fill:#FFFFFF;}
	.st19{clip-path:url(#SVGID_35_);fill:#FFFFFF;}
	.st20{clip-path:url(#SVGID_37_);fill:#FFFFFF;}
	.st21{clip-path:url(#SVGID_39_);fill:#FFFFFF;}
	.st22{clip-path:url(#SVGID_41_);fill:#FFFFFF;}
	.st23{clip-path:url(#SVGID_43_);fill:#FFFFFF;}
	.st24{clip-path:url(#SVGID_45_);fill:#FFFFFF;}
	.st25{clip-path:url(#SVGID_47_);fill:#FFFFFF;}
	.st26{clip-path:url(#SVGID_49_);fill:#FFFFFF;}
	.st27{fill:#2D459E;}
	.st28{fill:#171C59;}
	.st29{fill:#21236A;}
	.st30{fill:url(#SVGID_50_);}
</style>
<linearGradient id="SVGID_1_" gradientUnits="userSpaceOnUse" x1="414.3459" y1="270.8275" x2="418.5139" y2="270.8275" gradientTransform="matrix(0 -481.526 -481.526 0 131642.9844 201533.3125)">
	<stop  offset="0.2758" style="stop-color:#4B84FF"/>
	<stop  offset="0.7146" style="stop-color:#2D50A6"/>
	<stop  offset="1" style="stop-color:#171C59"/>
</linearGradient>
<rect class="st0" width="2465" height="2084"/>
<g>
	<g class="st1">
		<g>
			<defs>
				<rect id="SVGID_2_" x="904.9" y="761.2" width="187" height="51.6"/>
			</defs>
			<clipPath id="SVGID_3_">
				<use xlink:href="#SVGID_2_"  style="overflow:visible;"/>
			</clipPath>
			<path class="st2" d="M1076.5,807.1c-0.8,0-1.7,0-2.5,0.1c-1.4-11.9-11.5-21.1-23.7-21.1c-4.9,0-9.5,1.5-13.2,4
				c-0.6-1.3-1.5-2.4-2.6-3.2c2.1-2.7,3.4-6.1,3.4-9.8c0-8.8-7.1-15.9-15.9-15.9c-6.4,0-11.9,3.8-14.4,9.2
				c-7.1-4.7-15.6-7.5-24.7-7.5c-22.8,0-41.7,17.2-44.3,39.3c-1.5-0.2-3-0.2-4.6-0.2c-11.1,0-21.2,4.1-29,10.8h105.8h45.9h35.4
				C1087.8,809.3,1082.4,807.1,1076.5,807.1"/>
		</g>
	</g>
	<g class="st1">
		<g>
			<defs>
				<rect id="SVGID_4_" x="379.1" y="416.4" width="187" height="51.6"/>
			</defs>
			<clipPath id="SVGID_5_">
				<use xlink:href="#SVGID_4_"  style="overflow:visible;"/>
			</clipPath>
			<path class="st3" d="M550.6,462.3c-0.8,0-1.7,0-2.5,0.1c-1.4-11.9-11.5-21.1-23.7-21.1c-4.9,0-9.5,1.5-13.2,4
				c-0.6-1.3-1.5-2.4-2.6-3.2c2.1-2.7,3.4-6.1,3.4-9.8c0-8.8-7.1-15.9-15.9-15.9c-6.4,0-11.9,3.8-14.4,9.2
				c-7.1-4.7-15.6-7.5-24.7-7.5c-22.8,0-41.7,17.2-44.3,39.3c-1.5-0.2-3-0.2-4.6-0.2c-11.1,0-21.2,4.1-29,10.8h105.8h45.9h35.4
				C562,464.4,556.6,462.3,550.6,462.3"/>
		</g>
	</g>
	<g class="st1">
		<g>
			<defs>
				<rect id="SVGID_6_" x="149.1" y="268.4" width="187" height="51.6"/>
			</defs>
			<clipPath id="SVGID_7_">
				<use xlink:href="#SVGID_6_"  style="overflow:visible;"/>
			</clipPath>
			<path class="st4" d="M320.6,314.3c-0.8,0-1.7,0-2.5,0.1c-1.4-11.9-11.5-21.1-23.7-21.1c-4.9,0-9.5,1.5-13.2,4
				c-0.6-1.3-1.5-2.4-2.6-3.2c2.1-2.7,3.4-6.1,3.4-9.8c0-8.8-7.1-15.9-15.9-15.9c-6.4,0-11.9,3.8-14.4,9.2
				c-7.1-4.7-15.6-7.5-24.7-7.5c-22.8,0-41.7,17.2-44.3,39.3c-1.5-0.2-3-0.2-4.6-0.2c-11.1,0-21.2,4.1-29,10.8h105.8h45.9h35.4
				C332,316.4,326.6,314.3,320.6,314.3"/>
		</g>
	</g>
	<g class="st1">
		<g>
			<defs>
				<rect id="SVGID_8_" x="1115.1" y="402.6" width="132.8" height="36.7"/>
			</defs>
			<clipPath id="SVGID_9_">
				<use xlink:href="#SVGID_8_"  style="overflow:visible;"/>
			</clipPath>
			<path class="st5" d="M1236.9,435.2c-0.6,0-1.2,0-1.7,0.1c-1-8.4-8.2-15-16.9-15c-3.5,0-6.7,1-9.4,2.8c-0.4-0.9-1.1-1.7-1.9-2.3
				c1.5-1.9,2.4-4.3,2.4-7c0-6.2-5-11.3-11.3-11.3c-4.5,0-8.4,2.7-10.2,6.6c-5-3.4-11.1-5.3-17.6-5.3c-16.2,0-29.6,12.2-31.4,27.9
				c-1.1-0.1-2.2-0.2-3.3-0.2c-7.9,0-15.1,2.9-20.6,7.6h75.1h32.6h25.1C1245,436.7,1241.1,435.2,1236.9,435.2"/>
		</g>
	</g>
	<g class="st1">
		<g>
			<defs>
				<rect id="SVGID_10_" x="2031.1" y="47.6" width="132.8" height="36.7"/>
			</defs>
			<clipPath id="SVGID_11_">
				<use xlink:href="#SVGID_10_"  style="overflow:visible;"/>
			</clipPath>
			<path class="st6" d="M2152.9,80.2c-0.6,0-1.2,0-1.7,0.1c-1-8.4-8.2-15-16.9-15c-3.5,0-6.7,1-9.4,2.8c-0.4-0.9-1.1-1.7-1.9-2.3
				c1.5-1.9,2.4-4.3,2.4-7c0-6.2-5-11.3-11.3-11.3c-4.5,0-8.4,2.7-10.2,6.6c-5-3.4-11.1-5.3-17.6-5.3c-16.2,0-29.6,12.2-31.4,27.9
				c-1.1-0.1-2.2-0.2-3.3-0.2c-7.9,0-15.1,2.9-20.6,7.6h75.1h32.6h25.1C2161,81.7,2157.1,80.2,2152.9,80.2"/>
		</g>
	</g>
	<g class="st1">
		<g>
			<defs>
				<rect id="SVGID_12_" x="1793.8" y="288.8" width="132.8" height="36.7"/>
			</defs>
			<clipPath id="SVGID_13_">
				<use xlink:href="#SVGID_12_"  style="overflow:visible;"/>
			</clipPath>
			<path class="st7" d="M1915.6,321.3c-0.6,0-1.2,0-1.7,0.1c-1-8.4-8.2-15-16.9-15c-3.5,0-6.7,1-9.4,2.8c-0.4-0.9-1.1-1.7-1.9-2.3
				c1.5-1.9,2.4-4.3,2.4-7c0-6.2-5-11.3-11.3-11.3c-4.5,0-8.4,2.7-10.2,6.6c-5-3.4-11.1-5.3-17.6-5.3c-16.2,0-29.6,12.2-31.4,27.9
				c-1.1-0.1-2.2-0.2-3.3-0.2c-7.9,0-15.1,2.9-20.6,7.6h75.1h32.6h25.1C1923.7,322.9,1919.8,321.3,1915.6,321.3"/>
		</g>
	</g>
	<g class="st1">
		<g>
			<defs>
				<rect id="SVGID_14_" x="2139.8" y="414.8" width="132.8" height="36.7"/>
			</defs>
			<clipPath id="SVGID_15_">
				<use xlink:href="#SVGID_14_"  style="overflow:visible;"/>
			</clipPath>
			<path class="st8" d="M2261.6,447.3c-0.6,0-1.2,0-1.7,0.1c-1-8.4-8.2-15-16.9-15c-3.5,0-6.7,1-9.4,2.8c-0.4-0.9-1.1-1.7-1.9-2.3
				c1.5-1.9,2.4-4.3,2.4-7c0-6.2-5-11.3-11.3-11.3c-4.5,0-8.4,2.7-10.2,6.6c-5-3.4-11.1-5.3-17.6-5.3c-16.2,0-29.6,12.2-31.4,27.9
				c-1.1-0.1-2.2-0.2-3.3-0.2c-7.9,0-15.1,2.9-20.6,7.6h75.1h32.6h25.1C2269.7,448.9,2265.8,447.3,2261.6,447.3"/>
		</g>
	</g>
	<g class="st1">
		<g>
			<defs>
				<rect id="SVGID_16_" x="1493.8" y="598.4" width="246.5" height="68"/>
			</defs>
			<clipPath id="SVGID_17_">
				<use xlink:href="#SVGID_16_"  style="overflow:visible;"/>
			</clipPath>
			<path class="st9" d="M1719.8,658.8c-1.1,0-2.2,0.1-3.2,0.2c-1.8-15.6-15.1-27.8-31.3-27.8c-6.5,0-12.5,1.9-17.5,5.3
				c-0.8-1.7-2-3.2-3.5-4.3c2.8-3.6,4.5-8,4.5-12.9c0-11.5-9.4-20.9-20.9-20.9c-8.4,0-15.7,5-19,12.2c-9.3-6.2-20.5-9.9-32.6-9.9
				c-30.1,0-54.9,22.6-58.3,51.8c-2-0.2-4-0.3-6.1-0.3c-14.6,0-27.9,5.4-38.2,14.2h139.4h60.4h46.6
				C1734.8,661.7,1727.6,658.8,1719.8,658.8"/>
		</g>
	</g>
	<path class="st10" d="M559.9,131c0,2.6-2.1,4.7-4.7,4.7c-2.6,0-4.7-2.1-4.7-4.7c0-2.6,2.1-4.7,4.7-4.7
		C557.8,126.2,559.9,128.4,559.9,131"/>
	<path class="st10" d="M1402.6,465.5c0,2.6-2.1,4.7-4.7,4.7s-4.7-2.1-4.7-4.7c0-2.6,2.1-4.7,4.7-4.7S1402.6,462.9,1402.6,465.5"/>
	<path class="st10" d="M1389.6,343.5c0,2.6-2.1,4.7-4.7,4.7s-4.7-2.1-4.7-4.7c0-2.6,2.1-4.7,4.7-4.7S1389.6,340.9,1389.6,343.5"/>
	<path class="st10" d="M988.6,571.5c0,2.6-2.1,4.7-4.7,4.7c-2.6,0-4.7-2.1-4.7-4.7c0-2.6,2.1-4.7,4.7-4.7
		C986.5,566.8,988.6,568.9,988.6,571.5"/>
	<path class="st10" d="M276.3,620.9c0,2.6-2.1,4.7-4.7,4.7c-2.6,0-4.7-2.1-4.7-4.7c0-2.6,2.1-4.7,4.7-4.7
		C274.1,616.1,276.3,618.2,276.3,620.9"/>
	<path class="st10" d="M1011.8,335.6c0,2.6-2.1,4.7-4.7,4.7c-2.6,0-4.7-2.1-4.7-4.7c0-2.6,2.1-4.7,4.7-4.7
		C1009.6,330.9,1011.8,333,1011.8,335.6"/>
	<path class="st10" d="M527.8,630.7c0,2.6-2.1,4.7-4.7,4.7c-2.6,0-4.7-2.1-4.7-4.7c0-2.6,2.1-4.7,4.7-4.7
		C525.7,625.9,527.8,628.1,527.8,630.7"/>
	<path class="st10" d="M868.2,583.4c0,3.1-2.5,5.7-5.7,5.7s-5.7-2.5-5.7-5.7c0-3.1,2.5-5.7,5.7-5.7S868.2,580.2,868.2,583.4"/>
	<path class="st10" d="M881.2,681.4c0,3.1-2.5,5.7-5.7,5.7s-5.7-2.5-5.7-5.7c0-3.1,2.5-5.7,5.7-5.7S881.2,678.2,881.2,681.4"/>
	<path class="st10" d="M1306.8,730.6c0,2.6-2.1,4.7-4.7,4.7c-2.6,0-4.7-2.1-4.7-4.7c0-2.6,2.1-4.7,4.7-4.7
		C1304.7,725.9,1306.8,728,1306.8,730.6"/>
	<path class="st10" d="M1210.9,823.2c0,1.9-1.5,3.4-3.4,3.4c-1.9,0-3.4-1.5-3.4-3.4c0-1.9,1.5-3.4,3.4-3.4
		C1209.3,819.8,1210.9,821.3,1210.9,823.2"/>
	<path class="st10" d="M1221.6,598.6c0,1.9-1.5,3.4-3.4,3.4c-1.9,0-3.4-1.5-3.4-3.4c0-1.9,1.5-3.4,3.4-3.4
		C1220.1,595.2,1221.6,596.7,1221.6,598.6"/>
	<path class="st10" d="M918.7,457.6c0,1.9-1.5,3.4-3.4,3.4c-1.9,0-3.4-1.5-3.4-3.4c0-1.9,1.5-3.4,3.4-3.4
		C917.1,454.2,918.7,455.7,918.7,457.6"/>
	<path class="st10" d="M2014.7,358.6c0,1.9-1.5,3.4-3.4,3.4c-1.9,0-3.4-1.5-3.4-3.4c0-1.9,1.5-3.4,3.4-3.4
		C2013.1,355.2,2014.7,356.7,2014.7,358.6"/>
	<path class="st10" d="M714.7,621.6c0,1.9-1.5,3.4-3.4,3.4c-1.9,0-3.4-1.5-3.4-3.4c0-1.9,1.5-3.4,3.4-3.4
		C713.1,618.2,714.7,619.7,714.7,621.6"/>
	<path class="st10" d="M888.4,176.5c0,1.9-1.5,3.4-3.4,3.4c-1.9,0-3.4-1.5-3.4-3.4c0-1.9,1.5-3.4,3.4-3.4
		C886.9,173.1,888.4,174.6,888.4,176.5"/>
	<path class="st10" d="M246.4,62.5c0,1.9-1.5,3.4-3.4,3.4c-1.9,0-3.4-1.5-3.4-3.4c0-1.9,1.5-3.4,3.4-3.4
		C244.9,59.1,246.4,60.6,246.4,62.5"/>
	<path class="st10" d="M1923.6,315.3c0,1.9-1.5,3.4-3.4,3.4c-1.9,0-3.4-1.5-3.4-3.4c0-1.9,1.5-3.4,3.4-3.4
		C1922.1,311.9,1923.6,313.4,1923.6,315.3"/>
	<path class="st10" d="M1885.7,654.1c0,1.9-1.5,3.4-3.4,3.4c-1.9,0-3.4-1.5-3.4-3.4c0-1.9,1.5-3.4,3.4-3.4
		C1884.2,650.7,1885.7,652.2,1885.7,654.1"/>
	<path class="st10" d="M1219.5,272.5c0,1.9-1.5,3.4-3.4,3.4c-1.9,0-3.4-1.5-3.4-3.4c0-1.9,1.5-3.4,3.4-3.4
		C1218,269.1,1219.5,270.6,1219.5,272.5"/>
	<path class="st10" d="M1982,547.6c0,1.9-1.5,3.4-3.4,3.4c-1.9,0-3.4-1.5-3.4-3.4c0-1.9,1.5-3.4,3.4-3.4
		C1980.4,544.1,1982,545.7,1982,547.6"/>
	<path class="st10" d="M250,436.6c0,1.9-1.5,3.4-3.4,3.4s-3.4-1.5-3.4-3.4c0-1.9,1.5-3.4,3.4-3.4S250,434.7,250,436.6"/>
	<path class="st10" d="M1740.5,415.3c0,1.9-1.5,3.4-3.4,3.4c-1.9,0-3.4-1.5-3.4-3.4c0-1.9,1.5-3.4,3.4-3.4
		C1739,411.9,1740.5,413.4,1740.5,415.3"/>
	<path class="st10" d="M1784.5,517.3c0,1.9-1.5,3.4-3.4,3.4c-1.9,0-3.4-1.5-3.4-3.4c0-1.9,1.5-3.4,3.4-3.4
		C1783,513.9,1784.5,515.4,1784.5,517.3"/>
	<path class="st10" d="M523.5,328.3c0,1.9-1.5,3.4-3.4,3.4s-3.4-1.5-3.4-3.4c0-1.9,1.5-3.4,3.4-3.4S523.5,326.4,523.5,328.3"/>
	<path class="st10" d="M2115.5,200.3c0,1.9-1.5,3.4-3.4,3.4s-3.4-1.5-3.4-3.4c0-1.9,1.5-3.4,3.4-3.4S2115.5,198.4,2115.5,200.3"/>
	<path class="st10" d="M1073,104.1c0,1.9-1.5,3.4-3.4,3.4c-1.9,0-3.4-1.5-3.4-3.4c0-1.9,1.5-3.4,3.4-3.4
		C1071.5,100.7,1073,102.3,1073,104.1"/>
	<path class="st10" d="M148.2,487c0,4.4-3.5,7.9-7.9,7.9c-4.4,0-7.9-3.5-7.9-7.9c0-4.4,3.5-7.9,7.9-7.9
		C144.7,479.1,148.2,482.6,148.2,487"/>
	<path class="st10" d="M1391.5,124.7c0,4.4-3.5,7.9-7.9,7.9c-4.4,0-7.9-3.5-7.9-7.9c0-4.4,3.5-7.9,7.9-7.9
		C1388,116.8,1391.5,120.3,1391.5,124.7"/>
	<path class="st10" d="M1549.5,275.7c0,4.4-3.5,7.9-7.9,7.9c-4.4,0-7.9-3.5-7.9-7.9c0-4.4,3.5-7.9,7.9-7.9
		C1546,267.8,1549.5,271.3,1549.5,275.7"/>
	<path class="st10" d="M1913.9,157.8c0,4.4-3.5,7.9-7.9,7.9c-4.4,0-7.9-3.5-7.9-7.9c0-4.4,3.5-7.9,7.9-7.9
		C1910.3,149.9,1913.9,153.4,1913.9,157.8"/>
	<path class="st10" d="M1679.9,130.8c0,4.4-3.5,7.9-7.9,7.9c-4.4,0-7.9-3.5-7.9-7.9c0-4.4,3.5-7.9,7.9-7.9
		C1676.3,122.9,1679.9,126.4,1679.9,130.8"/>
</g>
<g>
	<g class="st1">
		<g>
			<defs>
				<rect id="SVGID_18_" x="897.9" y="2016.2" width="187" height="51.6"/>
			</defs>
			<clipPath id="SVGID_19_">
				<use xlink:href="#SVGID_18_"  style="overflow:visible;"/>
			</clipPath>
			<path class="st11" d="M1069.5,2062.1c-0.8,0-1.7,0-2.5,0.1c-1.4-11.9-11.5-21.1-23.7-21.1c-4.9,0-9.5,1.5-13.2,4
				c-0.6-1.3-1.5-2.4-2.6-3.2c2.1-2.7,3.4-6.1,3.4-9.8c0-8.8-7.1-15.9-15.9-15.9c-6.4,0-11.9,3.8-14.4,9.2
				c-7.1-4.7-15.6-7.5-24.7-7.5c-22.8,0-41.7,17.2-44.3,39.3c-1.5-0.2-3-0.2-4.6-0.2c-11.1,0-21.2,4.1-29,10.8h105.8h45.9h35.4
				C1080.8,2064.3,1075.4,2062.1,1069.5,2062.1"/>
		</g>
	</g>
	<g class="st1">
		<g>
			<defs>
				<rect id="SVGID_20_" x="372.1" y="1671.4" width="187" height="51.6"/>
			</defs>
			<clipPath id="SVGID_21_">
				<use xlink:href="#SVGID_20_"  style="overflow:visible;"/>
			</clipPath>
			<path class="st12" d="M543.6,1717.3c-0.8,0-1.7,0-2.5,0.1c-1.4-11.9-11.5-21.1-23.7-21.1c-4.9,0-9.5,1.5-13.2,4
				c-0.6-1.3-1.5-2.4-2.6-3.2c2.1-2.7,3.4-6.1,3.4-9.8c0-8.8-7.1-15.9-15.9-15.9c-6.4,0-11.9,3.8-14.4,9.2
				c-7.1-4.7-15.6-7.5-24.7-7.5c-22.8,0-41.7,17.2-44.3,39.3c-1.5-0.2-3-0.2-4.6-0.2c-11.1,0-21.2,4.1-29,10.8h105.8h45.9h35.4
				C555,1719.4,549.6,1717.3,543.6,1717.3"/>
		</g>
	</g>
	<g class="st1">
		<g>
			<defs>
				<rect id="SVGID_22_" x="142.1" y="1523.4" width="187" height="51.6"/>
			</defs>
			<clipPath id="SVGID_23_">
				<use xlink:href="#SVGID_22_"  style="overflow:visible;"/>
			</clipPath>
			<path class="st13" d="M313.6,1569.3c-0.8,0-1.7,0-2.5,0.1c-1.4-11.9-11.5-21.1-23.7-21.1c-4.9,0-9.5,1.5-13.2,4
				c-0.6-1.3-1.5-2.4-2.6-3.2c2.1-2.7,3.4-6.1,3.4-9.8c0-8.8-7.1-15.9-15.9-15.9c-6.4,0-11.9,3.8-14.4,9.2
				c-7.1-4.7-15.6-7.5-24.7-7.5c-22.8,0-41.7,17.2-44.3,39.3c-1.5-0.2-3-0.2-4.6-0.2c-11.1,0-21.2,4.1-29,10.8h105.8h45.9h35.4
				C325,1571.4,319.6,1569.3,313.6,1569.3"/>
		</g>
	</g>
	<g class="st1">
		<g>
			<defs>
				<rect id="SVGID_24_" x="1108.1" y="1657.6" width="132.8" height="36.7"/>
			</defs>
			<clipPath id="SVGID_25_">
				<use xlink:href="#SVGID_24_"  style="overflow:visible;"/>
			</clipPath>
			<path class="st14" d="M1229.9,1690.2c-0.6,0-1.2,0-1.7,0.1c-1-8.4-8.2-15-16.9-15c-3.5,0-6.7,1-9.4,2.8c-0.4-0.9-1.1-1.7-1.9-2.3
				c1.5-1.9,2.4-4.3,2.4-7c0-6.2-5-11.3-11.3-11.3c-4.5,0-8.4,2.7-10.2,6.6c-5-3.4-11.1-5.3-17.6-5.3c-16.2,0-29.6,12.2-31.4,27.9
				c-1.1-0.1-2.2-0.2-3.3-0.2c-7.9,0-15.1,2.9-20.6,7.6h75.1h32.6h25.1C1238,1691.7,1234.1,1690.2,1229.9,1690.2"/>
		</g>
	</g>
	<g class="st1">
		<g>
			<defs>
				<rect id="SVGID_26_" x="2024.1" y="1302.6" width="132.8" height="36.7"/>
			</defs>
			<clipPath id="SVGID_27_">
				<use xlink:href="#SVGID_26_"  style="overflow:visible;"/>
			</clipPath>
			<path class="st15" d="M2145.9,1335.2c-0.6,0-1.2,0-1.7,0.1c-1-8.4-8.2-15-16.9-15c-3.5,0-6.7,1-9.4,2.8c-0.4-0.9-1.1-1.7-1.9-2.3
				c1.5-1.9,2.4-4.3,2.4-7c0-6.2-5-11.3-11.3-11.3c-4.5,0-8.4,2.7-10.2,6.6c-5-3.4-11.1-5.3-17.6-5.3c-16.2,0-29.6,12.2-31.4,27.9
				c-1.1-0.1-2.2-0.2-3.3-0.2c-7.9,0-15.1,2.9-20.6,7.6h75.1h32.6h25.1C2154,1336.7,2150.1,1335.2,2145.9,1335.2"/>
		</g>
	</g>
	<g class="st1">
		<g>
			<defs>
				<rect id="SVGID_28_" x="1786.8" y="1543.8" width="132.8" height="36.7"/>
			</defs>
			<clipPath id="SVGID_29_">
				<use xlink:href="#SVGID_28_"  style="overflow:visible;"/>
			</clipPath>
			<path class="st16" d="M1908.6,1576.3c-0.6,0-1.2,0-1.7,0.1c-1-8.4-8.2-15-16.9-15c-3.5,0-6.7,1-9.4,2.8c-0.4-0.9-1.1-1.7-1.9-2.3
				c1.5-1.9,2.4-4.3,2.4-7c0-6.2-5-11.3-11.3-11.3c-4.5,0-8.4,2.7-10.2,6.6c-5-3.4-11.1-5.3-17.6-5.3c-16.2,0-29.6,12.2-31.4,27.9
				c-1.1-0.1-2.2-0.2-3.3-0.2c-7.9,0-15.1,2.9-20.6,7.6h75.1h32.6h25.1C1916.7,1577.9,1912.8,1576.3,1908.6,1576.3"/>
		</g>
	</g>
	<g class="st1">
		<g>
			<defs>
				<rect id="SVGID_30_" x="2132.8" y="1669.8" width="132.8" height="36.7"/>
			</defs>
			<clipPath id="SVGID_31_">
				<use xlink:href="#SVGID_30_"  style="overflow:visible;"/>
			</clipPath>
			<path class="st17" d="M2254.6,1702.3c-0.6,0-1.2,0-1.7,0.1c-1-8.4-8.2-15-16.9-15c-3.5,0-6.7,1-9.4,2.8c-0.4-0.9-1.1-1.7-1.9-2.3
				c1.5-1.9,2.4-4.3,2.4-7c0-6.2-5-11.3-11.3-11.3c-4.5,0-8.4,2.7-10.2,6.6c-5-3.4-11.1-5.3-17.6-5.3c-16.2,0-29.6,12.2-31.4,27.9
				c-1.1-0.1-2.2-0.2-3.3-0.2c-7.9,0-15.1,2.9-20.6,7.6h75.1h32.6h25.1C2262.7,1703.9,2258.8,1702.3,2254.6,1702.3"/>
		</g>
	</g>
	<g class="st1">
		<g>
			<defs>
				<rect id="SVGID_32_" x="1486.8" y="1853.4" width="246.5" height="68"/>
			</defs>
			<clipPath id="SVGID_33_">
				<use xlink:href="#SVGID_32_"  style="overflow:visible;"/>
			</clipPath>
			<path class="st18" d="M1712.8,1913.8c-1.1,0-2.2,0.1-3.2,0.2c-1.8-15.6-15.1-27.8-31.3-27.8c-6.5,0-12.5,1.9-17.5,5.3
				c-0.8-1.7-2-3.2-3.5-4.3c2.8-3.6,4.5-8,4.5-12.9c0-11.5-9.4-20.9-20.9-20.9c-8.4,0-15.7,5-19,12.2c-9.3-6.2-20.5-9.9-32.6-9.9
				c-30.1,0-54.9,22.6-58.3,51.8c-2-0.2-4-0.3-6.1-0.3c-14.6,0-27.9,5.4-38.2,14.2h139.4h60.4h46.6
				C1727.8,1916.7,1720.6,1913.8,1712.8,1913.8"/>
		</g>
	</g>
	<path class="st10" d="M552.9,1386c0,2.6-2.1,4.7-4.7,4.7c-2.6,0-4.7-2.1-4.7-4.7c0-2.6,2.1-4.7,4.7-4.7
		C550.8,1381.2,552.9,1383.4,552.9,1386"/>
	<path class="st10" d="M1395.6,1720.5c0,2.6-2.1,4.7-4.7,4.7s-4.7-2.1-4.7-4.7c0-2.6,2.1-4.7,4.7-4.7S1395.6,1717.9,1395.6,1720.5"
		/>
	<path class="st10" d="M1382.6,1598.5c0,2.6-2.1,4.7-4.7,4.7s-4.7-2.1-4.7-4.7c0-2.6,2.1-4.7,4.7-4.7S1382.6,1595.9,1382.6,1598.5"
		/>
	<path class="st10" d="M981.6,1826.5c0,2.6-2.1,4.7-4.7,4.7c-2.6,0-4.7-2.1-4.7-4.7c0-2.6,2.1-4.7,4.7-4.7
		C979.5,1821.8,981.6,1823.9,981.6,1826.5"/>
	<path class="st10" d="M269.3,1875.9c0,2.6-2.1,4.7-4.7,4.7c-2.6,0-4.7-2.1-4.7-4.7c0-2.6,2.1-4.7,4.7-4.7
		C267.1,1871.1,269.3,1873.2,269.3,1875.9"/>
	<path class="st10" d="M1004.8,1590.6c0,2.6-2.1,4.7-4.7,4.7c-2.6,0-4.7-2.1-4.7-4.7c0-2.6,2.1-4.7,4.7-4.7
		C1002.6,1585.9,1004.8,1588,1004.8,1590.6"/>
	<path class="st10" d="M520.8,1885.7c0,2.6-2.1,4.7-4.7,4.7c-2.6,0-4.7-2.1-4.7-4.7c0-2.6,2.1-4.7,4.7-4.7
		C518.7,1880.9,520.8,1883.1,520.8,1885.7"/>
	<path class="st10" d="M861.2,1838.4c0,3.1-2.5,5.7-5.7,5.7s-5.7-2.5-5.7-5.7c0-3.1,2.5-5.7,5.7-5.7S861.2,1835.2,861.2,1838.4"/>
	<path class="st10" d="M874.2,1936.4c0,3.1-2.5,5.7-5.7,5.7s-5.7-2.5-5.7-5.7c0-3.1,2.5-5.7,5.7-5.7S874.2,1933.2,874.2,1936.4"/>
	<path class="st10" d="M1299.8,1985.6c0,2.6-2.1,4.7-4.7,4.7c-2.6,0-4.7-2.1-4.7-4.7c0-2.6,2.1-4.7,4.7-4.7
		C1297.7,1980.9,1299.8,1983,1299.8,1985.6"/>
	<path class="st10" d="M1203.9,2078.2c0,1.9-1.5,3.4-3.4,3.4c-1.9,0-3.4-1.5-3.4-3.4c0-1.9,1.5-3.4,3.4-3.4
		C1202.3,2074.8,1203.9,2076.3,1203.9,2078.2"/>
	<path class="st10" d="M1214.6,1853.6c0,1.9-1.5,3.4-3.4,3.4c-1.9,0-3.4-1.5-3.4-3.4c0-1.9,1.5-3.4,3.4-3.4
		C1213.1,1850.2,1214.6,1851.7,1214.6,1853.6"/>
	<path class="st10" d="M911.7,1712.6c0,1.9-1.5,3.4-3.4,3.4c-1.9,0-3.4-1.5-3.4-3.4c0-1.9,1.5-3.4,3.4-3.4
		C910.1,1709.2,911.7,1710.7,911.7,1712.6"/>
	<path class="st10" d="M2007.7,1613.6c0,1.9-1.5,3.4-3.4,3.4c-1.9,0-3.4-1.5-3.4-3.4c0-1.9,1.5-3.4,3.4-3.4
		C2006.1,1610.2,2007.7,1611.7,2007.7,1613.6"/>
	<path class="st10" d="M707.7,1876.6c0,1.9-1.5,3.4-3.4,3.4c-1.9,0-3.4-1.5-3.4-3.4c0-1.9,1.5-3.4,3.4-3.4
		C706.1,1873.2,707.7,1874.7,707.7,1876.6"/>
	<path class="st10" d="M881.4,1431.5c0,1.9-1.5,3.4-3.4,3.4c-1.9,0-3.4-1.5-3.4-3.4c0-1.9,1.5-3.4,3.4-3.4
		C879.9,1428.1,881.4,1429.6,881.4,1431.5"/>
	<path class="st10" d="M239.4,1317.5c0,1.9-1.5,3.4-3.4,3.4c-1.9,0-3.4-1.5-3.4-3.4c0-1.9,1.5-3.4,3.4-3.4
		C237.9,1314.1,239.4,1315.6,239.4,1317.5"/>
	<path class="st10" d="M1916.6,1570.3c0,1.9-1.5,3.4-3.4,3.4c-1.9,0-3.4-1.5-3.4-3.4c0-1.9,1.5-3.4,3.4-3.4
		C1915.1,1566.9,1916.6,1568.4,1916.6,1570.3"/>
	<path class="st10" d="M1878.7,1909.1c0,1.9-1.5,3.4-3.4,3.4c-1.9,0-3.4-1.5-3.4-3.4c0-1.9,1.5-3.4,3.4-3.4
		C1877.2,1905.7,1878.7,1907.2,1878.7,1909.1"/>
	<path class="st10" d="M1212.5,1527.5c0,1.9-1.5,3.4-3.4,3.4c-1.9,0-3.4-1.5-3.4-3.4c0-1.9,1.5-3.4,3.4-3.4
		C1211,1524.1,1212.5,1525.6,1212.5,1527.5"/>
	<path class="st10" d="M1975,1802.6c0,1.9-1.5,3.4-3.4,3.4c-1.9,0-3.4-1.5-3.4-3.4c0-1.9,1.5-3.4,3.4-3.4
		C1973.4,1799.1,1975,1800.7,1975,1802.6"/>
	<path class="st10" d="M243,1691.6c0,1.9-1.5,3.4-3.4,3.4s-3.4-1.5-3.4-3.4c0-1.9,1.5-3.4,3.4-3.4S243,1689.7,243,1691.6"/>
	<path class="st10" d="M1733.5,1670.3c0,1.9-1.5,3.4-3.4,3.4c-1.9,0-3.4-1.5-3.4-3.4c0-1.9,1.5-3.4,3.4-3.4
		C1732,1666.9,1733.5,1668.4,1733.5,1670.3"/>
	<path class="st10" d="M1777.5,1772.3c0,1.9-1.5,3.4-3.4,3.4c-1.9,0-3.4-1.5-3.4-3.4c0-1.9,1.5-3.4,3.4-3.4
		C1776,1768.9,1777.5,1770.4,1777.5,1772.3"/>
	<path class="st10" d="M516.5,1583.3c0,1.9-1.5,3.4-3.4,3.4c-1.9,0-3.4-1.5-3.4-3.4c0-1.9,1.5-3.4,3.4-3.4
		C515,1579.9,516.5,1581.4,516.5,1583.3"/>
	<path class="st10" d="M2108.5,1455.3c0,1.9-1.5,3.4-3.4,3.4s-3.4-1.5-3.4-3.4c0-1.9,1.5-3.4,3.4-3.4S2108.5,1453.4,2108.5,1455.3"
		/>
	<path class="st10" d="M1066,1359.1c0,1.9-1.5,3.4-3.4,3.4c-1.9,0-3.4-1.5-3.4-3.4s1.5-3.4,3.4-3.4
		C1064.5,1355.7,1066,1357.3,1066,1359.1"/>
	<path class="st10" d="M141.2,1742c0,4.4-3.5,7.9-7.9,7.9c-4.4,0-7.9-3.5-7.9-7.9c0-4.4,3.5-7.9,7.9-7.9
		C137.7,1734.1,141.2,1737.6,141.2,1742"/>
	<path class="st10" d="M1384.5,1379.7c0,4.4-3.5,7.9-7.9,7.9c-4.4,0-7.9-3.5-7.9-7.9s3.5-7.9,7.9-7.9
		C1381,1371.8,1384.5,1375.3,1384.5,1379.7"/>
	<path class="st10" d="M1542.5,1530.7c0,4.4-3.5,7.9-7.9,7.9c-4.4,0-7.9-3.5-7.9-7.9s3.5-7.9,7.9-7.9
		C1539,1522.8,1542.5,1526.3,1542.5,1530.7"/>
	<path class="st10" d="M1906.9,1412.8c0,4.4-3.5,7.9-7.9,7.9c-4.4,0-7.9-3.5-7.9-7.9c0-4.4,3.5-7.9,7.9-7.9
		C1903.3,1404.9,1906.9,1408.4,1906.9,1412.8"/>
	<path class="st10" d="M1672.9,1385.8c0,4.4-3.5,7.9-7.9,7.9c-4.4,0-7.9-3.5-7.9-7.9c0-4.4,3.5-7.9,7.9-7.9
		C1669.3,1377.9,1672.9,1381.4,1672.9,1385.8"/>
</g>
<g>
	<g class="st1">
		<g>
			<defs>
				<rect id="SVGID_34_" x="904.9" y="1468.2" width="187" height="51.6"/>
			</defs>
			<clipPath id="SVGID_35_">
				<use xlink:href="#SVGID_34_"  style="overflow:visible;"/>
			</clipPath>
			<path class="st19" d="M1076.5,1514.1c-0.8,0-1.7,0-2.5,0.1c-1.4-11.9-11.5-21.1-23.7-21.1c-4.9,0-9.5,1.5-13.2,4
				c-0.6-1.3-1.5-2.4-2.6-3.2c2.1-2.7,3.4-6.1,3.4-9.8c0-8.8-7.1-15.9-15.9-15.9c-6.4,0-11.9,3.8-14.4,9.2
				c-7.1-4.7-15.6-7.5-24.7-7.5c-22.8,0-41.7,17.2-44.3,39.3c-1.5-0.2-3-0.2-4.6-0.2c-11.1,0-21.2,4.1-29,10.8h105.8h45.9h35.4
				C1087.8,1516.3,1082.4,1514.1,1076.5,1514.1"/>
		</g>
	</g>
	<g class="st1">
		<g>
			<defs>
				<rect id="SVGID_36_" x="379.1" y="1123.4" width="187" height="51.6"/>
			</defs>
			<clipPath id="SVGID_37_">
				<use xlink:href="#SVGID_36_"  style="overflow:visible;"/>
			</clipPath>
			<path class="st20" d="M550.6,1169.3c-0.8,0-1.7,0-2.5,0.1c-1.4-11.9-11.5-21.1-23.7-21.1c-4.9,0-9.5,1.5-13.2,4
				c-0.6-1.3-1.5-2.4-2.6-3.2c2.1-2.7,3.4-6.1,3.4-9.8c0-8.8-7.1-15.9-15.9-15.9c-6.4,0-11.9,3.8-14.4,9.2
				c-7.1-4.7-15.6-7.5-24.7-7.5c-22.8,0-41.7,17.2-44.3,39.3c-1.5-0.2-3-0.2-4.6-0.2c-11.1,0-21.2,4.1-29,10.8h105.8h45.9h35.4
				C562,1171.4,556.6,1169.3,550.6,1169.3"/>
		</g>
	</g>
	<g class="st1">
		<g>
			<defs>
				<rect id="SVGID_38_" x="149.1" y="975.4" width="187" height="51.6"/>
			</defs>
			<clipPath id="SVGID_39_">
				<use xlink:href="#SVGID_38_"  style="overflow:visible;"/>
			</clipPath>
			<path class="st21" d="M320.6,1021.3c-0.8,0-1.7,0-2.5,0.1c-1.4-11.9-11.5-21.1-23.7-21.1c-4.9,0-9.5,1.5-13.2,4
				c-0.6-1.3-1.5-2.4-2.6-3.2c2.1-2.7,3.4-6.1,3.4-9.8c0-8.8-7.1-15.9-15.9-15.9c-6.4,0-11.9,3.8-14.4,9.2
				c-7.1-4.7-15.6-7.5-24.7-7.5c-22.8,0-41.7,17.2-44.3,39.3c-1.5-0.2-3-0.2-4.6-0.2c-11.1,0-21.2,4.1-29,10.8h105.8h45.9h35.4
				C332,1023.4,326.6,1021.3,320.6,1021.3"/>
		</g>
	</g>
	<g class="st1">
		<g>
			<defs>
				<rect id="SVGID_40_" x="1115.1" y="1109.6" width="132.8" height="36.7"/>
			</defs>
			<clipPath id="SVGID_41_">
				<use xlink:href="#SVGID_40_"  style="overflow:visible;"/>
			</clipPath>
			<path class="st22" d="M1236.9,1142.2c-0.6,0-1.2,0-1.7,0.1c-1-8.4-8.2-15-16.9-15c-3.5,0-6.7,1-9.4,2.8c-0.4-0.9-1.1-1.7-1.9-2.3
				c1.5-1.9,2.4-4.3,2.4-7c0-6.2-5-11.3-11.3-11.3c-4.5,0-8.4,2.7-10.2,6.6c-5-3.4-11.1-5.3-17.6-5.3c-16.2,0-29.6,12.2-31.4,27.9
				c-1.1-0.1-2.2-0.2-3.3-0.2c-7.9,0-15.1,2.9-20.6,7.6h75.1h32.6h25.1C1245,1143.7,1241.1,1142.2,1236.9,1142.2"/>
		</g>
	</g>
	<g class="st1">
		<g>
			<defs>
				<rect id="SVGID_42_" x="2031.1" y="754.6" width="132.8" height="36.7"/>
			</defs>
			<clipPath id="SVGID_43_">
				<use xlink:href="#SVGID_42_"  style="overflow:visible;"/>
			</clipPath>
			<path class="st23" d="M2152.9,787.2c-0.6,0-1.2,0-1.7,0.1c-1-8.4-8.2-15-16.9-15c-3.5,0-6.7,1-9.4,2.8c-0.4-0.9-1.1-1.7-1.9-2.3
				c1.5-1.9,2.4-4.3,2.4-7c0-6.2-5-11.3-11.3-11.3c-4.5,0-8.4,2.7-10.2,6.6c-5-3.4-11.1-5.3-17.6-5.3c-16.2,0-29.6,12.2-31.4,27.9
				c-1.1-0.1-2.2-0.2-3.3-0.2c-7.9,0-15.1,2.9-20.6,7.6h75.1h32.6h25.1C2161,788.7,2157.1,787.2,2152.9,787.2"/>
		</g>
	</g>
	<g class="st1">
		<g>
			<defs>
				<rect id="SVGID_44_" x="1793.8" y="995.8" width="132.8" height="36.7"/>
			</defs>
			<clipPath id="SVGID_45_">
				<use xlink:href="#SVGID_44_"  style="overflow:visible;"/>
			</clipPath>
			<path class="st24" d="M1915.6,1028.3c-0.6,0-1.2,0-1.7,0.1c-1-8.4-8.2-15-16.9-15c-3.5,0-6.7,1-9.4,2.8c-0.4-0.9-1.1-1.7-1.9-2.3
				c1.5-1.9,2.4-4.3,2.4-7c0-6.2-5-11.3-11.3-11.3c-4.5,0-8.4,2.7-10.2,6.6c-5-3.4-11.1-5.3-17.6-5.3c-16.2,0-29.6,12.2-31.4,27.9
				c-1.1-0.1-2.2-0.2-3.3-0.2c-7.9,0-15.1,2.9-20.6,7.6h75.1h32.6h25.1C1923.7,1029.9,1919.8,1028.3,1915.6,1028.3"/>
		</g>
	</g>
	<g class="st1">
		<g>
			<defs>
				<rect id="SVGID_46_" x="2139.8" y="1121.8" width="132.8" height="36.7"/>
			</defs>
			<clipPath id="SVGID_47_">
				<use xlink:href="#SVGID_46_"  style="overflow:visible;"/>
			</clipPath>
			<path class="st25" d="M2261.6,1154.3c-0.6,0-1.2,0-1.7,0.1c-1-8.4-8.2-15-16.9-15c-3.5,0-6.7,1-9.4,2.8c-0.4-0.9-1.1-1.7-1.9-2.3
				c1.5-1.9,2.4-4.3,2.4-7c0-6.2-5-11.3-11.3-11.3c-4.5,0-8.4,2.7-10.2,6.6c-5-3.4-11.1-5.3-17.6-5.3c-16.2,0-29.6,12.2-31.4,27.9
				c-1.1-0.1-2.2-0.2-3.3-0.2c-7.9,0-15.1,2.9-20.6,7.6h75.1h32.6h25.1C2269.7,1155.9,2265.8,1154.3,2261.6,1154.3"/>
		</g>
	</g>
	<g class="st1">
		<g>
			<defs>
				<rect id="SVGID_48_" x="1493.8" y="1305.4" width="246.5" height="68"/>
			</defs>
			<clipPath id="SVGID_49_">
				<use xlink:href="#SVGID_48_"  style="overflow:visible;"/>
			</clipPath>
			<path class="st26" d="M1719.8,1365.8c-1.1,0-2.2,0.1-3.2,0.2c-1.8-15.6-15.1-27.8-31.3-27.8c-6.5,0-12.5,1.9-17.5,5.3
				c-0.8-1.7-2-3.2-3.5-4.3c2.8-3.6,4.5-8,4.5-12.9c0-11.5-9.4-20.9-20.9-20.9c-8.4,0-15.7,5-19,12.2c-9.3-6.2-20.5-9.9-32.6-9.9
				c-30.1,0-54.9,22.6-58.3,51.8c-2-0.2-4-0.3-6.1-0.3c-14.6,0-27.9,5.4-38.2,14.2h139.4h60.4h46.6
				C1734.8,1368.7,1727.6,1365.8,1719.8,1365.8"/>
		</g>
	</g>
	<path class="st10" d="M559.9,838c0,2.6-2.1,4.7-4.7,4.7c-2.6,0-4.7-2.1-4.7-4.7c0-2.6,2.1-4.7,4.7-4.7
		C557.8,833.2,559.9,835.4,559.9,838"/>
	<path class="st10" d="M1402.6,1172.5c0,2.6-2.1,4.7-4.7,4.7s-4.7-2.1-4.7-4.7c0-2.6,2.1-4.7,4.7-4.7S1402.6,1169.9,1402.6,1172.5"
		/>
	<path class="st10" d="M1389.6,1050.5c0,2.6-2.1,4.7-4.7,4.7s-4.7-2.1-4.7-4.7c0-2.6,2.1-4.7,4.7-4.7S1389.6,1047.9,1389.6,1050.5"
		/>
	<path class="st10" d="M988.6,1278.5c0,2.6-2.1,4.7-4.7,4.7c-2.6,0-4.7-2.1-4.7-4.7c0-2.6,2.1-4.7,4.7-4.7
		C986.5,1273.8,988.6,1275.9,988.6,1278.5"/>
	<path class="st10" d="M276.3,1327.9c0,2.6-2.1,4.7-4.7,4.7c-2.6,0-4.7-2.1-4.7-4.7c0-2.6,2.1-4.7,4.7-4.7
		C274.1,1323.1,276.3,1325.2,276.3,1327.9"/>
	<path class="st10" d="M1011.8,1042.6c0,2.6-2.1,4.7-4.7,4.7c-2.6,0-4.7-2.1-4.7-4.7c0-2.6,2.1-4.7,4.7-4.7
		C1009.6,1037.9,1011.8,1040,1011.8,1042.6"/>
	<path class="st10" d="M527.8,1337.7c0,2.6-2.1,4.7-4.7,4.7c-2.6,0-4.7-2.1-4.7-4.7c0-2.6,2.1-4.7,4.7-4.7
		C525.7,1332.9,527.8,1335.1,527.8,1337.7"/>
	<path class="st10" d="M868.2,1290.4c0,3.1-2.5,5.7-5.7,5.7s-5.7-2.5-5.7-5.7c0-3.1,2.5-5.7,5.7-5.7S868.2,1287.2,868.2,1290.4"/>
	<path class="st10" d="M881.2,1388.4c0,3.1-2.5,5.7-5.7,5.7s-5.7-2.5-5.7-5.7c0-3.1,2.5-5.7,5.7-5.7S881.2,1385.2,881.2,1388.4"/>
	<path class="st10" d="M1306.8,1437.6c0,2.6-2.1,4.7-4.7,4.7c-2.6,0-4.7-2.1-4.7-4.7c0-2.6,2.1-4.7,4.7-4.7
		C1304.7,1432.9,1306.8,1435,1306.8,1437.6"/>
	<path class="st10" d="M1210.9,1530.2c0,1.9-1.5,3.4-3.4,3.4c-1.9,0-3.4-1.5-3.4-3.4c0-1.9,1.5-3.4,3.4-3.4
		C1209.3,1526.8,1210.9,1528.3,1210.9,1530.2"/>
	<path class="st10" d="M1221.6,1305.6c0,1.9-1.5,3.4-3.4,3.4c-1.9,0-3.4-1.5-3.4-3.4c0-1.9,1.5-3.4,3.4-3.4
		C1220.1,1302.2,1221.6,1303.7,1221.6,1305.6"/>
	<path class="st10" d="M918.7,1164.6c0,1.9-1.5,3.4-3.4,3.4c-1.9,0-3.4-1.5-3.4-3.4c0-1.9,1.5-3.4,3.4-3.4
		C917.1,1161.2,918.7,1162.7,918.7,1164.6"/>
	<path class="st10" d="M2014.7,1065.6c0,1.9-1.5,3.4-3.4,3.4c-1.9,0-3.4-1.5-3.4-3.4c0-1.9,1.5-3.4,3.4-3.4
		C2013.1,1062.2,2014.7,1063.7,2014.7,1065.6"/>
	<path class="st10" d="M714.7,1328.6c0,1.9-1.5,3.4-3.4,3.4c-1.9,0-3.4-1.5-3.4-3.4c0-1.9,1.5-3.4,3.4-3.4
		C713.1,1325.2,714.7,1326.7,714.7,1328.6"/>
	<path class="st10" d="M888.4,883.5c0,1.9-1.5,3.4-3.4,3.4c-1.9,0-3.4-1.5-3.4-3.4c0-1.9,1.5-3.4,3.4-3.4
		C886.9,880.1,888.4,881.6,888.4,883.5"/>
	<path class="st10" d="M246.4,769.5c0,1.9-1.5,3.4-3.4,3.4c-1.9,0-3.4-1.5-3.4-3.4c0-1.9,1.5-3.4,3.4-3.4
		C244.9,766.1,246.4,767.6,246.4,769.5"/>
	<path class="st10" d="M1923.6,1022.3c0,1.9-1.5,3.4-3.4,3.4c-1.9,0-3.4-1.5-3.4-3.4c0-1.9,1.5-3.4,3.4-3.4
		C1922.1,1018.9,1923.6,1020.4,1923.6,1022.3"/>
	<path class="st10" d="M1885.7,1361.1c0,1.9-1.5,3.4-3.4,3.4c-1.9,0-3.4-1.5-3.4-3.4c0-1.9,1.5-3.4,3.4-3.4
		C1884.2,1357.7,1885.7,1359.2,1885.7,1361.1"/>
	<path class="st10" d="M1219.5,979.5c0,1.9-1.5,3.4-3.4,3.4c-1.9,0-3.4-1.5-3.4-3.4c0-1.9,1.5-3.4,3.4-3.4
		C1218,976.1,1219.5,977.6,1219.5,979.5"/>
	<path class="st10" d="M1982,1254.6c0,1.9-1.5,3.4-3.4,3.4c-1.9,0-3.4-1.5-3.4-3.4c0-1.9,1.5-3.4,3.4-3.4
		C1980.4,1251.1,1982,1252.7,1982,1254.6"/>
	<path class="st10" d="M250,1143.6c0,1.9-1.5,3.4-3.4,3.4s-3.4-1.5-3.4-3.4c0-1.9,1.5-3.4,3.4-3.4S250,1141.7,250,1143.6"/>
	<path class="st10" d="M1740.5,1122.3c0,1.9-1.5,3.4-3.4,3.4c-1.9,0-3.4-1.5-3.4-3.4c0-1.9,1.5-3.4,3.4-3.4
		C1739,1118.9,1740.5,1120.4,1740.5,1122.3"/>
	<path class="st10" d="M1784.5,1224.3c0,1.9-1.5,3.4-3.4,3.4c-1.9,0-3.4-1.5-3.4-3.4c0-1.9,1.5-3.4,3.4-3.4
		C1783,1220.9,1784.5,1222.4,1784.5,1224.3"/>
	<path class="st10" d="M523.5,1035.3c0,1.9-1.5,3.4-3.4,3.4s-3.4-1.5-3.4-3.4c0-1.9,1.5-3.4,3.4-3.4S523.5,1033.4,523.5,1035.3"/>
	<path class="st10" d="M2115.5,907.3c0,1.9-1.5,3.4-3.4,3.4s-3.4-1.5-3.4-3.4c0-1.9,1.5-3.4,3.4-3.4S2115.5,905.4,2115.5,907.3"/>
	<path class="st10" d="M1073,811.1c0,1.9-1.5,3.4-3.4,3.4c-1.9,0-3.4-1.5-3.4-3.4c0-1.9,1.5-3.4,3.4-3.4
		C1071.5,807.7,1073,809.3,1073,811.1"/>
	<path class="st10" d="M148.2,1194c0,4.4-3.5,7.9-7.9,7.9c-4.4,0-7.9-3.5-7.9-7.9c0-4.4,3.5-7.9,7.9-7.9
		C144.7,1186.1,148.2,1189.6,148.2,1194"/>
	<path class="st10" d="M1391.5,831.7c0,4.4-3.5,7.9-7.9,7.9c-4.4,0-7.9-3.5-7.9-7.9c0-4.4,3.5-7.9,7.9-7.9
		C1388,823.8,1391.5,827.3,1391.5,831.7"/>
	<path class="st10" d="M1549.5,982.7c0,4.4-3.5,7.9-7.9,7.9c-4.4,0-7.9-3.5-7.9-7.9c0-4.4,3.5-7.9,7.9-7.9
		C1546,974.8,1549.5,978.3,1549.5,982.7"/>
	<path class="st10" d="M1913.9,864.8c0,4.4-3.5,7.9-7.9,7.9c-4.4,0-7.9-3.5-7.9-7.9c0-4.4,3.5-7.9,7.9-7.9
		C1910.3,856.9,1913.9,860.4,1913.9,864.8"/>
	<path class="st10" d="M1679.9,837.8c0,4.4-3.5,7.9-7.9,7.9c-4.4,0-7.9-3.5-7.9-7.9c0-4.4,3.5-7.9,7.9-7.9
		C1676.3,829.9,1679.9,833.4,1679.9,837.8"/>
</g>
<g>
	<path class="st10" d="M2298.9,805.2c0,1.6-1.3,2.9-2.9,2.9s-2.9-1.3-2.9-2.9c0-1.6,1.3-2.9,2.9-2.9S2298.9,803.6,2298.9,805.2"/>
	<polygon class="st27" points="2344.3,903.9 2475.8,926.8 2342.8,733.7 2209.8,926.8 2341.4,903.9 	"/>
	<polygon class="st27" points="2344.6,995.4 2507.9,1023.8 2342.8,784.2 2177.8,1023.8 2341.1,995.4 	"/>
	<polygon class="st27" points="2344.6,1072.3 2507.9,1100.7 2342.8,861.1 2177.8,1100.7 2341.1,1072.3 	"/>
	<polygon class="st27" points="2337.7,1114.2 2494.3,1141.4 2336,911.7 2177.8,1141.4 2334.3,1114.2 	"/>
	<polygon class="st27" points="2151.5,856.7 2209.5,866.8 2150.9,781.7 2092.2,866.8 2150.2,856.7 	"/>
	<polygon class="st27" points="2151.7,912.9 2229,926.4 2150.9,812.9 2072.7,926.4 2150,912.9 	"/>
	<polygon class="st27" points="2152,979.3 2255.5,997.3 2150.9,845.4 2046.2,997.3 2149.7,979.3 	"/>
	<polygon class="st27" points="2152.3,1051.2 2280.7,1073.5 2150.9,885.1 2021,1073.5 2149.5,1051.2 	"/>
	<polygon class="st27" points="2152.3,1111.7 2280.7,1134.1 2150.9,945.6 2021,1134.1 2149.5,1111.7 	"/>
	<polygon class="st27" points="2146.8,1144.7 2270,1166.1 2145.5,985.4 2021,1166.1 2144.2,1144.7 	"/>
	<polygon class="st27" points="2463.4,866.8 2521.4,856.7 2522.6,856.7 2539.9,859.7 2539.9,807.6 2522,781.7 	"/>
	<polygon class="st27" points="2443.8,926.4 2521.2,912.9 2522.8,912.9 2539.9,915.9 2539.9,838.8 2522,812.9 	"/>
	<polygon class="st27" points="2417.4,997.3 2520.9,979.3 2523.1,979.3 2539.9,982.2 2539.9,871.3 2522,845.4 	"/>
	<polygon class="st27" points="2392.2,1073.5 2520.6,1051.2 2523.4,1051.2 2539.9,1065.1 2539.9,922.9 2522,885.1 	"/>
	<polygon class="st27" points="2392.2,1134.1 2520.6,1111.7 2523.4,1111.7 2539.9,1125.7 2539.9,983.4 2522,945.6 	"/>
	<polygon class="st27" points="2392.2,1166.1 2515.3,1144.7 2518,1144.7 2539.9,1148.5 2539.9,1019.1 2516.7,985.4 	"/>
	<polygon class="st27" points="2015.6,904.7 2057,911.9 2015.1,851.1 1973.3,911.9 2014.7,904.7 	"/>
	<polygon class="st27" points="2015.7,944.8 2071,954.5 2015.1,873.4 1959.3,954.5 2014.5,944.8 	"/>
	<polygon class="st27" points="2015.9,992.3 2089.9,1005.1 2015.1,896.6 1940.4,1005.1 2014.3,992.3 	"/>
	<polygon class="st27" points="2016.1,1043.7 2107.9,1059.6 2015.1,925 1922.4,1059.6 2014.1,1043.7 	"/>
	<polygon class="st27" points="2016.1,1086.9 2107.9,1102.9 2015.1,968.2 1922.4,1102.9 2014.1,1086.9 	"/>
	<polygon class="st27" points="2012.3,1110.5 2100.3,1125.8 2011.3,996.6 1922.4,1125.8 2010.4,1110.5 	"/>
	<polygon class="st28" points="2442.6,877.9 2491.6,886.5 2442,814.5 2392.4,886.5 2441.5,877.9 	"/>
	<polygon class="st28" points="2442.7,925.5 2508.1,936.9 2442,840.9 2375.9,936.9 2441.3,925.5 	"/>
	<polygon class="st28" points="2443,981.6 2530.5,996.9 2442,868.4 2353.5,996.9 2441.1,981.6 	"/>
	<polygon class="st28" points="2332.2,1061.4 2440.8,1042.5 2443.2,1042.5 2539.9,1059.3 2539.9,1044 2442,901.9 	"/>
	<polygon class="st28" points="2332.2,1112.6 2440.8,1093.7 2443.2,1093.7 2539.9,1110.5 2539.9,1095.2 2442,953.1 	"/>
	<polygon class="st28" points="2332.2,1139.7 2436.4,1121.6 2438.6,1121.6 2539.9,1139.2 2539.9,1135.4 2437.5,986.8 	"/>
	<polygon class="st28" points="2086.5,909 2128.6,916.4 2086,854.6 2043.4,916.4 2085.6,909 	"/>
	<polygon class="st28" points="2086.6,949.9 2142.8,959.6 2086,877.2 2029.2,959.6 2085.4,949.9 	"/>
	<polygon class="st28" points="2086.8,998.1 2162,1011.1 2086,900.8 2010,1011.1 2085.2,998.1 	"/>
	<polygon class="st28" points="2087,1050.3 2180.3,1066.5 2086,929.6 1991.7,1066.5 2085,1050.3 	"/>
	<polygon class="st28" points="2087,1094.3 2180.3,1110.5 2086,973.6 1991.7,1110.5 2085,1094.3 	"/>
	<polygon class="st28" points="2083.1,1118.2 2172.5,1133.8 2082.1,1002.5 1991.7,1133.8 2081.1,1118.2 	"/>
	<polygon class="st28" points="1964.2,964.6 1996.5,970.3 1963.9,922.8 1931.2,970.3 1963.5,964.6 	"/>
	<polygon class="st28" points="1964.3,996 2007.4,1003.5 1963.9,940.2 1920.3,1003.5 1963.4,996 	"/>
	<polygon class="st28" points="1964.5,1033 2022.2,1043 1963.9,958.3 1905.5,1043 1963.2,1033 	"/>
	<polygon class="st28" points="1964.6,1073.1 2036.2,1085.5 1963.9,980.4 1891.5,1085.5 1963.1,1073.1 	"/>
	<polygon class="st29" points="1964.6,1106.8 2036.2,1119.2 1963.9,1014.2 1891.5,1119.2 1963.1,1106.8 	"/>
	<polygon class="st28" points="1961.6,1125.2 2030.3,1137.1 1960.9,1036.4 1891.5,1137.1 1960.1,1125.2 	"/>
	<polygon class="st28" points="2250.7,841.5 2311.5,852 2250,762.8 2188.6,852 2249.4,841.5 	"/>
	<polygon class="st28" points="2250.9,900.4 2332,914.5 2250,795.5 2168.1,914.5 2249.2,900.4 	"/>
	<polygon class="st28" points="2251.2,969.9 2359.7,988.8 2250,829.6 2140.4,988.8 2248.9,969.9 	"/>
	<polygon class="st28" points="2251.5,1045.3 2386.1,1068.7 2250,871.2 2113.9,1068.7 2248.6,1045.3 	"/>
	<polygon class="st28" points="2251.5,1108.8 2386.1,1132.2 2250,934.6 2113.9,1132.2 2248.6,1108.8 	"/>
	<polygon class="st28" points="2166.5,1155.5 2273.3,1174.1 2165.4,1017.4 2057.4,1174.1 2164.2,1155.5 	"/>
	<polygon class="st27" points="2550.9,975.2 2747.9,1009.4 2548.7,720.3 2349.6,1009.4 2546.6,975.2 	"/>
	<polygon class="st27" points="2550.9,1068 2747.9,1102.3 2548.7,813.1 2349.6,1102.3 2546.6,1068 	"/>
	<polygon class="st27" points="2694.2,820 2764.2,807.8 2765.7,807.8 2786.5,811.5 2786.5,748.6 2765,717.3 	"/>
	<polygon class="st27" points="2670.6,891.9 2763.9,875.7 2766,875.7 2786.5,879.2 2786.5,786.3 2765,755 	"/>
	<polygon class="st27" points="2638.7,977.5 2763.6,955.7 2766.3,955.7 2786.5,959.2 2786.5,825.5 2765,794.2 	"/>
	<polygon class="st27" points="2608.3,1069.5 2763.3,1042.6 2766.6,1042.6 2786.5,1059.4 2786.5,887.7 2765,842.1 	"/>
	<polygon class="st27" points="2608.3,1142.5 2763.3,1115.6 2766.6,1115.6 2786.5,1132.4 2786.5,960.7 2765,915.1 	"/>
	<polygon class="st28" points="2448.6,1063.5 2611.1,1091.7 2446.8,853.3 2282.6,1091.7 2445.1,1063.5 	"/>
	<g>
		<polygon class="st28" points="2669.1,833.5 2728.3,843.8 2668.4,756.9 2608.6,843.8 2667.8,833.5 		"/>
		<polygon class="st28" points="2669.3,890.9 2748.2,904.6 2668.4,788.8 2588.6,904.6 2667.6,890.9 		"/>
		<polygon class="st28" points="2669.6,958.6 2775.2,977 2668.4,821.9 2561.6,977 2667.3,958.6 		"/>
		<polygon class="st28" points="2535.9,1054.9 2667,1032 2669.9,1032 2786.5,1052.3 2786.5,1033.8 2668.4,862.4 		"/>
		<polygon class="st28" points="2535.9,1116.6 2667,1093.8 2669.9,1093.8 2786.5,1114.1 2786.5,1095.6 2668.4,924.2 		"/>
		<polygon class="st28" points="2535.5,1176.4 2673.2,1152.4 2676.2,1152.4 2810,1175.7 2810,1170.7 2674.7,974.3 		"/>
		<polygon class="st28" points="2445.2,1128.1 2607.7,1156.3 2443.5,917.9 2279.2,1156.3 2441.7,1128.1 		"/>
		<polygon class="st28" points="2442.8,808.7 2503.6,819.3 2442.2,730.1 2380.7,819.3 2441.5,808.7 		"/>
		<polygon class="st28" points="2443,867.7 2524.1,881.8 2442.2,762.8 2360.2,881.8 2441.3,867.7 		"/>
		<polygon class="st28" points="2443.3,937.2 2551.8,956.1 2442.2,796.9 2332.5,956.1 2441,937.2 		"/>
		<polygon class="st28" points="2443.6,1012.6 2578.2,1036 2442.2,838.5 2306.1,1036 2440.7,1012.6 		"/>
		<polygon class="st28" points="2443.6,1076 2578.2,1099.4 2442.2,901.9 2306.1,1099.4 2440.7,1076 		"/>
	</g>
</g>
<g>
	<path class="st10" d="M1680.9,827.4c0,1.6-1.3,2.9-2.9,2.9c-1.6,0-2.9-1.3-2.9-2.9c0-1.6,1.3-2.9,2.9-2.9
		C1679.6,824.5,1680.9,825.8,1680.9,827.4"/>
	<polygon class="st27" points="1726.3,926.1 1857.8,949 1724.9,755.9 1591.9,949 1723.4,926.1 	"/>
	<polygon class="st27" points="1726.6,1017.6 1889.9,1046 1724.9,806.4 1559.8,1046 1723.1,1017.6 	"/>
	<polygon class="st27" points="1726.6,1094.5 1889.9,1122.9 1724.9,883.3 1559.8,1122.9 1723.1,1094.5 	"/>
	<polygon class="st27" points="1719.7,1136.4 1876.3,1163.6 1718,933.9 1559.8,1163.6 1716.3,1136.4 	"/>
	<polygon class="st27" points="1533.5,878.9 1591.5,889 1532.9,803.9 1474.3,889 1532.2,878.9 	"/>
	<polygon class="st27" points="1533.7,935.1 1611,948.5 1532.9,835.1 1454.7,948.5 1532,935.1 	"/>
	<polygon class="st27" points="1534,1001.4 1637.5,1019.4 1532.9,867.6 1428.2,1019.4 1531.8,1001.4 	"/>
	<polygon class="st27" points="1534.3,1073.4 1662.7,1095.7 1532.9,907.2 1403,1095.7 1531.5,1073.4 	"/>
	<polygon class="st27" points="1534.3,1133.9 1662.7,1156.2 1532.9,967.8 1403,1156.2 1531.5,1133.9 	"/>
	<polygon class="st27" points="1528.9,1166.9 1652,1188.3 1527.5,1007.6 1403,1188.3 1526.2,1166.9 	"/>
	<polygon class="st27" points="1845.4,889 1903.4,878.9 1904.7,878.9 1921.9,881.9 1921.9,829.8 1904,803.9 	"/>
	<polygon class="st27" points="1825.9,948.5 1903.2,935.1 1904.9,935.1 1921.9,938.1 1921.9,861 1904,835.1 	"/>
	<polygon class="st27" points="1799.4,1019.4 1902.9,1001.4 1905.2,1001.4 1921.9,1004.3 1921.9,893.5 1904,867.6 	"/>
	<polygon class="st27" points="1774.2,1095.7 1902.6,1073.4 1905.4,1073.4 1921.9,1087.3 1921.9,945.1 1904,907.2 	"/>
	<polygon class="st27" points="1774.2,1156.2 1902.6,1133.9 1905.4,1133.9 1921.9,1147.8 1921.9,1005.6 1904,967.8 	"/>
	<polygon class="st27" points="1774.2,1188.3 1897.3,1166.9 1900,1166.9 1921.9,1170.7 1921.9,1041.3 1898.7,1007.6 	"/>
	<polygon class="st27" points="1397.6,926.9 1439.1,934.1 1397.2,873.3 1355.3,934.1 1396.7,926.9 	"/>
	<polygon class="st27" points="1397.8,967 1453,976.6 1397.2,895.6 1341.3,976.6 1396.6,967 	"/>
	<polygon class="st27" points="1398,1014.4 1471.9,1027.3 1397.2,918.8 1322.4,1027.3 1396.4,1014.4 	"/>
	<polygon class="st27" points="1398.2,1065.9 1489.9,1081.8 1397.2,947.1 1304.4,1081.8 1396.2,1065.9 	"/>
	<polygon class="st27" points="1398.2,1109.1 1489.9,1125.1 1397.2,990.4 1304.4,1125.1 1396.2,1109.1 	"/>
	<polygon class="st27" points="1394.3,1132.7 1482.3,1148 1393.3,1018.8 1304.4,1148 1392.4,1132.7 	"/>
	<polygon class="st28" points="1824.6,900.1 1873.6,908.7 1824,836.7 1774.4,908.7 1823.5,900.1 	"/>
	<polygon class="st28" points="1824.7,947.7 1890.2,959.1 1824,863.1 1757.9,959.1 1823.3,947.7 	"/>
	<polygon class="st28" points="1825,1003.8 1912.6,1019 1824,890.5 1735.5,1019 1823.1,1003.8 	"/>
	<polygon class="st28" points="1714.2,1083.6 1822.9,1064.7 1825.2,1064.7 1921.9,1081.5 1921.9,1066.2 1824,924.1 	"/>
	<polygon class="st28" points="1714.2,1134.8 1822.9,1115.9 1825.2,1115.9 1921.9,1132.7 1921.9,1117.4 1824,975.3 	"/>
	<polygon class="st28" points="1714.2,1161.9 1818.4,1143.8 1820.6,1143.8 1921.9,1161.4 1921.9,1157.6 1819.5,1009 	"/>
	<polygon class="st28" points="1468.5,931.2 1510.6,938.6 1468,876.8 1425.5,938.6 1467.6,931.2 	"/>
	<polygon class="st28" points="1468.6,972.1 1524.8,981.8 1468,899.4 1411.3,981.8 1467.4,972.1 	"/>
	<polygon class="st28" points="1468.8,1020.2 1544,1033.3 1468,923 1392,1033.3 1467.2,1020.2 	"/>
	<polygon class="st28" points="1469,1072.5 1562.3,1088.7 1468,951.8 1373.7,1088.7 1467,1072.5 	"/>
	<polygon class="st28" points="1469,1116.4 1562.3,1132.7 1468,995.8 1373.7,1132.7 1467,1116.4 	"/>
	<polygon class="st28" points="1465.1,1140.4 1554.6,1155.9 1464.1,1024.7 1373.7,1155.9 1463.2,1140.4 	"/>
	<polygon class="st28" points="1346.2,986.8 1378.6,992.4 1345.9,945 1313.2,992.4 1345.5,986.8 	"/>
	<polygon class="st28" points="1346.3,1018.2 1389.4,1025.6 1345.9,962.4 1302.3,1025.6 1345.4,1018.2 	"/>
	<polygon class="st28" points="1346.5,1055.1 1404.2,1065.2 1345.9,980.5 1287.5,1065.2 1345.3,1055.1 	"/>
	<polygon class="st28" points="1346.7,1095.2 1418.3,1107.7 1345.9,1002.6 1273.5,1107.7 1345.1,1095.2 	"/>
	<polygon class="st29" points="1346.7,1129 1418.3,1141.4 1345.9,1036.4 1273.5,1141.4 1345.1,1129 	"/>
	<polygon class="st28" points="1343.6,1147.3 1412.3,1159.3 1342.9,1058.6 1273.5,1159.3 1342.1,1147.3 	"/>
	<polygon class="st28" points="1632.7,863.7 1693.5,874.2 1632.1,785 1570.6,874.2 1631.4,863.7 	"/>
	<polygon class="st28" points="1632.9,922.6 1714,936.7 1632.1,817.7 1550.1,936.7 1631.2,922.6 	"/>
	<polygon class="st28" points="1633.2,992.1 1741.7,1011 1632.1,851.8 1522.4,1011 1630.9,992.1 	"/>
	<polygon class="st28" points="1633.5,1067.5 1768.2,1090.9 1632.1,893.4 1496,1090.9 1630.6,1067.5 	"/>
	<polygon class="st28" points="1633.5,1130.9 1768.2,1154.4 1632.1,956.8 1496,1154.4 1630.6,1130.9 	"/>
	<polygon class="st28" points="1548.6,1177.7 1655.4,1196.3 1547.4,1039.5 1439.4,1196.3 1546.2,1177.7 	"/>
	<polygon class="st27" points="1932.9,997.4 2129.9,1031.6 1930.8,742.5 1731.6,1031.6 1928.6,997.4 	"/>
	<polygon class="st27" points="1932.9,1090.2 2129.9,1124.4 1930.8,835.3 1731.6,1124.4 1928.6,1090.2 	"/>
	<polygon class="st28" points="1830.6,1085.7 1993.1,1113.9 1828.8,875.5 1664.6,1113.9 1827.1,1085.7 	"/>
	<g>
		<polygon class="st28" points="2051.1,855.7 2110.3,866 2050.4,779.1 1990.6,866 2049.8,855.7 		"/>
		<polygon class="st28" points="2051.3,913 2130.2,926.8 2050.4,810.9 1970.6,926.8 2049.6,913 		"/>
		<polygon class="st28" points="2051.6,980.8 2157.3,999.2 2050.4,844.1 1943.6,999.2 2049.3,980.8 		"/>
		<polygon class="st28" points="1917.9,1077 2049,1054.2 2051.9,1054.2 2168.5,1074.5 2168.5,1056 2050.4,884.6 		"/>
		<polygon class="st28" points="1917.9,1138.8 2049,1116 2051.9,1116 2168.5,1136.3 2168.5,1117.8 2050.4,946.4 		"/>
		<polygon class="st28" points="1917.5,1198.5 2055.2,1174.6 2058.2,1174.6 2192,1197.9 2192,1192.9 2056.7,996.5 		"/>
		<polygon class="st28" points="1827.3,1150.3 1989.7,1178.5 1825.5,940.1 1661.3,1178.5 1823.7,1150.3 		"/>
		<polygon class="st28" points="1824.8,830.9 1885.6,841.5 1824.2,752.3 1762.7,841.5 1823.5,830.9 		"/>
		<polygon class="st28" points="1825.1,889.8 1906.1,903.9 1824.2,785 1742.3,903.9 1823.3,889.8 		"/>
		<polygon class="st28" points="1825.4,959.4 1933.8,978.2 1824.2,819.1 1714.5,978.2 1823,959.4 		"/>
		<polygon class="st28" points="1825.6,1034.8 1960.3,1058.2 1824.2,860.6 1688.1,1058.2 1822.7,1034.8 		"/>
		<polygon class="st28" points="1825.6,1098.2 1960.3,1121.6 1824.2,924.1 1688.1,1121.6 1822.7,1098.2 		"/>
	</g>
</g>
<g>
	<path class="st10" d="M115.4,769.8c0,2.1-1.7,3.8-3.8,3.8s-3.8-1.7-3.8-3.8s1.7-3.8,3.8-3.8S115.4,767.7,115.4,769.8"/>
	<path class="st10" d="M318.1,777.8c0,2.1-1.7,3.8-3.8,3.8c-2.1,0-3.8-1.7-3.8-3.8c0-2.1,1.7-3.8,3.8-3.8
		C316.4,773.9,318.1,775.6,318.1,777.8"/>
	<polygon class="st27" points="323.4,839.8 229.9,856 324.4,718.9 418.9,856 325.4,839.8 	"/>
	<polygon class="st27" points="323,920 197.9,941.7 324.4,758.1 450.9,941.7 325.7,920 	"/>
	<polygon class="st27" points="322.7,1007 167.4,1034 324.4,806.1 481.4,1034 326.1,1007 	"/>
	<polygon class="st27" points="322.7,1080.1 167.4,1107.1 324.4,879.3 481.4,1107.1 326.1,1080.1 	"/>
	<polygon class="st27" points="329.2,1120 180.3,1145.9 330.8,927.4 481.4,1145.9 332.5,1120 	"/>
	<polygon class="st27" points="506.4,875.1 451.2,884.7 507,803.7 562.7,884.7 507.6,875.1 	"/>
	<polygon class="st27" points="506.2,928.5 432.6,941.3 507,833.4 581.3,941.3 507.8,928.5 	"/>
	<polygon class="st27" points="505.9,991.6 407.4,1008.8 507,864.3 606.5,1008.8 508,991.6 	"/>
	<polygon class="st27" points="505.6,1060.1 383.5,1081.3 507,902 630.5,1081.3 508.3,1060.1 	"/>
	<polygon class="st27" points="505.6,1117.6 383.5,1138.9 507,959.6 630.5,1138.9 508.3,1117.6 	"/>
	<polygon class="st27" points="510.8,1149 393.7,1169.4 512.1,997.5 630.5,1169.4 513.3,1149 	"/>
	<polygon class="st27" points="123.5,847.9 123.5,880.3 153.3,875.1 154.5,875.1 209.7,884.7 153.9,803.7 	"/>
	<polygon class="st27" points="123.5,877.6 123.5,933.7 153.1,928.5 154.7,928.5 228.3,941.3 153.9,833.4 	"/>
	<polygon class="st27" points="123.5,908.5 123.5,996.7 152.9,991.6 155,991.6 253.5,1008.8 153.9,864.3 	"/>
	<polygon class="st27" points="123.5,946.2 123.5,1065.1 152.6,1060.1 155.3,1060.1 277.5,1081.3 153.9,902 	"/>
	<polygon class="st27" points="123.5,1003.8 123.5,1122.7 152.6,1117.6 155.3,1117.6 277.5,1138.9 153.9,959.6 	"/>
	<polygon class="st27" points="123.5,1049.1 123.5,1155 157.8,1149 160.3,1149 277.5,1169.4 159,997.5 	"/>
	<polygon class="st27" points="635.6,920.7 596.2,927.6 636.1,869.7 675.9,927.6 636.5,920.7 	"/>
	<polygon class="st27" points="635.5,958.9 582.9,968.1 636.1,890.9 689.2,968.1 636.6,958.9 	"/>
	<polygon class="st27" points="635.3,1004 564.9,1016.3 636.1,913 707.2,1016.3 636.8,1004 	"/>
	<polygon class="st27" points="635.1,1052.9 547.8,1068.1 636.1,940 724.3,1068.1 637,1052.9 	"/>
	<polygon class="st27" points="635.1,1094 547.8,1109.2 636.1,981.1 724.3,1109.2 637,1094 	"/>
	<polygon class="st27" points="638.8,1116.5 555.1,1131 639.7,1008.2 724.3,1131 640.6,1116.5 	"/>
	<polygon class="st29" points="231.6,895.3 184.9,903.4 232.1,834.9 279.3,903.4 232.6,895.3 	"/>
	<polygon class="st29" points="231.2,993.9 147.9,1008.4 232.1,886.2 316.3,1008.4 233,993.9 	"/>
	<polygon class="st29" points="231,1051.8 127.6,1069.8 232.1,918.1 336.6,1069.8 233.2,1051.8 	"/>
	<polygon class="st29" points="231,1100.5 127.6,1118.5 232.1,966.8 336.6,1118.5 233.2,1100.5 	"/>
	<polygon class="st29" points="235.3,1127 136.2,1144.3 236.4,998.8 336.6,1144.3 237.5,1127 	"/>
	<polygon class="st29" points="570.3,924.9 530.2,931.8 570.7,873 611.2,931.8 571.2,924.9 	"/>
	<polygon class="st29" points="570.2,963.7 516.7,973 570.7,894.6 624.7,973 571.3,963.7 	"/>
	<polygon class="st29" points="570,1009.5 498.4,1022 570.7,917 643,1022 571.5,1009.5 	"/>
	<polygon class="st29" points="569.8,1059.2 481,1074.7 570.7,944.4 660.4,1074.7 571.7,1059.2 	"/>
	<polygon class="st29" points="569.8,1101 481,1116.5 570.7,986.3 660.4,1116.5 571.7,1101 	"/>
	<polygon class="st29" points="573.5,1123.8 488.4,1138.6 574.4,1013.8 660.4,1138.6 575.4,1123.8 	"/>
	<polygon class="st29" points="686.6,977.7 655.8,983.1 686.9,938 718,983.1 687.3,977.7 	"/>
	<polygon class="st29" points="686.5,1007.5 645.5,1014.7 686.9,954.5 728.4,1014.7 687.4,1007.5 	"/>
	<polygon class="st29" points="686.3,1042.7 631.4,1052.3 686.9,971.7 742.4,1052.3 687.5,1042.7 	"/>
	<polygon class="st29" points="686.2,1080.9 618.1,1092.7 686.9,992.8 755.8,1092.7 687.7,1080.9 	"/>
	<polygon class="st29" points="686.2,1113 618.1,1124.8 686.9,1024.9 755.8,1124.8 687.7,1113 	"/>
	<polygon class="st29" points="689.1,1130.4 623.8,1141.8 689.8,1046 755.8,1141.8 690.5,1130.4 	"/>
	<polygon class="st29" points="414.1,860.6 356.3,870.6 414.7,785.8 473.1,870.6 415.3,860.6 	"/>
	<polygon class="st29" points="413.9,916.6 336.8,930 414.7,816.9 492.6,930 415.5,916.6 	"/>
	<polygon class="st29" points="413.6,982.8 310.4,1000.7 414.7,849.3 519,1000.7 415.8,982.8 	"/>
	<polygon class="st29" points="413.3,1054.5 285.2,1076.8 414.7,888.8 544.2,1076.8 416.1,1054.5 	"/>
	<polygon class="st29" points="413.3,1114.8 285.2,1137.1 414.7,949.2 544.2,1137.1 416.1,1114.8 	"/>
	<polygon class="st29" points="418.7,1147.7 295.9,1169 420,988.9 544.2,1169 421.4,1147.7 	"/>
	<polygon class="st27" points="92.6,891 -32.5,912.7 94,729.1 220.5,912.7 95.4,891 	"/>
	<polygon class="st27" points="92.3,978 -63,1005 94,777.1 251,1005 95.7,978 	"/>
	<polygon class="st27" points="92.3,1051.1 -63,1078.1 94,850.3 251,1078.1 95.7,1051.1 	"/>
	<polygon class="st27" points="98.9,1091 -50,1116.9 100.5,898.4 251,1116.9 102.1,1091 	"/>
	<polygon class="st27" points="-114.9,835 -114.9,867.4 -85.1,862.2 -83.9,862.2 -28.7,871.8 -84.5,790.8 	"/>
	<polygon class="st27" points="-114.9,864.7 -114.9,920.8 -85.3,915.6 -83.7,915.6 -10.1,928.4 -84.5,820.5 	"/>
	<polygon class="st27" points="-114.9,895.6 -114.9,983.9 -85.6,978.8 -83.4,978.8 15,995.9 -84.5,851.4 	"/>
	<polygon class="st27" points="-114.9,933.3 -114.9,1052.3 -85.8,1047.2 -83.2,1047.2 39,1068.4 -84.5,889.2 	"/>
	<polygon class="st27" points="-114.9,990.9 -114.9,1109.8 -85.8,1104.8 -83.2,1104.8 39,1126 -84.5,946.7 	"/>
	<g>
		<polygon class="st29" points="1.2,866.3 -45.4,874.4 1.7,805.9 48.9,874.4 2.2,866.3 		"/>
		<polygon class="st29" points="1.1,911.5 -61.2,922.3 1.7,831 64.6,922.3 2.4,911.5 		"/>
		<polygon class="st29" points="0.8,964.9 -82.5,979.4 1.7,857.2 85.9,979.4 2.6,964.9 		"/>
		<polygon class="st29" points="0.6,1022.8 -102.8,1040.8 1.7,889.1 106.2,1040.8 2.9,1022.8 		"/>
		<polygon class="st29" points="1.6,1108.1 -130,1131 3.1,937.8 136.1,1131 4.5,1108.1 		"/>
		<polygon class="st29" points="5,1098 -94.1,1115.3 6,969.8 106.2,1115.3 7.1,1098 		"/>
		<polygon class="st29" points="-5.7,1148.4 -117.5,1167.9 -4.5,1003.7 108.6,1167.9 -3.2,1148.4 		"/>
	</g>
	<g>
		<polygon class="st29" points="231.4,940.5 169.2,951.3 232.1,860 295,951.3 232.8,940.5 		"/>
		<polygon class="st29" points="183.7,831.6 125.9,841.6 184.3,756.8 242.8,841.6 185,831.6 		"/>
		<polygon class="st29" points="183.5,887.6 106.4,901 184.3,787.9 262.3,901 185.2,887.6 		"/>
		<polygon class="st29" points="183.2,953.8 80,971.7 184.3,820.3 288.6,971.7 185.5,953.8 		"/>
		<polygon class="st29" points="182.9,1025.5 54.9,1047.8 184.3,859.8 313.8,1047.8 185.7,1025.5 		"/>
		<polygon class="st29" points="182.9,1085.8 54.9,1108.1 184.3,920.2 313.8,1108.1 185.7,1085.8 		"/>
		<polygon class="st29" points="188.3,1118.7 65.6,1140 189.7,959.9 313.8,1140 191,1118.7 		"/>
	</g>
</g>
<g>
	<path class="st10" d="M676.4,796.8c0,2.1-1.7,3.8-3.8,3.8c-2.1,0-3.8-1.7-3.8-3.8s1.7-3.8,3.8-3.8
		C674.7,793,676.4,794.7,676.4,796.8"/>
	<path class="st10" d="M879.1,804.8c0,2.1-1.7,3.8-3.8,3.8c-2.1,0-3.8-1.7-3.8-3.8c0-2.1,1.7-3.8,3.8-3.8
		C877.4,800.9,879.1,802.6,879.1,804.8"/>
	<polygon class="st27" points="884.4,866.8 790.9,883 885.4,745.9 979.9,883 886.4,866.8 	"/>
	<polygon class="st27" points="884,947 758.9,968.7 885.4,785.1 1011.9,968.7 886.7,947 	"/>
	<polygon class="st27" points="883.7,1034 728.4,1061 885.4,833.1 1042.4,1061 887.1,1034 	"/>
	<polygon class="st27" points="883.7,1107.1 728.4,1134.1 885.4,906.3 1042.4,1134.1 887.1,1107.1 	"/>
	<polygon class="st27" points="890.2,1147 741.3,1172.9 891.8,954.4 1042.4,1172.9 893.5,1147 	"/>
	<polygon class="st27" points="1067.4,902.1 1012.2,911.7 1068,830.7 1123.7,911.7 1068.6,902.1 	"/>
	<polygon class="st27" points="1067.2,955.5 993.6,968.3 1068,860.4 1142.3,968.3 1068.8,955.5 	"/>
	<polygon class="st27" points="1066.9,1018.6 968.4,1035.8 1068,891.3 1167.5,1035.8 1069,1018.6 	"/>
	<polygon class="st27" points="1066.6,1087.1 944.5,1108.3 1068,929 1191.5,1108.3 1069.3,1087.1 	"/>
	<polygon class="st27" points="1066.6,1144.6 944.5,1165.9 1068,986.6 1191.5,1165.9 1069.3,1144.6 	"/>
	<polygon class="st27" points="1071.8,1176 954.7,1196.4 1073.1,1024.5 1191.5,1196.4 1074.3,1176 	"/>
	<polygon class="st27" points="684.5,874.9 684.5,907.3 714.3,902.1 715.5,902.1 770.7,911.7 714.9,830.7 	"/>
	<polygon class="st27" points="684.5,904.6 684.5,960.7 714.1,955.5 715.7,955.5 789.3,968.3 714.9,860.4 	"/>
	<polygon class="st27" points="684.5,935.5 684.5,1023.7 713.9,1018.6 716,1018.6 814.5,1035.8 714.9,891.3 	"/>
	<polygon class="st27" points="684.5,973.2 684.5,1092.1 713.6,1087.1 716.3,1087.1 838.5,1108.3 714.9,929 	"/>
	<polygon class="st27" points="684.5,1030.8 684.5,1149.7 713.6,1144.6 716.3,1144.6 838.5,1165.9 714.9,986.6 	"/>
	<polygon class="st27" points="684.5,1076.1 684.5,1182 718.8,1176 721.3,1176 838.5,1196.4 720,1024.5 	"/>
	<polygon class="st27" points="1196.6,947.7 1157.2,954.6 1197.1,896.7 1236.9,954.6 1197.5,947.7 	"/>
	<polygon class="st27" points="1196.5,985.9 1143.9,995.1 1197.1,917.9 1250.2,995.1 1197.6,985.9 	"/>
	<polygon class="st27" points="1196.3,1031 1125.9,1043.3 1197.1,940 1268.2,1043.3 1197.8,1031 	"/>
	<polygon class="st27" points="1196.1,1079.9 1108.8,1095.1 1197.1,967 1285.3,1095.1 1198,1079.9 	"/>
	<polygon class="st27" points="1196.1,1121 1108.8,1136.2 1197.1,1008.1 1285.3,1136.2 1198,1121 	"/>
	<polygon class="st27" points="1199.8,1143.5 1116.1,1158 1200.7,1035.2 1285.3,1158 1201.6,1143.5 	"/>
	<polygon class="st29" points="792.6,922.3 745.9,930.4 793.1,861.9 840.3,930.4 793.6,922.3 	"/>
	<polygon class="st29" points="792.2,1020.9 708.9,1035.4 793.1,913.2 877.3,1035.4 794,1020.9 	"/>
	<polygon class="st29" points="792,1078.8 688.6,1096.8 793.1,945.1 897.6,1096.8 794.2,1078.8 	"/>
	<polygon class="st29" points="792,1127.5 688.6,1145.5 793.1,993.8 897.6,1145.5 794.2,1127.5 	"/>
	<polygon class="st29" points="796.3,1154 697.2,1171.3 797.4,1025.8 897.6,1171.3 798.5,1154 	"/>
	<polygon class="st29" points="1131.3,951.9 1091.2,958.8 1131.7,900 1172.2,958.8 1132.2,951.9 	"/>
	<polygon class="st29" points="1131.2,990.7 1077.7,1000 1131.7,921.6 1185.7,1000 1132.3,990.7 	"/>
	<polygon class="st29" points="1131,1036.5 1059.4,1049 1131.7,944 1204,1049 1132.5,1036.5 	"/>
	<polygon class="st29" points="1130.8,1086.2 1042,1101.7 1131.7,971.4 1221.4,1101.7 1132.7,1086.2 	"/>
	<polygon class="st29" points="1130.8,1128 1042,1143.5 1131.7,1013.3 1221.4,1143.5 1132.7,1128 	"/>
	<polygon class="st29" points="1134.5,1150.8 1049.4,1165.6 1135.4,1040.8 1221.4,1165.6 1136.4,1150.8 	"/>
	<polygon class="st29" points="1247.6,1004.7 1216.8,1010.1 1247.9,965 1279,1010.1 1248.3,1004.7 	"/>
	<polygon class="st29" points="1247.5,1034.5 1206.5,1041.7 1247.9,981.5 1289.4,1041.7 1248.4,1034.5 	"/>
	<polygon class="st29" points="1247.3,1069.7 1192.4,1079.3 1247.9,998.7 1303.4,1079.3 1248.5,1069.7 	"/>
	<polygon class="st29" points="1247.2,1107.9 1179.1,1119.7 1247.9,1019.8 1316.8,1119.7 1248.7,1107.9 	"/>
	<polygon class="st29" points="1247.2,1140 1179.1,1151.8 1247.9,1051.9 1316.8,1151.8 1248.7,1140 	"/>
	<polygon class="st29" points="1250.1,1157.4 1184.8,1168.8 1250.8,1073 1316.8,1168.8 1251.5,1157.4 	"/>
	<polygon class="st29" points="975.1,887.6 917.3,897.6 975.7,812.8 1034.1,897.6 976.3,887.6 	"/>
	<polygon class="st29" points="974.9,943.6 897.8,957 975.7,843.9 1053.6,957 976.5,943.6 	"/>
	<polygon class="st29" points="974.6,1009.8 871.4,1027.7 975.7,876.3 1080,1027.7 976.8,1009.8 	"/>
	<polygon class="st29" points="974.3,1081.5 846.2,1103.8 975.7,915.8 1105.2,1103.8 977.1,1081.5 	"/>
	<polygon class="st29" points="974.3,1141.8 846.2,1164.1 975.7,976.2 1105.2,1164.1 977.1,1141.8 	"/>
	<polygon class="st29" points="979.7,1174.7 856.9,1196 981,1015.9 1105.2,1196 982.4,1174.7 	"/>
	<polygon class="st27" points="653.6,918 528.5,939.7 655,756.1 781.5,939.7 656.4,918 	"/>
	<polygon class="st27" points="653.3,1005 498,1032 655,804.1 812,1032 656.7,1005 	"/>
	<polygon class="st27" points="653.3,1078.1 498,1105.1 655,877.3 812,1105.1 656.7,1078.1 	"/>
	<polygon class="st27" points="659.9,1118 511,1143.9 661.5,925.4 812,1143.9 663.1,1118 	"/>
	<g>
		<polygon class="st29" points="562.2,893.3 515.6,901.4 562.7,832.9 609.9,901.4 563.2,893.3 		"/>
		<polygon class="st29" points="562.1,938.5 499.8,949.3 562.7,858 625.6,949.3 563.4,938.5 		"/>
		<polygon class="st29" points="561.8,991.9 478.5,1006.4 562.7,884.2 646.9,1006.4 563.6,991.9 		"/>
		<polygon class="st29" points="561.6,1049.8 458.2,1067.8 562.7,916.1 667.2,1067.8 563.9,1049.8 		"/>
		<polygon class="st29" points="562.6,1135.1 431,1158 564.1,964.8 697.1,1158 565.5,1135.1 		"/>
		<polygon class="st29" points="566,1125 466.9,1142.3 567,996.8 667.2,1142.3 568.1,1125 		"/>
		<polygon class="st29" points="555.3,1175.4 443.5,1194.9 556.5,1030.7 669.6,1194.9 557.8,1175.4 		"/>
	</g>
	<g>
		<polygon class="st29" points="792.4,967.5 730.2,978.3 793.1,887 856,978.3 793.8,967.5 		"/>
		<polygon class="st29" points="744.7,858.6 686.9,868.6 745.3,783.8 803.8,868.6 746,858.6 		"/>
		<polygon class="st29" points="744.5,914.6 667.4,928 745.3,814.9 823.3,928 746.2,914.6 		"/>
		<polygon class="st29" points="744.2,980.8 641,998.7 745.3,847.3 849.6,998.7 746.5,980.8 		"/>
		<polygon class="st29" points="743.9,1052.5 615.9,1074.8 745.3,886.8 874.8,1074.8 746.7,1052.5 		"/>
		<polygon class="st29" points="743.9,1112.8 615.9,1135.1 745.3,947.2 874.8,1135.1 746.7,1112.8 		"/>
		<polygon class="st29" points="749.3,1145.7 626.6,1167 750.7,986.9 874.8,1167 752,1145.7 		"/>
	</g>
</g>
<linearGradient id="SVGID_50_" gradientUnits="userSpaceOnUse" x1="5" y1="1598.5846" x2="2477" y2="1598.5846">
	<stop  offset="0" style="stop-color:#21236A"/>
	<stop  offset="1" style="stop-color:#1A1643"/>
</linearGradient>
<rect x="5" y="1114.2" class="st30" width="2472" height="968.8"/>
</svg>
