<?xml version="1.0" encoding="utf-8"?>
<!-- Generator: Adobe Illustrator 21.1.0, SVG Export Plug-In . SVG Version: 6.00 Build 0)  -->
<svg version="1.1" id="Layer_1" xmlns="http://www.w3.org/2000/svg" xmlns:xlink="http://www.w3.org/1999/xlink" x="0px" y="0px"
	 viewBox="0 0 1486 1224" style="enable-background:new 0 0 1486 1224;" xml:space="preserve">
<style type="text/css">
	.st0{fill:#FFFFFF;}
	.st1{opacity:0.1;}
	.st2{fill:#E5E5E5;}
	.st3{fill:#2D459E;}
	.st4{fill:url(#SVGID_1_);}
	.st5{fill:#4570DB;}
	.st6{fill:url(#SVGID_2_);}
	.st7{fill:#3B47A5;}
	.st8{fill:url(#SVGID_3_);}
	.st9{fill:url(#SVGID_4_);}
	.st10{fill:url(#SVGID_5_);}
	.st11{fill:#4C6DD8;}
	.st12{fill:#344099;}
	.st13{fill:#FFB68D;}
	.st14{fill:#563DA3;}
	.st15{fill:#984DAA;}
	.st16{fill:#3D3DA0;}
	.st17{fill:#564AAF;}
	.st18{fill:#2B399B;}
	.st19{fill:#555AB7;}
	.st20{fill:#D371AB;}
	.st21{fill:#21236A;}
	.st22{fill:none;stroke:#4C6DD8;stroke-width:3;stroke-miterlimit:10;}
	.st23{fill:none;stroke:#253082;stroke-width:4;stroke-miterlimit:10;}
	.st24{opacity:0.14;}
	.st25{fill:none;stroke:#FFBC9E;stroke-width:40;stroke-miterlimit:10;}
	.st26{opacity:0.26;}
	.st27{fill:none;stroke:#FFBC9E;stroke-width:20;stroke-miterlimit:10;}
	.st28{fill:none;stroke:#FFBC9E;stroke-width:10;stroke-miterlimit:10;}
</style>
<path class="st0" d="M821.8,527.6c0,2.6-2.1,4.7-4.7,4.7s-4.7-2.1-4.7-4.7c0-2.6,2.1-4.7,4.7-4.7C819.7,522.9,821.8,525,821.8,527.6
	"/>
<path class="st0" d="M725.9,620.2c0,1.9-1.5,3.4-3.4,3.4s-3.4-1.5-3.4-3.4s1.5-3.4,3.4-3.4C724.3,616.8,725.9,618.3,725.9,620.2"/>
<path class="st0" d="M736.6,395.6c0,1.9-1.5,3.4-3.4,3.4s-3.4-1.5-3.4-3.4s1.5-3.4,3.4-3.4C735.1,392.2,736.6,393.7,736.6,395.6"/>
<g class="st1">
	
		<image style="overflow:visible;enable-background:new    ;" width="367" height="362" xlink:href="73C0FC4D7C351DD.png"  transform="matrix(1 0 0 1 53 0)">
	</image>
</g>
<g>
	<path class="st2" d="M298.6,227.3c-53.9,0-97.6-43.7-97.6-97.6c0-16.9,4.3-32.8,11.9-46.7c-35.6,14.6-60.7,49.5-60.7,90.4
		c0,53.9,43.7,97.6,97.6,97.6c37,0,69.2-20.6,85.8-50.9C324.2,224.7,311.7,227.3,298.6,227.3"/>
	<g>
		
			<image style="overflow:visible;enable-background:new    ;" width="256" height="261" xlink:href="73C0FC4D7C351E7.png"  transform="matrix(1 0 0 1 116 46)">
		</image>
	</g>
</g>
<polygon class="st3" points="861.1,701.2 895,707.1 860.8,657.5 826.6,707.1 860.4,701.2 "/>
<polygon class="st3" points="861.3,734 906.4,741.9 860.8,675.7 815.2,741.9 860.3,734 "/>
<polygon class="st3" points="861.4,772.7 921.8,783.2 860.8,694.6 799.7,783.2 860.1,772.7 "/>
<polygon class="st3" points="861.6,814.7 936.5,827.7 860.8,717.8 785,827.7 860,814.7 "/>
<polygon class="st3" points="861.6,850 936.5,863 860.8,753.1 785,863 860,850 "/>
<polygon class="st3" points="858.4,869.2 930.3,881.7 857.6,776.3 785,881.7 856.9,869.2 "/>
<polygon class="st3" points="640.8,701.2 607,707.1 641.2,657.5 675.4,707.1 641.5,701.2 "/>
<polygon class="st3" points="640.7,734 595.6,741.9 641.2,675.7 686.8,741.9 641.7,734 "/>
<polygon class="st3" points="640.5,772.7 580.1,783.2 641.2,694.6 702.2,783.2 641.8,772.7 "/>
<polygon class="st3" points="640.4,814.7 565.4,827.7 641.2,717.8 716.9,827.7 642,814.7 "/>
<polygon class="st3" points="640.4,850 565.4,863 641.2,753.1 716.9,863 642,850 "/>
<polygon class="st3" points="643.5,869.2 571.7,881.7 644.3,776.3 716.9,881.7 645.1,869.2 "/>
<g>
	
		<image style="overflow:visible;enable-background:new    ;" width="1033" height="356" xlink:href="73C0FC4D7C351E9.png"  transform="matrix(1 0 0 1 215 779)">
	</image>
</g>
<linearGradient id="SVGID_1_" gradientUnits="userSpaceOnUse" x1="533.6" y1="924.6" x2="958.4" y2="924.6" gradientTransform="matrix(1 0 0 -1 0 1458)">
	<stop  offset="0.3668" style="stop-color:#345FC7"/>
	<stop  offset="1" style="stop-color:#2B3396"/>
</linearGradient>
<circle class="st4" cx="746" cy="533.4" r="212.4"/>
<path class="st5" d="M782,723.2c-111.1,0-201.1-90-201.1-201.1c0-105.1,80.6-191.3,183.4-200.3c-6-0.5-12.1-0.8-18.2-0.8
	c-117.3,0-212.4,95.1-212.4,212.4s95.1,212.4,212.4,212.4c51.7,0,99.1-18.5,136-49.2C852.6,713.5,818.4,723.2,782,723.2z"/>
<linearGradient id="SVGID_2_" gradientUnits="userSpaceOnUse" x1="522.7" y1="951.85" x2="968.8" y2="951.85" gradientTransform="matrix(1 0 0 -1 0 1458)">
	<stop  offset="0" style="stop-color:#2C2B72"/>
	<stop  offset="1" style="stop-color:#1F2255"/>
</linearGradient>
<rect x="522.7" y="470.2" class="st6" width="446.1" height="71.9"/>
<rect x="522.7" y="478.8" class="st7" width="17.3" height="45.3"/>
<linearGradient id="SVGID_3_" gradientUnits="userSpaceOnUse" x1="513.6" y1="978.85" x2="978.3999" y2="978.85" gradientTransform="matrix(1 0 0 -1 0 1458)">
	<stop  offset="0" style="stop-color:#466EDB"/>
	<stop  offset="1" style="stop-color:#3B47A5"/>
</linearGradient>
<rect x="513.6" y="469.5" class="st8" width="464.8" height="19.3"/>
<linearGradient id="SVGID_4_" gradientUnits="userSpaceOnUse" x1="523" y1="812.4" x2="969.1" y2="812.4" gradientTransform="matrix(1 0 0 -1 0 1458)">
	<stop  offset="0" style="stop-color:#2C2B72"/>
	<stop  offset="1" style="stop-color:#1F2255"/>
</linearGradient>
<rect x="523" y="524.1" class="st9" width="446.1" height="243"/>
<rect x="522.7" y="524.1" class="st7" width="17.3" height="243"/>
<linearGradient id="SVGID_5_" gradientUnits="userSpaceOnUse" x1="513.6" y1="924.25" x2="978.3999" y2="924.25" gradientTransform="matrix(1 0 0 -1 0 1458)">
	<stop  offset="0" style="stop-color:#466EDB"/>
	<stop  offset="1" style="stop-color:#3B47A5"/>
</linearGradient>
<rect x="513.6" y="524.1" class="st10" width="464.8" height="19.3"/>
<g>
	<polygon class="st11" points="746.4,430.5 561.9,544.4 575.6,544.4 753.2,434.7 	"/>
	<polygon class="st7" points="753.2,434.7 575.6,544.4 930.1,544.4 	"/>
</g>
<g>
	<polygon class="st11" points="751.8,464.8 856,527.3 848.2,527.3 748,467.2 	"/>
	<polygon class="st12" points="748,467.2 848.2,527.3 648.1,527.3 	"/>
</g>
<g>
	<rect x="558" y="570" class="st13" width="57.1" height="75.9"/>
	<rect x="637.9" y="570" class="st13" width="57.1" height="75.9"/>
	<rect x="558" y="669.9" class="st13" width="57.1" height="75.9"/>
	<rect x="637.9" y="669.9" class="st13" width="57.1" height="75.9"/>
	<rect x="717.9" y="570" class="st13" width="57.1" height="75.9"/>
	<rect x="716" y="669.2" class="st13" width="57.1" height="97.2"/>
	<rect x="797.8" y="570" class="st13" width="57.1" height="75.9"/>
	<rect x="877.7" y="570" class="st13" width="57.1" height="75.9"/>
	<rect x="797.8" y="669.2" class="st13" width="57.1" height="75.9"/>
	<rect x="877.7" y="669.2" class="st13" width="57.1" height="75.9"/>
</g>
<rect x="509.4" y="772.4" class="st14" width="478.1" height="27.3"/>
<rect x="486.1" y="799.7" class="st15" width="524.7" height="5.3"/>
<rect x="486.1" y="805.1" class="st16" width="524.7" height="27.3"/>
<rect x="464.1" y="832.4" class="st17" width="568.6" height="5.3"/>
<rect x="464.1" y="837.7" class="st18" width="568.6" height="27.3"/>
<g>
	
		<image style="overflow:visible;enable-background:new    ;" width="129" height="896" xlink:href="73C0FC4D7C351EA.png"  transform="matrix(0.2288 0 0 0.2393 573.52 556.56)">
	</image>
	
		<image style="overflow:visible;enable-background:new    ;" width="125" height="879" xlink:href="73C0FC4D7C351EB.png"  transform="matrix(0.2362 0 0 0.2397 637 557)">
	</image>
	
		<image style="overflow:visible;enable-background:new    ;" width="125" height="879" xlink:href="73C0FC4D7C351EF.png"  transform="matrix(0.2362 0 0 0.2397 700 557)">
	</image>
	
		<image style="overflow:visible;enable-background:new    ;" width="125" height="879" xlink:href="73C0FC4D7C351E8.png"  transform="matrix(0.2362 0 0 0.2397 763 557)">
	</image>
	
		<image style="overflow:visible;enable-background:new    ;" width="125" height="879" xlink:href="73C0FC4D7C351F6.png"  transform="matrix(0.2362 0 0 0.2397 826 557)">
	</image>
	
		<image style="overflow:visible;enable-background:new    ;" width="125" height="879" xlink:href="73C0FC4D7C351F7.png"  transform="matrix(0.2362 0 0 0.2397 889 557)">
	</image>
	<rect x="569.6" y="556.7" class="st19" width="4.7" height="210.4"/>
	<rect x="602.5" y="556.7" class="st15" width="4.7" height="210.4"/>
	<rect x="631.8" y="556.7" class="st15" width="4.7" height="210.4"/>
	<rect x="665.8" y="556.7" class="st20" width="4.7" height="210.4"/>
	<rect x="695.1" y="556.7" class="st20" width="4.7" height="210.4"/>
	<rect x="729" y="556.7" class="st20" width="4.7" height="210.4"/>
	<rect x="758.3" y="556.7" class="st20" width="4.7" height="210.4"/>
	<rect x="792.3" y="556.7" class="st20" width="4.7" height="210.4"/>
	<rect x="821.6" y="556.7" class="st20" width="4.7" height="210.4"/>
	<rect x="855.6" y="556.7" class="st15" width="4.7" height="210.4"/>
	<rect x="884.9" y="556.7" class="st15" width="4.7" height="210.4"/>
	<rect x="917.8" y="556.7" class="st19" width="4.7" height="210.4"/>
	<rect x="573.2" y="545.4" class="st21" width="29.3" height="11.3"/>
	<rect x="636.5" y="545.4" class="st21" width="29.3" height="11.3"/>
	<rect x="699.7" y="545.4" class="st21" width="29.3" height="11.3"/>
	<rect x="763" y="545.4" class="st21" width="29.3" height="11.3"/>
	<rect x="826.3" y="545.4" class="st21" width="29.3" height="11.3"/>
	<rect x="889.5" y="545.4" class="st21" width="29.3" height="11.3"/>
	<g>
		<rect x="568.6" y="545.4" class="st21" width="4.7" height="11.3"/>
		<rect x="602.5" y="545.4" class="st21" width="4.7" height="11.3"/>
		<rect x="631.8" y="545.4" class="st21" width="4.7" height="11.3"/>
		<rect x="665.8" y="545.4" class="st21" width="4.7" height="11.3"/>
		<rect x="695.1" y="545.4" class="st21" width="4.7" height="11.3"/>
		<rect x="729" y="545.4" class="st21" width="4.7" height="11.3"/>
		<rect x="758.3" y="545.4" class="st21" width="4.7" height="11.3"/>
		<rect x="792.3" y="545.4" class="st21" width="4.7" height="11.3"/>
		<rect x="821.6" y="545.4" class="st21" width="4.7" height="11.3"/>
		<rect x="855.6" y="545.4" class="st21" width="4.7" height="11.3"/>
		<rect x="884.9" y="545.4" class="st21" width="4.7" height="11.3"/>
		<rect x="918.8" y="545.4" class="st21" width="4.7" height="11.3"/>
	</g>
</g>
<g>
	
		<image style="overflow:visible;enable-background:new    ;" width="1486" height="232" xlink:href="BAE47732F3AD566.png"  transform="matrix(1 0 0 1 0 992)">
	</image>
</g>
<g>
	
		<image style="overflow:visible;enable-background:new    ;" width="1389" height="154" xlink:href="BAE47732F3AD562.png"  transform="matrix(1 0 0 1 77 1014)">
	</image>
</g>
<g>
	
		<image style="overflow:visible;enable-background:new    ;" width="1360" height="141" xlink:href="BAE47732F3AD563.png"  transform="matrix(1 0 0 1 67 1002)">
	</image>
</g>
<line class="st22" x1="648" y1="526" x2="856" y2="526"/>
<line class="st23" x1="747.9" y1="466" x2="648" y2="526"/>
<circle class="st21" cx="745" cy="501" r="13"/>
<g>
	<g class="st24">
		<g>
			<path class="st25" d="M616.7,1023.3L616.7,1023.3c11.9-0.1,22.9-7.2,28.7-18.3c-0.2-2.5,0.1-4.8,1-7c0.7-1.8,2.3-4.5,8.1-10.6
				c-1.6-1.7-3.2-3.5-4.9-5.3c-7.3-7.9-15.5-16.9-21.2-19.2c-0.1,0-0.1-0.1-0.2-0.1s-0.1,0-0.2-0.1c-1-0.5-10.3-4.9-21.9-0.9
				c-15.2,5.2-20.1,22.8-20.1,23v0.1c-0.8,4.7-1.2,8.5-1.3,11.8C588.5,1012.2,601.8,1023.3,616.7,1023.3z M599.1,989.5
				c1.5-7.5,8.1-12.9,15.7-12.9c8.9,0,16.1,7.2,16.1,16.1c0,3.1-2.6,5.7-5.7,5.7s-5.7-2.6-5.7-5.7c0-2.6-2.1-4.7-4.7-4.7
				c-2.2,0-4.1,1.6-4.6,3.7c-0.6,3.1-3.6,5.1-6.7,4.5C600.5,995.6,598.5,992.6,599.1,989.5z"/>
			<path class="st25" d="M710,1034.7c-13.5,0-25.9-6.6-34.2-17.1c-2.2,3.5-5.1,7.2-8.8,11.1l-4.1,4.4l-4.1-4.4
				c-3.5-3.7-6.3-7.2-8.4-10.5c-8.3,10.2-20.6,16.5-33.5,16.5c-0.1,0-0.1,0-0.2,0c-10.3,0-19.9-3.8-27.6-10.3c0.4,2.3,0.7,4.8,1,7.5
				c9,10.2,33.2,32.8,72.4,32.8c0.1,0,0.3,0,0.4,0s0.3,0,0.4,0c39.2,0,63.4-22.6,72.4-32.8c0.3-2.4,0.6-4.7,0.9-6.7
				c-7.5,6-16.8,9.5-26.4,9.5C710.2,1034.7,710.1,1034.7,710,1034.7z"/>
			<path class="st25" d="M663,1016.1c4.1-5.1,5.5-8.6,5.9-10.9c-0.6-1.7-1.2-3.4-1.6-5.2c-0.9-1.1-2.2-2.6-4.3-4.8
				c-4.8,5.1-5.7,6.7-5.8,7c-0.2,0.5-0.4,1.4-0.1,3l0,0C657.4,1007.5,658.9,1011,663,1016.1z"/>
			<path class="st25" d="M698.8,919.2c-7.9-3.1-20.6-6.7-35.9-6.8c-15.2,0-27.9,3.7-35.8,6.8c-6.8,2.6-14.1,3.3-21.1,1.9l-27.5-5.4
				c1.3,2.8,2.4,5.3,3.4,7.5c3.7,8.3,5.2,11.2,9.3,13.3c0,0,0.1,0,0.1,0.1h0.1c0.2,0.1,0.3,0.2,0.4,0.3c0.1,0.1,0.3,0.2,0.4,0.3
				c0.2,0.1,0.3,0.3,0.5,0.4c0.1,0.1,0.2,0.2,0.3,0.3c0.1,0.2,0.3,0.4,0.4,0.6c0.1,0.1,0.2,0.2,0.2,0.3c0.1,0.2,0.2,0.4,0.3,0.7
				c0,0.1,0.1,0.2,0.1,0.3c0.1,0.2,0.1,0.5,0.2,0.7c0,0.1,0.1,0.2,0.1,0.3c0,0.3,0,0.5,0,0.8c0,0.1,0,0.2,0,0.3
				c0,0.3-0.1,0.5-0.1,0.8c0,0.1,0,0.2-0.1,0.3c-0.1,0.3-0.2,0.5-0.3,0.8c0,0.1-0.1,0.2-0.1,0.3l0,0c0,0,0,0.1-0.1,0.1
				c-3,5.6-4.7,10.9-5.6,15.7c3.8-3.6,8.5-6.9,14.4-8.9c15.7-5.4,28.3,0.3,30.7,1.5l0,0c7.9,3.4,16.5,12.8,24.8,21.9
				c1.7,1.8,3.3,3.6,4.8,5.2c1.6-1.7,3.2-3.4,4.8-5.2c8.3-9.1,16.9-18.4,24.8-21.9l0,0c2.4-1.2,15-6.9,30.7-1.5
				c5.9,2,10.6,5.3,14.4,8.9c-0.9-4.8-2.6-10.1-5.6-15.7c0,0,0-0.1-0.1-0.1l0,0c0-0.1-0.1-0.2-0.1-0.3c-0.1-0.3-0.2-0.5-0.3-0.8
				c0-0.1,0-0.2-0.1-0.3c-0.1-0.3-0.1-0.5-0.1-0.8c0-0.1,0-0.2,0-0.3c0-0.3,0-0.5,0-0.8c0-0.1,0-0.2,0.1-0.3c0-0.2,0.1-0.5,0.2-0.7
				c0-0.1,0.1-0.2,0.1-0.3c0.1-0.2,0.2-0.4,0.3-0.7c0.1-0.1,0.1-0.2,0.2-0.3c0.1-0.2,0.2-0.4,0.4-0.6c0.1-0.1,0.2-0.2,0.3-0.3
				c0.2-0.2,0.3-0.3,0.5-0.4c0.1-0.1,0.3-0.2,0.4-0.3c0.1-0.1,0.3-0.2,0.4-0.3h0.1h0.1c4.2-2.1,5.7-5,9.3-13.3
				c1-2.2,2.1-4.7,3.4-7.5l-27.5,5.4C712.9,922.4,705.6,921.8,698.8,919.2z"/>
			<path class="st25" d="M739.7,984.9c0-0.2-4.9-17.8-20.1-23c-11.6-4-20.8,0.4-21.9,0.9c-0.1,0-0.1,0-0.2,0.1
				c-0.1,0-0.1,0.1-0.2,0.1c-5.6,2.3-13.9,11.3-21.2,19.2c-1.7,1.8-3.3,3.6-4.9,5.3c2.8,2.9,4.6,5.1,5.8,6.7c0,0,0,0,0.1,0.1
				c1.3,1.8,1.9,2.9,2.3,3.8c0.7,1.7,1,3.5,1,5.3c5.4,11.9,16.9,20,29.6,20h0.1c12.3-0.1,23.8-7.8,29.3-19.6
				c0.3-0.7,0.8-1.3,1.3-1.8c0.4-4.6,0.2-9.5-1.1-16.9C739.7,985,739.7,984.9,739.7,984.9z M722.3,996.3c-3.1,0.6-6.1-1.4-6.7-4.5
				c-0.4-2.2-2.4-3.7-4.6-3.7c-2.6,0-4.7,2.1-4.7,4.7c0,3.1-2.6,5.7-5.7,5.7s-5.7-2.6-5.7-5.7c0-8.9,7.2-16.1,16.1-16.1
				c7.6,0,14.2,5.4,15.7,12.9C727.4,992.6,725.4,995.6,722.3,996.3z"/>
		</g>
		<g>
			<g>
				<path class="st25" d="M135.2,936.7c0-1.7,1.5-3.2,3.2-3.2h20.3c1.9,0,3.2,1.5,3.2,3.2v43h48.8v-43c0-1.7,1.4-3.2,3.2-3.2h20.3
					c1.7,0,3.2,1.5,3.2,3.2v112.9c0,1.7-1.5,3.2-3.2,3.2H214c-1.9,0-3.2-1.5-3.2-3.2v-44.9H162v44.9c0,1.7-1.4,3.2-3.2,3.2h-20.3
					c-1.7,0-3.2-1.5-3.2-3.2L135.2,936.7L135.2,936.7z"/>
				<path class="st25" d="M327.9,931.7c34.1,0,61.4,27.5,61.4,61.6s-27.3,61.2-61.4,61.2s-61.2-27.1-61.2-61.2
					S293.8,931.7,327.9,931.7z M327.9,1027.3c18.8,0,34.1-15.4,34.1-34c0-18.8-15.4-34.3-34.1-34.3c-18.6,0-34,15.5-34,34.3
					C294,1011.9,309.3,1027.3,327.9,1027.3z"/>
				<path class="st25" d="M471.1,931.7c34.1,0,61.4,27.5,61.4,61.6s-27.3,61.2-61.4,61.2s-61.2-27.1-61.2-61.2
					C409.8,959.2,436.9,931.7,471.1,931.7z M471.1,1027.3c18.8,0,34.1-15.4,34.1-34c0-18.8-15.4-34.3-34.1-34.3
					c-18.6,0-34,15.5-34,34.3C437.1,1011.9,452.5,1027.3,471.1,1027.3z"/>
			</g>
			<g>
				<path class="st25" d="M135.2,936.7c0-1.7,1.5-3.2,3.2-3.2h20.3c1.9,0,3.2,1.5,3.2,3.2v43h48.8v-43c0-1.7,1.4-3.2,3.2-3.2h20.3
					c1.7,0,3.2,1.5,3.2,3.2v112.9c0,1.7-1.5,3.2-3.2,3.2H214c-1.9,0-3.2-1.5-3.2-3.2v-44.9H162v44.9c0,1.7-1.4,3.2-3.2,3.2h-20.3
					c-1.7,0-3.2-1.5-3.2-3.2L135.2,936.7L135.2,936.7z"/>
				<path class="st25" d="M327.9,931.7c34.1,0,61.4,27.5,61.4,61.6s-27.3,61.2-61.4,61.2s-61.2-27.1-61.2-61.2
					S293.8,931.7,327.9,931.7z M327.9,1027.3c18.8,0,34.1-15.4,34.1-34c0-18.8-15.4-34.3-34.1-34.3c-18.6,0-34,15.5-34,34.3
					C294,1011.9,309.3,1027.3,327.9,1027.3z"/>
				<path class="st25" d="M471.1,931.7c34.1,0,61.4,27.5,61.4,61.6s-27.3,61.2-61.4,61.2s-61.2-27.1-61.2-61.2
					C409.8,959.2,436.9,931.7,471.1,931.7z M471.1,1027.3c18.8,0,34.1-15.4,34.1-34c0-18.8-15.4-34.3-34.1-34.3
					c-18.6,0-34,15.5-34,34.3C437.1,1011.9,452.5,1027.3,471.1,1027.3z"/>
			</g>
			<g>
				<path class="st25" d="M135.2,936.7c0-1.7,1.5-3.2,3.2-3.2h20.3c1.9,0,3.2,1.5,3.2,3.2v43h48.8v-43c0-1.7,1.4-3.2,3.2-3.2h20.3
					c1.7,0,3.2,1.5,3.2,3.2v112.9c0,1.7-1.5,3.2-3.2,3.2H214c-1.9,0-3.2-1.5-3.2-3.2v-44.9H162v44.9c0,1.7-1.4,3.2-3.2,3.2h-20.3
					c-1.7,0-3.2-1.5-3.2-3.2L135.2,936.7L135.2,936.7z"/>
				<path class="st25" d="M327.9,931.7c34.1,0,61.4,27.5,61.4,61.6s-27.3,61.2-61.4,61.2s-61.2-27.1-61.2-61.2
					S293.8,931.7,327.9,931.7z M327.9,1027.3c18.8,0,34.1-15.4,34.1-34c0-18.8-15.4-34.3-34.1-34.3c-18.6,0-34,15.5-34,34.3
					C294,1011.9,309.3,1027.3,327.9,1027.3z"/>
				<path class="st25" d="M471.1,931.7c34.1,0,61.4,27.5,61.4,61.6s-27.3,61.2-61.4,61.2s-61.2-27.1-61.2-61.2
					C409.8,959.2,436.9,931.7,471.1,931.7z M471.1,1027.3c18.8,0,34.1-15.4,34.1-34c0-18.8-15.4-34.3-34.1-34.3
					c-18.6,0-34,15.5-34,34.3C437.1,1011.9,452.5,1027.3,471.1,1027.3z"/>
			</g>
		</g>
		<g>
			<g>
				<path class="st25" d="M806.8,937.5c0-1.7,1.5-3.2,3.2-3.2h20.3c1.9,0,3.2,1.5,3.2,3.2v43h48.8v-43c0-1.7,1.4-3.2,3.2-3.2h20.3
					c1.7,0,3.2,1.5,3.2,3.2v112.9c0,1.7-1.5,3.2-3.2,3.2h-20.3c-1.9,0-3.2-1.5-3.2-3.2v-44.9h-48.8v44.9c0,1.7-1.4,3.2-3.2,3.2H810
					c-1.7,0-3.2-1.5-3.2-3.2V937.5z"/>
				<path class="st25" d="M931.7,1049.3l53.4-114.8c0.5-1,1.7-1.9,2.9-1.9h1.7c1.2,0,2.4,0.9,2.9,1.9l53.4,114.8
					c1,2.2-0.3,4.4-2.9,4.4h-18.9c-3.1,0-4.4-1-6-4.3l-6.1-13.5h-46.4l-6.1,13.6c-0.9,2-2.7,4.1-6.1,4.1h-18.8
					C932,1053.7,930.6,1051.5,931.7,1049.3z M1001.8,1012.8l-13-28.2h-0.2l-12.8,28.2H1001.8z"/>
				<path class="st25" d="M1120.4,932.6c17.1,0,29.7,5.3,41.3,15.9c1.5,1.4,1.5,3.4,0.2,4.8l-13.3,13.8c-1.2,1.2-3.1,1.2-4.3,0
					c-6.3-5.6-14.7-8.7-23-8.7c-19.3,0-33.4,16-33.4,35.1c0,18.9,14.3,34.6,33.6,34.6c8,0,16.7-2.9,22.9-8.2c1.2-1,3.4-1,4.4,0.2
					l13.3,14.2c1.2,1.2,1,3.4-0.2,4.6c-11.6,11.3-26.3,16.5-41.5,16.5c-34.1,0-61.6-27.1-61.6-61.2
					C1058.8,960,1086.2,932.6,1120.4,932.6z"/>
				<path class="st25" d="M1190.8,938.4c0-2.2,1.7-4.1,4.1-4.1h20c2.2,0,4.1,1.9,4.1,4.1v44.9l37.9-47.3c0.7-0.9,2.2-1.7,3.2-1.7
					h21.5c3.2,0,4.9,3.8,3.1,6.3l-39.9,50l43.5,56.6c1.9,2.6,0,6.3-3.2,6.3h-23.5c-1.2,0-2.7-0.7-3.1-1.2l-39.4-53.6v50.8
					c0,2.2-1.9,4.1-4.1,4.1h-20c-2.4,0-4.1-1.9-4.1-4.1L1190.8,938.4L1190.8,938.4z"/>
				<path class="st25" d="M1307.3,1037.5l8-14.2c1.4-2.2,4.6-1.9,5.8-1c0.7,0.3,13,9.4,24.2,9.4c6.8,0,11.8-4.3,11.8-10.2
					c0-7.2-6-12.6-17.6-17.2c-14.7-5.8-33.1-17.2-33.1-37.7c0-16.9,13.1-34,39.4-34c17.7,0,31.4,9,36.5,12.8c2,1.2,1.7,4.3,1,5.5
					l-8.7,13.1c-1.2,1.9-4.3,3.4-5.8,2.2c-1.5-0.9-14-10.2-24.4-10.2c-6.1,0-10.7,4.1-10.7,8.7c0,6.3,5.1,11.1,18.6,16.5
					c13.3,5.3,34.5,15.7,34.5,38.9c0,17.6-15.2,35.3-40.3,35.3c-22.2,0-34.5-9.2-38.4-13.1C1306.5,1040.6,1306,1039.9,1307.3,1037.5
					z"/>
			</g>
			<g>
				<path class="st25" d="M806.8,937.5c0-1.7,1.5-3.2,3.2-3.2h20.3c1.9,0,3.2,1.5,3.2,3.2v43h48.8v-43c0-1.7,1.4-3.2,3.2-3.2h20.3
					c1.7,0,3.2,1.5,3.2,3.2v112.9c0,1.7-1.5,3.2-3.2,3.2h-20.3c-1.9,0-3.2-1.5-3.2-3.2v-44.9h-48.8v44.9c0,1.7-1.4,3.2-3.2,3.2H810
					c-1.7,0-3.2-1.5-3.2-3.2V937.5z"/>
				<path class="st25" d="M931.7,1049.3l53.4-114.8c0.5-1,1.7-1.9,2.9-1.9h1.7c1.2,0,2.4,0.9,2.9,1.9l53.4,114.8
					c1,2.2-0.3,4.4-2.9,4.4h-18.9c-3.1,0-4.4-1-6-4.3l-6.1-13.5h-46.4l-6.1,13.6c-0.9,2-2.7,4.1-6.1,4.1h-18.8
					C932,1053.7,930.6,1051.5,931.7,1049.3z M1001.8,1012.8l-13-28.2h-0.2l-12.8,28.2H1001.8z"/>
				<path class="st25" d="M1120.4,932.6c17.1,0,29.7,5.3,41.3,15.9c1.5,1.4,1.5,3.4,0.2,4.8l-13.3,13.8c-1.2,1.2-3.1,1.2-4.3,0
					c-6.3-5.6-14.7-8.7-23-8.7c-19.3,0-33.4,16-33.4,35.1c0,18.9,14.3,34.6,33.6,34.6c8,0,16.7-2.9,22.9-8.2c1.2-1,3.4-1,4.4,0.2
					l13.3,14.2c1.2,1.2,1,3.4-0.2,4.6c-11.6,11.3-26.3,16.5-41.5,16.5c-34.1,0-61.6-27.1-61.6-61.2
					C1058.8,960,1086.2,932.6,1120.4,932.6z"/>
				<path class="st25" d="M1190.8,938.4c0-2.2,1.7-4.1,4.1-4.1h20c2.2,0,4.1,1.9,4.1,4.1v44.9l37.9-47.3c0.7-0.9,2.2-1.7,3.2-1.7
					h21.5c3.2,0,4.9,3.8,3.1,6.3l-39.9,50l43.5,56.6c1.9,2.6,0,6.3-3.2,6.3h-23.5c-1.2,0-2.7-0.7-3.1-1.2l-39.4-53.6v50.8
					c0,2.2-1.9,4.1-4.1,4.1h-20c-2.4,0-4.1-1.9-4.1-4.1L1190.8,938.4L1190.8,938.4z"/>
				<path class="st25" d="M1307.3,1037.5l8-14.2c1.4-2.2,4.6-1.9,5.8-1c0.7,0.3,13,9.4,24.2,9.4c6.8,0,11.8-4.3,11.8-10.2
					c0-7.2-6-12.6-17.6-17.2c-14.7-5.8-33.1-17.2-33.1-37.7c0-16.9,13.1-34,39.4-34c17.7,0,31.4,9,36.5,12.8c2,1.2,1.7,4.3,1,5.5
					l-8.7,13.1c-1.2,1.9-4.3,3.4-5.8,2.2c-1.5-0.9-14-10.2-24.4-10.2c-6.1,0-10.7,4.1-10.7,8.7c0,6.3,5.1,11.1,18.6,16.5
					c13.3,5.3,34.5,15.7,34.5,38.9c0,17.6-15.2,35.3-40.3,35.3c-22.2,0-34.5-9.2-38.4-13.1C1306.5,1040.6,1306,1039.9,1307.3,1037.5
					z"/>
			</g>
			<g>
				<path class="st25" d="M806.8,937.5c0-1.7,1.5-3.2,3.2-3.2h20.3c1.9,0,3.2,1.5,3.2,3.2v43h48.8v-43c0-1.7,1.4-3.2,3.2-3.2h20.3
					c1.7,0,3.2,1.5,3.2,3.2v112.9c0,1.7-1.5,3.2-3.2,3.2h-20.3c-1.9,0-3.2-1.5-3.2-3.2v-44.9h-48.8v44.9c0,1.7-1.4,3.2-3.2,3.2H810
					c-1.7,0-3.2-1.5-3.2-3.2V937.5z"/>
				<path class="st25" d="M931.7,1049.3l53.4-114.8c0.5-1,1.7-1.9,2.9-1.9h1.7c1.2,0,2.4,0.9,2.9,1.9l53.4,114.8
					c1,2.2-0.3,4.4-2.9,4.4h-18.9c-3.1,0-4.4-1-6-4.3l-6.1-13.5h-46.4l-6.1,13.6c-0.9,2-2.7,4.1-6.1,4.1h-18.8
					C932,1053.7,930.6,1051.5,931.7,1049.3z M1001.8,1012.8l-13-28.2h-0.2l-12.8,28.2H1001.8z"/>
				<path class="st25" d="M1120.4,932.6c17.1,0,29.7,5.3,41.3,15.9c1.5,1.4,1.5,3.4,0.2,4.8l-13.3,13.8c-1.2,1.2-3.1,1.2-4.3,0
					c-6.3-5.6-14.7-8.7-23-8.7c-19.3,0-33.4,16-33.4,35.1c0,18.9,14.3,34.6,33.6,34.6c8,0,16.7-2.9,22.9-8.2c1.2-1,3.4-1,4.4,0.2
					l13.3,14.2c1.2,1.2,1,3.4-0.2,4.6c-11.6,11.3-26.3,16.5-41.5,16.5c-34.1,0-61.6-27.1-61.6-61.2
					C1058.8,960,1086.2,932.6,1120.4,932.6z"/>
				<path class="st25" d="M1190.8,938.4c0-2.2,1.7-4.1,4.1-4.1h20c2.2,0,4.1,1.9,4.1,4.1v44.9l37.9-47.3c0.7-0.9,2.2-1.7,3.2-1.7
					h21.5c3.2,0,4.9,3.8,3.1,6.3l-39.9,50l43.5,56.6c1.9,2.6,0,6.3-3.2,6.3h-23.5c-1.2,0-2.7-0.7-3.1-1.2l-39.4-53.6v50.8
					c0,2.2-1.9,4.1-4.1,4.1h-20c-2.4,0-4.1-1.9-4.1-4.1L1190.8,938.4L1190.8,938.4z"/>
				<path class="st25" d="M1307.3,1037.5l8-14.2c1.4-2.2,4.6-1.9,5.8-1c0.7,0.3,13,9.4,24.2,9.4c6.8,0,11.8-4.3,11.8-10.2
					c0-7.2-6-12.6-17.6-17.2c-14.7-5.8-33.1-17.2-33.1-37.7c0-16.9,13.1-34,39.4-34c17.7,0,31.4,9,36.5,12.8c2,1.2,1.7,4.3,1,5.5
					l-8.7,13.1c-1.2,1.9-4.3,3.4-5.8,2.2c-1.5-0.9-14-10.2-24.4-10.2c-6.1,0-10.7,4.1-10.7,8.7c0,6.3,5.1,11.1,18.6,16.5
					c13.3,5.3,34.5,15.7,34.5,38.9c0,17.6-15.2,35.3-40.3,35.3c-22.2,0-34.5-9.2-38.4-13.1C1306.5,1040.6,1306,1039.9,1307.3,1037.5
					z"/>
			</g>
		</g>
	</g>
	<g class="st26">
		<g>
			<path class="st27" d="M616.7,1023.3L616.7,1023.3c11.9-0.1,22.9-7.2,28.7-18.3c-0.2-2.5,0.1-4.8,1-7c0.7-1.8,2.3-4.5,8.1-10.6
				c-1.6-1.7-3.2-3.5-4.9-5.3c-7.3-7.9-15.5-16.9-21.2-19.2c-0.1,0-0.1-0.1-0.2-0.1s-0.1,0-0.2-0.1c-1-0.5-10.3-4.9-21.9-0.9
				c-15.2,5.2-20.1,22.8-20.1,23v0.1c-0.8,4.7-1.2,8.5-1.3,11.8C588.5,1012.2,601.8,1023.3,616.7,1023.3z M599.1,989.5
				c1.5-7.5,8.1-12.9,15.7-12.9c8.9,0,16.1,7.2,16.1,16.1c0,3.1-2.6,5.7-5.7,5.7s-5.7-2.6-5.7-5.7c0-2.6-2.1-4.7-4.7-4.7
				c-2.2,0-4.1,1.6-4.6,3.7c-0.6,3.1-3.6,5.1-6.7,4.5C600.5,995.6,598.5,992.6,599.1,989.5z"/>
			<path class="st27" d="M710,1034.7c-13.5,0-25.9-6.6-34.2-17.1c-2.2,3.5-5.1,7.2-8.8,11.1l-4.1,4.4l-4.1-4.4
				c-3.5-3.7-6.3-7.2-8.4-10.5c-8.3,10.2-20.6,16.5-33.5,16.5c-0.1,0-0.1,0-0.2,0c-10.3,0-19.9-3.8-27.6-10.3c0.4,2.3,0.7,4.8,1,7.5
				c9,10.2,33.2,32.8,72.4,32.8c0.1,0,0.3,0,0.4,0s0.3,0,0.4,0c39.2,0,63.4-22.6,72.4-32.8c0.3-2.4,0.6-4.7,0.9-6.7
				c-7.5,6-16.8,9.5-26.4,9.5C710.2,1034.7,710.1,1034.7,710,1034.7z"/>
			<path class="st27" d="M663,1016.1c4.1-5.1,5.5-8.6,5.9-10.9c-0.6-1.7-1.2-3.4-1.6-5.2c-0.9-1.1-2.2-2.6-4.3-4.8
				c-4.8,5.1-5.7,6.7-5.8,7c-0.2,0.5-0.4,1.4-0.1,3l0,0C657.4,1007.5,658.9,1011,663,1016.1z"/>
			<path class="st27" d="M698.8,919.2c-7.9-3.1-20.6-6.7-35.9-6.8c-15.2,0-27.9,3.7-35.8,6.8c-6.8,2.6-14.1,3.3-21.1,1.9l-27.5-5.4
				c1.3,2.8,2.4,5.3,3.4,7.5c3.7,8.3,5.2,11.2,9.3,13.3c0,0,0.1,0,0.1,0.1h0.1c0.2,0.1,0.3,0.2,0.4,0.3c0.1,0.1,0.3,0.2,0.4,0.3
				c0.2,0.1,0.3,0.3,0.5,0.4c0.1,0.1,0.2,0.2,0.3,0.3c0.1,0.2,0.3,0.4,0.4,0.6c0.1,0.1,0.2,0.2,0.2,0.3c0.1,0.2,0.2,0.4,0.3,0.7
				c0,0.1,0.1,0.2,0.1,0.3c0.1,0.2,0.1,0.5,0.2,0.7c0,0.1,0.1,0.2,0.1,0.3c0,0.3,0,0.5,0,0.8c0,0.1,0,0.2,0,0.3
				c0,0.3-0.1,0.5-0.1,0.8c0,0.1,0,0.2-0.1,0.3c-0.1,0.3-0.2,0.5-0.3,0.8c0,0.1-0.1,0.2-0.1,0.3l0,0c0,0,0,0.1-0.1,0.1
				c-3,5.6-4.7,10.9-5.6,15.7c3.8-3.6,8.5-6.9,14.4-8.9c15.7-5.4,28.3,0.3,30.7,1.5l0,0c7.9,3.4,16.5,12.8,24.8,21.9
				c1.7,1.8,3.3,3.6,4.8,5.2c1.6-1.7,3.2-3.4,4.8-5.2c8.3-9.1,16.9-18.4,24.8-21.9l0,0c2.4-1.2,15-6.9,30.7-1.5
				c5.9,2,10.6,5.3,14.4,8.9c-0.9-4.8-2.6-10.1-5.6-15.7c0,0,0-0.1-0.1-0.1l0,0c0-0.1-0.1-0.2-0.1-0.3c-0.1-0.3-0.2-0.5-0.3-0.8
				c0-0.1,0-0.2-0.1-0.3c-0.1-0.3-0.1-0.5-0.1-0.8c0-0.1,0-0.2,0-0.3c0-0.3,0-0.5,0-0.8c0-0.1,0-0.2,0.1-0.3c0-0.2,0.1-0.5,0.2-0.7
				c0-0.1,0.1-0.2,0.1-0.3c0.1-0.2,0.2-0.4,0.3-0.7c0.1-0.1,0.1-0.2,0.2-0.3c0.1-0.2,0.2-0.4,0.4-0.6c0.1-0.1,0.2-0.2,0.3-0.3
				c0.2-0.2,0.3-0.3,0.5-0.4c0.1-0.1,0.3-0.2,0.4-0.3c0.1-0.1,0.3-0.2,0.4-0.3h0.1h0.1c4.2-2.1,5.7-5,9.3-13.3
				c1-2.2,2.1-4.7,3.4-7.5l-27.5,5.4C712.9,922.4,705.6,921.8,698.8,919.2z"/>
			<path class="st27" d="M739.7,984.9c0-0.2-4.9-17.8-20.1-23c-11.6-4-20.8,0.4-21.9,0.9c-0.1,0-0.1,0-0.2,0.1
				c-0.1,0-0.1,0.1-0.2,0.1c-5.6,2.3-13.9,11.3-21.2,19.2c-1.7,1.8-3.3,3.6-4.9,5.3c2.8,2.9,4.6,5.1,5.8,6.7c0,0,0,0,0.1,0.1
				c1.3,1.8,1.9,2.9,2.3,3.8c0.7,1.7,1,3.5,1,5.3c5.4,11.9,16.9,20,29.6,20h0.1c12.3-0.1,23.8-7.8,29.3-19.6
				c0.3-0.7,0.8-1.3,1.3-1.8c0.4-4.6,0.2-9.5-1.1-16.9C739.7,985,739.7,984.9,739.7,984.9z M722.3,996.3c-3.1,0.6-6.1-1.4-6.7-4.5
				c-0.4-2.2-2.4-3.7-4.6-3.7c-2.6,0-4.7,2.1-4.7,4.7c0,3.1-2.6,5.7-5.7,5.7s-5.7-2.6-5.7-5.7c0-8.9,7.2-16.1,16.1-16.1
				c7.6,0,14.2,5.4,15.7,12.9C727.4,992.6,725.4,995.6,722.3,996.3z"/>
		</g>
		<g>
			<g>
				<path class="st27" d="M135.2,936.7c0-1.7,1.5-3.2,3.2-3.2h20.3c1.9,0,3.2,1.5,3.2,3.2v43h48.8v-43c0-1.7,1.4-3.2,3.2-3.2h20.3
					c1.7,0,3.2,1.5,3.2,3.2v112.9c0,1.7-1.5,3.2-3.2,3.2H214c-1.9,0-3.2-1.5-3.2-3.2v-44.9H162v44.9c0,1.7-1.4,3.2-3.2,3.2h-20.3
					c-1.7,0-3.2-1.5-3.2-3.2L135.2,936.7L135.2,936.7z"/>
				<path class="st27" d="M327.9,931.7c34.1,0,61.4,27.5,61.4,61.6s-27.3,61.2-61.4,61.2s-61.2-27.1-61.2-61.2
					S293.8,931.7,327.9,931.7z M327.9,1027.3c18.8,0,34.1-15.4,34.1-34c0-18.8-15.4-34.3-34.1-34.3c-18.6,0-34,15.5-34,34.3
					C294,1011.9,309.3,1027.3,327.9,1027.3z"/>
				<path class="st27" d="M471.1,931.7c34.1,0,61.4,27.5,61.4,61.6s-27.3,61.2-61.4,61.2s-61.2-27.1-61.2-61.2
					C409.8,959.2,436.9,931.7,471.1,931.7z M471.1,1027.3c18.8,0,34.1-15.4,34.1-34c0-18.8-15.4-34.3-34.1-34.3
					c-18.6,0-34,15.5-34,34.3C437.1,1011.9,452.5,1027.3,471.1,1027.3z"/>
			</g>
			<g>
				<path class="st27" d="M135.2,936.7c0-1.7,1.5-3.2,3.2-3.2h20.3c1.9,0,3.2,1.5,3.2,3.2v43h48.8v-43c0-1.7,1.4-3.2,3.2-3.2h20.3
					c1.7,0,3.2,1.5,3.2,3.2v112.9c0,1.7-1.5,3.2-3.2,3.2H214c-1.9,0-3.2-1.5-3.2-3.2v-44.9H162v44.9c0,1.7-1.4,3.2-3.2,3.2h-20.3
					c-1.7,0-3.2-1.5-3.2-3.2L135.2,936.7L135.2,936.7z"/>
				<path class="st27" d="M327.9,931.7c34.1,0,61.4,27.5,61.4,61.6s-27.3,61.2-61.4,61.2s-61.2-27.1-61.2-61.2
					S293.8,931.7,327.9,931.7z M327.9,1027.3c18.8,0,34.1-15.4,34.1-34c0-18.8-15.4-34.3-34.1-34.3c-18.6,0-34,15.5-34,34.3
					C294,1011.9,309.3,1027.3,327.9,1027.3z"/>
				<path class="st27" d="M471.1,931.7c34.1,0,61.4,27.5,61.4,61.6s-27.3,61.2-61.4,61.2s-61.2-27.1-61.2-61.2
					C409.8,959.2,436.9,931.7,471.1,931.7z M471.1,1027.3c18.8,0,34.1-15.4,34.1-34c0-18.8-15.4-34.3-34.1-34.3
					c-18.6,0-34,15.5-34,34.3C437.1,1011.9,452.5,1027.3,471.1,1027.3z"/>
			</g>
			<g>
				<path class="st27" d="M135.2,936.7c0-1.7,1.5-3.2,3.2-3.2h20.3c1.9,0,3.2,1.5,3.2,3.2v43h48.8v-43c0-1.7,1.4-3.2,3.2-3.2h20.3
					c1.7,0,3.2,1.5,3.2,3.2v112.9c0,1.7-1.5,3.2-3.2,3.2H214c-1.9,0-3.2-1.5-3.2-3.2v-44.9H162v44.9c0,1.7-1.4,3.2-3.2,3.2h-20.3
					c-1.7,0-3.2-1.5-3.2-3.2L135.2,936.7L135.2,936.7z"/>
				<path class="st27" d="M327.9,931.7c34.1,0,61.4,27.5,61.4,61.6s-27.3,61.2-61.4,61.2s-61.2-27.1-61.2-61.2
					S293.8,931.7,327.9,931.7z M327.9,1027.3c18.8,0,34.1-15.4,34.1-34c0-18.8-15.4-34.3-34.1-34.3c-18.6,0-34,15.5-34,34.3
					C294,1011.9,309.3,1027.3,327.9,1027.3z"/>
				<path class="st27" d="M471.1,931.7c34.1,0,61.4,27.5,61.4,61.6s-27.3,61.2-61.4,61.2s-61.2-27.1-61.2-61.2
					C409.8,959.2,436.9,931.7,471.1,931.7z M471.1,1027.3c18.8,0,34.1-15.4,34.1-34c0-18.8-15.4-34.3-34.1-34.3
					c-18.6,0-34,15.5-34,34.3C437.1,1011.9,452.5,1027.3,471.1,1027.3z"/>
			</g>
		</g>
		<g>
			<g>
				<path class="st27" d="M806.8,937.5c0-1.7,1.5-3.2,3.2-3.2h20.3c1.9,0,3.2,1.5,3.2,3.2v43h48.8v-43c0-1.7,1.4-3.2,3.2-3.2h20.3
					c1.7,0,3.2,1.5,3.2,3.2v112.9c0,1.7-1.5,3.2-3.2,3.2h-20.3c-1.9,0-3.2-1.5-3.2-3.2v-44.9h-48.8v44.9c0,1.7-1.4,3.2-3.2,3.2H810
					c-1.7,0-3.2-1.5-3.2-3.2V937.5z"/>
				<path class="st27" d="M931.7,1049.3l53.4-114.8c0.5-1,1.7-1.9,2.9-1.9h1.7c1.2,0,2.4,0.9,2.9,1.9l53.4,114.8
					c1,2.2-0.3,4.4-2.9,4.4h-18.9c-3.1,0-4.4-1-6-4.3l-6.1-13.5h-46.4l-6.1,13.6c-0.9,2-2.7,4.1-6.1,4.1h-18.8
					C932,1053.7,930.6,1051.5,931.7,1049.3z M1001.8,1012.8l-13-28.2h-0.2l-12.8,28.2H1001.8z"/>
				<path class="st27" d="M1120.4,932.6c17.1,0,29.7,5.3,41.3,15.9c1.5,1.4,1.5,3.4,0.2,4.8l-13.3,13.8c-1.2,1.2-3.1,1.2-4.3,0
					c-6.3-5.6-14.7-8.7-23-8.7c-19.3,0-33.4,16-33.4,35.1c0,18.9,14.3,34.6,33.6,34.6c8,0,16.7-2.9,22.9-8.2c1.2-1,3.4-1,4.4,0.2
					l13.3,14.2c1.2,1.2,1,3.4-0.2,4.6c-11.6,11.3-26.3,16.5-41.5,16.5c-34.1,0-61.6-27.1-61.6-61.2
					C1058.8,960,1086.2,932.6,1120.4,932.6z"/>
				<path class="st27" d="M1190.8,938.4c0-2.2,1.7-4.1,4.1-4.1h20c2.2,0,4.1,1.9,4.1,4.1v44.9l37.9-47.3c0.7-0.9,2.2-1.7,3.2-1.7
					h21.5c3.2,0,4.9,3.8,3.1,6.3l-39.9,50l43.5,56.6c1.9,2.6,0,6.3-3.2,6.3h-23.5c-1.2,0-2.7-0.7-3.1-1.2l-39.4-53.6v50.8
					c0,2.2-1.9,4.1-4.1,4.1h-20c-2.4,0-4.1-1.9-4.1-4.1L1190.8,938.4L1190.8,938.4z"/>
				<path class="st27" d="M1307.3,1037.5l8-14.2c1.4-2.2,4.6-1.9,5.8-1c0.7,0.3,13,9.4,24.2,9.4c6.8,0,11.8-4.3,11.8-10.2
					c0-7.2-6-12.6-17.6-17.2c-14.7-5.8-33.1-17.2-33.1-37.7c0-16.9,13.1-34,39.4-34c17.7,0,31.4,9,36.5,12.8c2,1.2,1.7,4.3,1,5.5
					l-8.7,13.1c-1.2,1.9-4.3,3.4-5.8,2.2c-1.5-0.9-14-10.2-24.4-10.2c-6.1,0-10.7,4.1-10.7,8.7c0,6.3,5.1,11.1,18.6,16.5
					c13.3,5.3,34.5,15.7,34.5,38.9c0,17.6-15.2,35.3-40.3,35.3c-22.2,0-34.5-9.2-38.4-13.1C1306.5,1040.6,1306,1039.9,1307.3,1037.5
					z"/>
			</g>
			<g>
				<path class="st27" d="M806.8,937.5c0-1.7,1.5-3.2,3.2-3.2h20.3c1.9,0,3.2,1.5,3.2,3.2v43h48.8v-43c0-1.7,1.4-3.2,3.2-3.2h20.3
					c1.7,0,3.2,1.5,3.2,3.2v112.9c0,1.7-1.5,3.2-3.2,3.2h-20.3c-1.9,0-3.2-1.5-3.2-3.2v-44.9h-48.8v44.9c0,1.7-1.4,3.2-3.2,3.2H810
					c-1.7,0-3.2-1.5-3.2-3.2V937.5z"/>
				<path class="st27" d="M931.7,1049.3l53.4-114.8c0.5-1,1.7-1.9,2.9-1.9h1.7c1.2,0,2.4,0.9,2.9,1.9l53.4,114.8
					c1,2.2-0.3,4.4-2.9,4.4h-18.9c-3.1,0-4.4-1-6-4.3l-6.1-13.5h-46.4l-6.1,13.6c-0.9,2-2.7,4.1-6.1,4.1h-18.8
					C932,1053.7,930.6,1051.5,931.7,1049.3z M1001.8,1012.8l-13-28.2h-0.2l-12.8,28.2H1001.8z"/>
				<path class="st27" d="M1120.4,932.6c17.1,0,29.7,5.3,41.3,15.9c1.5,1.4,1.5,3.4,0.2,4.8l-13.3,13.8c-1.2,1.2-3.1,1.2-4.3,0
					c-6.3-5.6-14.7-8.7-23-8.7c-19.3,0-33.4,16-33.4,35.1c0,18.9,14.3,34.6,33.6,34.6c8,0,16.7-2.9,22.9-8.2c1.2-1,3.4-1,4.4,0.2
					l13.3,14.2c1.2,1.2,1,3.4-0.2,4.6c-11.6,11.3-26.3,16.5-41.5,16.5c-34.1,0-61.6-27.1-61.6-61.2
					C1058.8,960,1086.2,932.6,1120.4,932.6z"/>
				<path class="st27" d="M1190.8,938.4c0-2.2,1.7-4.1,4.1-4.1h20c2.2,0,4.1,1.9,4.1,4.1v44.9l37.9-47.3c0.7-0.9,2.2-1.7,3.2-1.7
					h21.5c3.2,0,4.9,3.8,3.1,6.3l-39.9,50l43.5,56.6c1.9,2.6,0,6.3-3.2,6.3h-23.5c-1.2,0-2.7-0.7-3.1-1.2l-39.4-53.6v50.8
					c0,2.2-1.9,4.1-4.1,4.1h-20c-2.4,0-4.1-1.9-4.1-4.1L1190.8,938.4L1190.8,938.4z"/>
				<path class="st27" d="M1307.3,1037.5l8-14.2c1.4-2.2,4.6-1.9,5.8-1c0.7,0.3,13,9.4,24.2,9.4c6.8,0,11.8-4.3,11.8-10.2
					c0-7.2-6-12.6-17.6-17.2c-14.7-5.8-33.1-17.2-33.1-37.7c0-16.9,13.1-34,39.4-34c17.7,0,31.4,9,36.5,12.8c2,1.2,1.7,4.3,1,5.5
					l-8.7,13.1c-1.2,1.9-4.3,3.4-5.8,2.2c-1.5-0.9-14-10.2-24.4-10.2c-6.1,0-10.7,4.1-10.7,8.7c0,6.3,5.1,11.1,18.6,16.5
					c13.3,5.3,34.5,15.7,34.5,38.9c0,17.6-15.2,35.3-40.3,35.3c-22.2,0-34.5-9.2-38.4-13.1C1306.5,1040.6,1306,1039.9,1307.3,1037.5
					z"/>
			</g>
			<g>
				<path class="st27" d="M806.8,937.5c0-1.7,1.5-3.2,3.2-3.2h20.3c1.9,0,3.2,1.5,3.2,3.2v43h48.8v-43c0-1.7,1.4-3.2,3.2-3.2h20.3
					c1.7,0,3.2,1.5,3.2,3.2v112.9c0,1.7-1.5,3.2-3.2,3.2h-20.3c-1.9,0-3.2-1.5-3.2-3.2v-44.9h-48.8v44.9c0,1.7-1.4,3.2-3.2,3.2H810
					c-1.7,0-3.2-1.5-3.2-3.2V937.5z"/>
				<path class="st27" d="M931.7,1049.3l53.4-114.8c0.5-1,1.7-1.9,2.9-1.9h1.7c1.2,0,2.4,0.9,2.9,1.9l53.4,114.8
					c1,2.2-0.3,4.4-2.9,4.4h-18.9c-3.1,0-4.4-1-6-4.3l-6.1-13.5h-46.4l-6.1,13.6c-0.9,2-2.7,4.1-6.1,4.1h-18.8
					C932,1053.7,930.6,1051.5,931.7,1049.3z M1001.8,1012.8l-13-28.2h-0.2l-12.8,28.2H1001.8z"/>
				<path class="st27" d="M1120.4,932.6c17.1,0,29.7,5.3,41.3,15.9c1.5,1.4,1.5,3.4,0.2,4.8l-13.3,13.8c-1.2,1.2-3.1,1.2-4.3,0
					c-6.3-5.6-14.7-8.7-23-8.7c-19.3,0-33.4,16-33.4,35.1c0,18.9,14.3,34.6,33.6,34.6c8,0,16.7-2.9,22.9-8.2c1.2-1,3.4-1,4.4,0.2
					l13.3,14.2c1.2,1.2,1,3.4-0.2,4.6c-11.6,11.3-26.3,16.5-41.5,16.5c-34.1,0-61.6-27.1-61.6-61.2
					C1058.8,960,1086.2,932.6,1120.4,932.6z"/>
				<path class="st27" d="M1190.8,938.4c0-2.2,1.7-4.1,4.1-4.1h20c2.2,0,4.1,1.9,4.1,4.1v44.9l37.9-47.3c0.7-0.9,2.2-1.7,3.2-1.7
					h21.5c3.2,0,4.9,3.8,3.1,6.3l-39.9,50l43.5,56.6c1.9,2.6,0,6.3-3.2,6.3h-23.5c-1.2,0-2.7-0.7-3.1-1.2l-39.4-53.6v50.8
					c0,2.2-1.9,4.1-4.1,4.1h-20c-2.4,0-4.1-1.9-4.1-4.1L1190.8,938.4L1190.8,938.4z"/>
				<path class="st27" d="M1307.3,1037.5l8-14.2c1.4-2.2,4.6-1.9,5.8-1c0.7,0.3,13,9.4,24.2,9.4c6.8,0,11.8-4.3,11.8-10.2
					c0-7.2-6-12.6-17.6-17.2c-14.7-5.8-33.1-17.2-33.1-37.7c0-16.9,13.1-34,39.4-34c17.7,0,31.4,9,36.5,12.8c2,1.2,1.7,4.3,1,5.5
					l-8.7,13.1c-1.2,1.9-4.3,3.4-5.8,2.2c-1.5-0.9-14-10.2-24.4-10.2c-6.1,0-10.7,4.1-10.7,8.7c0,6.3,5.1,11.1,18.6,16.5
					c13.3,5.3,34.5,15.7,34.5,38.9c0,17.6-15.2,35.3-40.3,35.3c-22.2,0-34.5-9.2-38.4-13.1C1306.5,1040.6,1306,1039.9,1307.3,1037.5
					z"/>
			</g>
		</g>
	</g>
	<g class="st26">
		<g>
			<path class="st28" d="M616.7,1023.3L616.7,1023.3c11.9-0.1,22.9-7.2,28.7-18.3c-0.2-2.5,0.1-4.8,1-7c0.7-1.8,2.3-4.5,8.1-10.6
				c-1.6-1.7-3.2-3.5-4.9-5.3c-7.3-7.9-15.5-16.9-21.2-19.2c-0.1,0-0.1-0.1-0.2-0.1s-0.1,0-0.2-0.1c-1-0.5-10.3-4.9-21.9-0.9
				c-15.2,5.2-20.1,22.8-20.1,23v0.1c-0.8,4.7-1.2,8.5-1.3,11.8C588.5,1012.2,601.8,1023.3,616.7,1023.3z M599.1,989.5
				c1.5-7.5,8.1-12.9,15.7-12.9c8.9,0,16.1,7.2,16.1,16.1c0,3.1-2.6,5.7-5.7,5.7s-5.7-2.6-5.7-5.7c0-2.6-2.1-4.7-4.7-4.7
				c-2.2,0-4.1,1.6-4.6,3.7c-0.6,3.1-3.6,5.1-6.7,4.5C600.5,995.6,598.5,992.6,599.1,989.5z"/>
			<path class="st28" d="M710,1034.7c-13.5,0-25.9-6.6-34.2-17.1c-2.2,3.5-5.1,7.2-8.8,11.1l-4.1,4.4l-4.1-4.4
				c-3.5-3.7-6.3-7.2-8.4-10.5c-8.3,10.2-20.6,16.5-33.5,16.5c-0.1,0-0.1,0-0.2,0c-10.3,0-19.9-3.8-27.6-10.3c0.4,2.3,0.7,4.8,1,7.5
				c9,10.2,33.2,32.8,72.4,32.8c0.1,0,0.3,0,0.4,0s0.3,0,0.4,0c39.2,0,63.4-22.6,72.4-32.8c0.3-2.4,0.6-4.7,0.9-6.7
				c-7.5,6-16.8,9.5-26.4,9.5C710.2,1034.7,710.1,1034.7,710,1034.7z"/>
			<path class="st28" d="M663,1016.1c4.1-5.1,5.5-8.6,5.9-10.9c-0.6-1.7-1.2-3.4-1.6-5.2c-0.9-1.1-2.2-2.6-4.3-4.8
				c-4.8,5.1-5.7,6.7-5.8,7c-0.2,0.5-0.4,1.4-0.1,3l0,0C657.4,1007.5,658.9,1011,663,1016.1z"/>
			<path class="st28" d="M698.8,919.2c-7.9-3.1-20.6-6.7-35.9-6.8c-15.2,0-27.9,3.7-35.8,6.8c-6.8,2.6-14.1,3.3-21.1,1.9l-27.5-5.4
				c1.3,2.8,2.4,5.3,3.4,7.5c3.7,8.3,5.2,11.2,9.3,13.3c0,0,0.1,0,0.1,0.1h0.1c0.2,0.1,0.3,0.2,0.4,0.3c0.1,0.1,0.3,0.2,0.4,0.3
				c0.2,0.1,0.3,0.3,0.5,0.4c0.1,0.1,0.2,0.2,0.3,0.3c0.1,0.2,0.3,0.4,0.4,0.6c0.1,0.1,0.2,0.2,0.2,0.3c0.1,0.2,0.2,0.4,0.3,0.7
				c0,0.1,0.1,0.2,0.1,0.3c0.1,0.2,0.1,0.5,0.2,0.7c0,0.1,0.1,0.2,0.1,0.3c0,0.3,0,0.5,0,0.8c0,0.1,0,0.2,0,0.3
				c0,0.3-0.1,0.5-0.1,0.8c0,0.1,0,0.2-0.1,0.3c-0.1,0.3-0.2,0.5-0.3,0.8c0,0.1-0.1,0.2-0.1,0.3l0,0c0,0,0,0.1-0.1,0.1
				c-3,5.6-4.7,10.9-5.6,15.7c3.8-3.6,8.5-6.9,14.4-8.9c15.7-5.4,28.3,0.3,30.7,1.5l0,0c7.9,3.4,16.5,12.8,24.8,21.9
				c1.7,1.8,3.3,3.6,4.8,5.2c1.6-1.7,3.2-3.4,4.8-5.2c8.3-9.1,16.9-18.4,24.8-21.9l0,0c2.4-1.2,15-6.9,30.7-1.5
				c5.9,2,10.6,5.3,14.4,8.9c-0.9-4.8-2.6-10.1-5.6-15.7c0,0,0-0.1-0.1-0.1l0,0c0-0.1-0.1-0.2-0.1-0.3c-0.1-0.3-0.2-0.5-0.3-0.8
				c0-0.1,0-0.2-0.1-0.3c-0.1-0.3-0.1-0.5-0.1-0.8c0-0.1,0-0.2,0-0.3c0-0.3,0-0.5,0-0.8c0-0.1,0-0.2,0.1-0.3c0-0.2,0.1-0.5,0.2-0.7
				c0-0.1,0.1-0.2,0.1-0.3c0.1-0.2,0.2-0.4,0.3-0.7c0.1-0.1,0.1-0.2,0.2-0.3c0.1-0.2,0.2-0.4,0.4-0.6c0.1-0.1,0.2-0.2,0.3-0.3
				c0.2-0.2,0.3-0.3,0.5-0.4c0.1-0.1,0.3-0.2,0.4-0.3c0.1-0.1,0.3-0.2,0.4-0.3h0.1h0.1c4.2-2.1,5.7-5,9.3-13.3
				c1-2.2,2.1-4.7,3.4-7.5l-27.5,5.4C712.9,922.4,705.6,921.8,698.8,919.2z"/>
			<path class="st28" d="M739.7,984.9c0-0.2-4.9-17.8-20.1-23c-11.6-4-20.8,0.4-21.9,0.9c-0.1,0-0.1,0-0.2,0.1
				c-0.1,0-0.1,0.1-0.2,0.1c-5.6,2.3-13.9,11.3-21.2,19.2c-1.7,1.8-3.3,3.6-4.9,5.3c2.8,2.9,4.6,5.1,5.8,6.7c0,0,0,0,0.1,0.1
				c1.3,1.8,1.9,2.9,2.3,3.8c0.7,1.7,1,3.5,1,5.3c5.4,11.9,16.9,20,29.6,20h0.1c12.3-0.1,23.8-7.8,29.3-19.6
				c0.3-0.7,0.8-1.3,1.3-1.8c0.4-4.6,0.2-9.5-1.1-16.9C739.7,985,739.7,984.9,739.7,984.9z M722.3,996.3c-3.1,0.6-6.1-1.4-6.7-4.5
				c-0.4-2.2-2.4-3.7-4.6-3.7c-2.6,0-4.7,2.1-4.7,4.7c0,3.1-2.6,5.7-5.7,5.7s-5.7-2.6-5.7-5.7c0-8.9,7.2-16.1,16.1-16.1
				c7.6,0,14.2,5.4,15.7,12.9C727.4,992.6,725.4,995.6,722.3,996.3z"/>
		</g>
		<g>
			<g>
				<path class="st28" d="M135.2,936.7c0-1.7,1.5-3.2,3.2-3.2h20.3c1.9,0,3.2,1.5,3.2,3.2v43h48.8v-43c0-1.7,1.4-3.2,3.2-3.2h20.3
					c1.7,0,3.2,1.5,3.2,3.2v112.9c0,1.7-1.5,3.2-3.2,3.2H214c-1.9,0-3.2-1.5-3.2-3.2v-44.9H162v44.9c0,1.7-1.4,3.2-3.2,3.2h-20.3
					c-1.7,0-3.2-1.5-3.2-3.2L135.2,936.7L135.2,936.7z"/>
				<path class="st28" d="M327.9,931.7c34.1,0,61.4,27.5,61.4,61.6s-27.3,61.2-61.4,61.2s-61.2-27.1-61.2-61.2
					S293.8,931.7,327.9,931.7z M327.9,1027.3c18.8,0,34.1-15.4,34.1-34c0-18.8-15.4-34.3-34.1-34.3c-18.6,0-34,15.5-34,34.3
					C294,1011.9,309.3,1027.3,327.9,1027.3z"/>
				<path class="st28" d="M471.1,931.7c34.1,0,61.4,27.5,61.4,61.6s-27.3,61.2-61.4,61.2s-61.2-27.1-61.2-61.2
					C409.8,959.2,436.9,931.7,471.1,931.7z M471.1,1027.3c18.8,0,34.1-15.4,34.1-34c0-18.8-15.4-34.3-34.1-34.3
					c-18.6,0-34,15.5-34,34.3C437.1,1011.9,452.5,1027.3,471.1,1027.3z"/>
			</g>
			<g>
				<path class="st28" d="M135.2,936.7c0-1.7,1.5-3.2,3.2-3.2h20.3c1.9,0,3.2,1.5,3.2,3.2v43h48.8v-43c0-1.7,1.4-3.2,3.2-3.2h20.3
					c1.7,0,3.2,1.5,3.2,3.2v112.9c0,1.7-1.5,3.2-3.2,3.2H214c-1.9,0-3.2-1.5-3.2-3.2v-44.9H162v44.9c0,1.7-1.4,3.2-3.2,3.2h-20.3
					c-1.7,0-3.2-1.5-3.2-3.2L135.2,936.7L135.2,936.7z"/>
				<path class="st28" d="M327.9,931.7c34.1,0,61.4,27.5,61.4,61.6s-27.3,61.2-61.4,61.2s-61.2-27.1-61.2-61.2
					S293.8,931.7,327.9,931.7z M327.9,1027.3c18.8,0,34.1-15.4,34.1-34c0-18.8-15.4-34.3-34.1-34.3c-18.6,0-34,15.5-34,34.3
					C294,1011.9,309.3,1027.3,327.9,1027.3z"/>
				<path class="st28" d="M471.1,931.7c34.1,0,61.4,27.5,61.4,61.6s-27.3,61.2-61.4,61.2s-61.2-27.1-61.2-61.2
					C409.8,959.2,436.9,931.7,471.1,931.7z M471.1,1027.3c18.8,0,34.1-15.4,34.1-34c0-18.8-15.4-34.3-34.1-34.3
					c-18.6,0-34,15.5-34,34.3C437.1,1011.9,452.5,1027.3,471.1,1027.3z"/>
			</g>
			<g>
				<path class="st28" d="M135.2,936.7c0-1.7,1.5-3.2,3.2-3.2h20.3c1.9,0,3.2,1.5,3.2,3.2v43h48.8v-43c0-1.7,1.4-3.2,3.2-3.2h20.3
					c1.7,0,3.2,1.5,3.2,3.2v112.9c0,1.7-1.5,3.2-3.2,3.2H214c-1.9,0-3.2-1.5-3.2-3.2v-44.9H162v44.9c0,1.7-1.4,3.2-3.2,3.2h-20.3
					c-1.7,0-3.2-1.5-3.2-3.2L135.2,936.7L135.2,936.7z"/>
				<path class="st28" d="M327.9,931.7c34.1,0,61.4,27.5,61.4,61.6s-27.3,61.2-61.4,61.2s-61.2-27.1-61.2-61.2
					S293.8,931.7,327.9,931.7z M327.9,1027.3c18.8,0,34.1-15.4,34.1-34c0-18.8-15.4-34.3-34.1-34.3c-18.6,0-34,15.5-34,34.3
					C294,1011.9,309.3,1027.3,327.9,1027.3z"/>
				<path class="st28" d="M471.1,931.7c34.1,0,61.4,27.5,61.4,61.6s-27.3,61.2-61.4,61.2s-61.2-27.1-61.2-61.2
					C409.8,959.2,436.9,931.7,471.1,931.7z M471.1,1027.3c18.8,0,34.1-15.4,34.1-34c0-18.8-15.4-34.3-34.1-34.3
					c-18.6,0-34,15.5-34,34.3C437.1,1011.9,452.5,1027.3,471.1,1027.3z"/>
			</g>
		</g>
		<g>
			<g>
				<path class="st28" d="M806.8,937.5c0-1.7,1.5-3.2,3.2-3.2h20.3c1.9,0,3.2,1.5,3.2,3.2v43h48.8v-43c0-1.7,1.4-3.2,3.2-3.2h20.3
					c1.7,0,3.2,1.5,3.2,3.2v112.9c0,1.7-1.5,3.2-3.2,3.2h-20.3c-1.9,0-3.2-1.5-3.2-3.2v-44.9h-48.8v44.9c0,1.7-1.4,3.2-3.2,3.2H810
					c-1.7,0-3.2-1.5-3.2-3.2V937.5z"/>
				<path class="st28" d="M931.7,1049.3l53.4-114.8c0.5-1,1.7-1.9,2.9-1.9h1.7c1.2,0,2.4,0.9,2.9,1.9l53.4,114.8
					c1,2.2-0.3,4.4-2.9,4.4h-18.9c-3.1,0-4.4-1-6-4.3l-6.1-13.5h-46.4l-6.1,13.6c-0.9,2-2.7,4.1-6.1,4.1h-18.8
					C932,1053.7,930.6,1051.5,931.7,1049.3z M1001.8,1012.8l-13-28.2h-0.2l-12.8,28.2H1001.8z"/>
				<path class="st28" d="M1120.4,932.6c17.1,0,29.7,5.3,41.3,15.9c1.5,1.4,1.5,3.4,0.2,4.8l-13.3,13.8c-1.2,1.2-3.1,1.2-4.3,0
					c-6.3-5.6-14.7-8.7-23-8.7c-19.3,0-33.4,16-33.4,35.1c0,18.9,14.3,34.6,33.6,34.6c8,0,16.7-2.9,22.9-8.2c1.2-1,3.4-1,4.4,0.2
					l13.3,14.2c1.2,1.2,1,3.4-0.2,4.6c-11.6,11.3-26.3,16.5-41.5,16.5c-34.1,0-61.6-27.1-61.6-61.2
					C1058.8,960,1086.2,932.6,1120.4,932.6z"/>
				<path class="st28" d="M1190.8,938.4c0-2.2,1.7-4.1,4.1-4.1h20c2.2,0,4.1,1.9,4.1,4.1v44.9l37.9-47.3c0.7-0.9,2.2-1.7,3.2-1.7
					h21.5c3.2,0,4.9,3.8,3.1,6.3l-39.9,50l43.5,56.6c1.9,2.6,0,6.3-3.2,6.3h-23.5c-1.2,0-2.7-0.7-3.1-1.2l-39.4-53.6v50.8
					c0,2.2-1.9,4.1-4.1,4.1h-20c-2.4,0-4.1-1.9-4.1-4.1L1190.8,938.4L1190.8,938.4z"/>
				<path class="st28" d="M1307.3,1037.5l8-14.2c1.4-2.2,4.6-1.9,5.8-1c0.7,0.3,13,9.4,24.2,9.4c6.8,0,11.8-4.3,11.8-10.2
					c0-7.2-6-12.6-17.6-17.2c-14.7-5.8-33.1-17.2-33.1-37.7c0-16.9,13.1-34,39.4-34c17.7,0,31.4,9,36.5,12.8c2,1.2,1.7,4.3,1,5.5
					l-8.7,13.1c-1.2,1.9-4.3,3.4-5.8,2.2c-1.5-0.9-14-10.2-24.4-10.2c-6.1,0-10.7,4.1-10.7,8.7c0,6.3,5.1,11.1,18.6,16.5
					c13.3,5.3,34.5,15.7,34.5,38.9c0,17.6-15.2,35.3-40.3,35.3c-22.2,0-34.5-9.2-38.4-13.1C1306.5,1040.6,1306,1039.9,1307.3,1037.5
					z"/>
			</g>
			<g>
				<path class="st28" d="M806.8,937.5c0-1.7,1.5-3.2,3.2-3.2h20.3c1.9,0,3.2,1.5,3.2,3.2v43h48.8v-43c0-1.7,1.4-3.2,3.2-3.2h20.3
					c1.7,0,3.2,1.5,3.2,3.2v112.9c0,1.7-1.5,3.2-3.2,3.2h-20.3c-1.9,0-3.2-1.5-3.2-3.2v-44.9h-48.8v44.9c0,1.7-1.4,3.2-3.2,3.2H810
					c-1.7,0-3.2-1.5-3.2-3.2V937.5z"/>
				<path class="st28" d="M931.7,1049.3l53.4-114.8c0.5-1,1.7-1.9,2.9-1.9h1.7c1.2,0,2.4,0.9,2.9,1.9l53.4,114.8
					c1,2.2-0.3,4.4-2.9,4.4h-18.9c-3.1,0-4.4-1-6-4.3l-6.1-13.5h-46.4l-6.1,13.6c-0.9,2-2.7,4.1-6.1,4.1h-18.8
					C932,1053.7,930.6,1051.5,931.7,1049.3z M1001.8,1012.8l-13-28.2h-0.2l-12.8,28.2H1001.8z"/>
				<path class="st28" d="M1120.4,932.6c17.1,0,29.7,5.3,41.3,15.9c1.5,1.4,1.5,3.4,0.2,4.8l-13.3,13.8c-1.2,1.2-3.1,1.2-4.3,0
					c-6.3-5.6-14.7-8.7-23-8.7c-19.3,0-33.4,16-33.4,35.1c0,18.9,14.3,34.6,33.6,34.6c8,0,16.7-2.9,22.9-8.2c1.2-1,3.4-1,4.4,0.2
					l13.3,14.2c1.2,1.2,1,3.4-0.2,4.6c-11.6,11.3-26.3,16.5-41.5,16.5c-34.1,0-61.6-27.1-61.6-61.2
					C1058.8,960,1086.2,932.6,1120.4,932.6z"/>
				<path class="st28" d="M1190.8,938.4c0-2.2,1.7-4.1,4.1-4.1h20c2.2,0,4.1,1.9,4.1,4.1v44.9l37.9-47.3c0.7-0.9,2.2-1.7,3.2-1.7
					h21.5c3.2,0,4.9,3.8,3.1,6.3l-39.9,50l43.5,56.6c1.9,2.6,0,6.3-3.2,6.3h-23.5c-1.2,0-2.7-0.7-3.1-1.2l-39.4-53.6v50.8
					c0,2.2-1.9,4.1-4.1,4.1h-20c-2.4,0-4.1-1.9-4.1-4.1L1190.8,938.4L1190.8,938.4z"/>
				<path class="st28" d="M1307.3,1037.5l8-14.2c1.4-2.2,4.6-1.9,5.8-1c0.7,0.3,13,9.4,24.2,9.4c6.8,0,11.8-4.3,11.8-10.2
					c0-7.2-6-12.6-17.6-17.2c-14.7-5.8-33.1-17.2-33.1-37.7c0-16.9,13.1-34,39.4-34c17.7,0,31.4,9,36.5,12.8c2,1.2,1.7,4.3,1,5.5
					l-8.7,13.1c-1.2,1.9-4.3,3.4-5.8,2.2c-1.5-0.9-14-10.2-24.4-10.2c-6.1,0-10.7,4.1-10.7,8.7c0,6.3,5.1,11.1,18.6,16.5
					c13.3,5.3,34.5,15.7,34.5,38.9c0,17.6-15.2,35.3-40.3,35.3c-22.2,0-34.5-9.2-38.4-13.1C1306.5,1040.6,1306,1039.9,1307.3,1037.5
					z"/>
			</g>
			<g>
				<path class="st28" d="M806.8,937.5c0-1.7,1.5-3.2,3.2-3.2h20.3c1.9,0,3.2,1.5,3.2,3.2v43h48.8v-43c0-1.7,1.4-3.2,3.2-3.2h20.3
					c1.7,0,3.2,1.5,3.2,3.2v112.9c0,1.7-1.5,3.2-3.2,3.2h-20.3c-1.9,0-3.2-1.5-3.2-3.2v-44.9h-48.8v44.9c0,1.7-1.4,3.2-3.2,3.2H810
					c-1.7,0-3.2-1.5-3.2-3.2V937.5z"/>
				<path class="st28" d="M931.7,1049.3l53.4-114.8c0.5-1,1.7-1.9,2.9-1.9h1.7c1.2,0,2.4,0.9,2.9,1.9l53.4,114.8
					c1,2.2-0.3,4.4-2.9,4.4h-18.9c-3.1,0-4.4-1-6-4.3l-6.1-13.5h-46.4l-6.1,13.6c-0.9,2-2.7,4.1-6.1,4.1h-18.8
					C932,1053.7,930.6,1051.5,931.7,1049.3z M1001.8,1012.8l-13-28.2h-0.2l-12.8,28.2H1001.8z"/>
				<path class="st28" d="M1120.4,932.6c17.1,0,29.7,5.3,41.3,15.9c1.5,1.4,1.5,3.4,0.2,4.8l-13.3,13.8c-1.2,1.2-3.1,1.2-4.3,0
					c-6.3-5.6-14.7-8.7-23-8.7c-19.3,0-33.4,16-33.4,35.1c0,18.9,14.3,34.6,33.6,34.6c8,0,16.7-2.9,22.9-8.2c1.2-1,3.4-1,4.4,0.2
					l13.3,14.2c1.2,1.2,1,3.4-0.2,4.6c-11.6,11.3-26.3,16.5-41.5,16.5c-34.1,0-61.6-27.1-61.6-61.2
					C1058.8,960,1086.2,932.6,1120.4,932.6z"/>
				<path class="st28" d="M1190.8,938.4c0-2.2,1.7-4.1,4.1-4.1h20c2.2,0,4.1,1.9,4.1,4.1v44.9l37.9-47.3c0.7-0.9,2.2-1.7,3.2-1.7
					h21.5c3.2,0,4.9,3.8,3.1,6.3l-39.9,50l43.5,56.6c1.9,2.6,0,6.3-3.2,6.3h-23.5c-1.2,0-2.7-0.7-3.1-1.2l-39.4-53.6v50.8
					c0,2.2-1.9,4.1-4.1,4.1h-20c-2.4,0-4.1-1.9-4.1-4.1L1190.8,938.4L1190.8,938.4z"/>
				<path class="st28" d="M1307.3,1037.5l8-14.2c1.4-2.2,4.6-1.9,5.8-1c0.7,0.3,13,9.4,24.2,9.4c6.8,0,11.8-4.3,11.8-10.2
					c0-7.2-6-12.6-17.6-17.2c-14.7-5.8-33.1-17.2-33.1-37.7c0-16.9,13.1-34,39.4-34c17.7,0,31.4,9,36.5,12.8c2,1.2,1.7,4.3,1,5.5
					l-8.7,13.1c-1.2,1.9-4.3,3.4-5.8,2.2c-1.5-0.9-14-10.2-24.4-10.2c-6.1,0-10.7,4.1-10.7,8.7c0,6.3,5.1,11.1,18.6,16.5
					c13.3,5.3,34.5,15.7,34.5,38.9c0,17.6-15.2,35.3-40.3,35.3c-22.2,0-34.5-9.2-38.4-13.1C1306.5,1040.6,1306,1039.9,1307.3,1037.5
					z"/>
			</g>
		</g>
	</g>
	<g>
		<g>
			<path class="st0" d="M616.7,1023.3L616.7,1023.3c11.9-0.1,22.9-7.2,28.7-18.3c-0.2-2.5,0.1-4.8,1-7c0.7-1.8,2.3-4.5,8.1-10.6
				c-1.6-1.7-3.2-3.5-4.9-5.3c-7.3-7.9-15.5-16.9-21.2-19.2c-0.1,0-0.1-0.1-0.2-0.1s-0.1,0-0.2-0.1c-1-0.5-10.3-4.9-21.9-0.9
				c-15.2,5.2-20.1,22.8-20.1,23v0.1c-0.8,4.7-1.2,8.5-1.3,11.8C588.5,1012.2,601.8,1023.3,616.7,1023.3z M599.1,989.5
				c1.5-7.5,8.1-12.9,15.7-12.9c8.9,0,16.1,7.2,16.1,16.1c0,3.1-2.6,5.7-5.7,5.7s-5.7-2.6-5.7-5.7c0-2.6-2.1-4.7-4.7-4.7
				c-2.2,0-4.1,1.6-4.6,3.7c-0.6,3.1-3.6,5.1-6.7,4.5C600.5,995.6,598.5,992.6,599.1,989.5z"/>
			<path class="st0" d="M710,1034.7c-13.5,0-25.9-6.6-34.2-17.1c-2.2,3.5-5.1,7.2-8.8,11.1l-4.1,4.4l-4.1-4.4
				c-3.5-3.7-6.3-7.2-8.4-10.5c-8.3,10.2-20.6,16.5-33.5,16.5c-0.1,0-0.1,0-0.2,0c-10.3,0-19.9-3.8-27.6-10.3c0.4,2.3,0.7,4.8,1,7.5
				c9,10.2,33.2,32.8,72.4,32.8c0.1,0,0.3,0,0.4,0s0.3,0,0.4,0c39.2,0,63.4-22.6,72.4-32.8c0.3-2.4,0.6-4.7,0.9-6.7
				c-7.5,6-16.8,9.5-26.4,9.5C710.2,1034.7,710.1,1034.7,710,1034.7z"/>
			<path class="st0" d="M663,1016.1c4.1-5.1,5.5-8.6,5.9-10.9c-0.6-1.7-1.2-3.4-1.6-5.2c-0.9-1.1-2.2-2.6-4.3-4.8
				c-4.8,5.1-5.7,6.7-5.8,7c-0.2,0.5-0.4,1.4-0.1,3l0,0C657.4,1007.5,658.9,1011,663,1016.1z"/>
			<path class="st0" d="M698.8,919.2c-7.9-3.1-20.6-6.7-35.9-6.8c-15.2,0-27.9,3.7-35.8,6.8c-6.8,2.6-14.1,3.3-21.1,1.9l-27.5-5.4
				c1.3,2.8,2.4,5.3,3.4,7.5c3.7,8.3,5.2,11.2,9.3,13.3c0,0,0.1,0,0.1,0.1h0.1c0.2,0.1,0.3,0.2,0.4,0.3c0.1,0.1,0.3,0.2,0.4,0.3
				c0.2,0.1,0.3,0.3,0.5,0.4c0.1,0.1,0.2,0.2,0.3,0.3c0.1,0.2,0.3,0.4,0.4,0.6c0.1,0.1,0.2,0.2,0.2,0.3c0.1,0.2,0.2,0.4,0.3,0.7
				c0,0.1,0.1,0.2,0.1,0.3c0.1,0.2,0.1,0.5,0.2,0.7c0,0.1,0.1,0.2,0.1,0.3c0,0.3,0,0.5,0,0.8c0,0.1,0,0.2,0,0.3
				c0,0.3-0.1,0.5-0.1,0.8c0,0.1,0,0.2-0.1,0.3c-0.1,0.3-0.2,0.5-0.3,0.8c0,0.1-0.1,0.2-0.1,0.3l0,0c0,0,0,0.1-0.1,0.1
				c-3,5.6-4.7,10.9-5.6,15.7c3.8-3.6,8.5-6.9,14.4-8.9c15.7-5.4,28.3,0.3,30.7,1.5l0,0c7.9,3.4,16.5,12.8,24.8,21.9
				c1.7,1.8,3.3,3.6,4.8,5.2c1.6-1.7,3.2-3.4,4.8-5.2c8.3-9.1,16.9-18.4,24.8-21.9l0,0c2.4-1.2,15-6.9,30.7-1.5
				c5.9,2,10.6,5.3,14.4,8.9c-0.9-4.8-2.6-10.1-5.6-15.7c0,0,0-0.1-0.1-0.1l0,0c0-0.1-0.1-0.2-0.1-0.3c-0.1-0.3-0.2-0.5-0.3-0.8
				c0-0.1,0-0.2-0.1-0.3c-0.1-0.3-0.1-0.5-0.1-0.8c0-0.1,0-0.2,0-0.3c0-0.3,0-0.5,0-0.8c0-0.1,0-0.2,0.1-0.3c0-0.2,0.1-0.5,0.2-0.7
				c0-0.1,0.1-0.2,0.1-0.3c0.1-0.2,0.2-0.4,0.3-0.7c0.1-0.1,0.1-0.2,0.2-0.3c0.1-0.2,0.2-0.4,0.4-0.6c0.1-0.1,0.2-0.2,0.3-0.3
				c0.2-0.2,0.3-0.3,0.5-0.4c0.1-0.1,0.3-0.2,0.4-0.3c0.1-0.1,0.3-0.2,0.4-0.3h0.1h0.1c4.2-2.1,5.7-5,9.3-13.3
				c1-2.2,2.1-4.7,3.4-7.5l-27.5,5.4C712.9,922.4,705.6,921.8,698.8,919.2z"/>
			<path class="st0" d="M739.7,984.9c0-0.2-4.9-17.8-20.1-23c-11.6-4-20.8,0.4-21.9,0.9c-0.1,0-0.1,0-0.2,0.1
				c-0.1,0-0.1,0.1-0.2,0.1c-5.6,2.3-13.9,11.3-21.2,19.2c-1.7,1.8-3.3,3.6-4.9,5.3c2.8,2.9,4.6,5.1,5.8,6.7c0,0,0,0,0.1,0.1
				c1.3,1.8,1.9,2.9,2.3,3.8c0.7,1.7,1,3.5,1,5.3c5.4,11.9,16.9,20,29.6,20h0.1c12.3-0.1,23.8-7.8,29.3-19.6
				c0.3-0.7,0.8-1.3,1.3-1.8c0.4-4.6,0.2-9.5-1.1-16.9C739.7,985,739.7,984.9,739.7,984.9z M722.3,996.3c-3.1,0.6-6.1-1.4-6.7-4.5
				c-0.4-2.2-2.4-3.7-4.6-3.7c-2.6,0-4.7,2.1-4.7,4.7c0,3.1-2.6,5.7-5.7,5.7s-5.7-2.6-5.7-5.7c0-8.9,7.2-16.1,16.1-16.1
				c7.6,0,14.2,5.4,15.7,12.9C727.4,992.6,725.4,995.6,722.3,996.3z"/>
		</g>
		<g>
			<g>
				<path class="st0" d="M135.2,936.7c0-1.7,1.5-3.2,3.2-3.2h20.3c1.9,0,3.2,1.5,3.2,3.2v43h48.8v-43c0-1.7,1.4-3.2,3.2-3.2h20.3
					c1.7,0,3.2,1.5,3.2,3.2v112.9c0,1.7-1.5,3.2-3.2,3.2H214c-1.9,0-3.2-1.5-3.2-3.2v-44.9H162v44.9c0,1.7-1.4,3.2-3.2,3.2h-20.3
					c-1.7,0-3.2-1.5-3.2-3.2L135.2,936.7L135.2,936.7z"/>
				<path class="st0" d="M327.9,931.7c34.1,0,61.4,27.5,61.4,61.6s-27.3,61.2-61.4,61.2s-61.2-27.1-61.2-61.2
					S293.8,931.7,327.9,931.7z M327.9,1027.3c18.8,0,34.1-15.4,34.1-34c0-18.8-15.4-34.3-34.1-34.3c-18.6,0-34,15.5-34,34.3
					C294,1011.9,309.3,1027.3,327.9,1027.3z"/>
				<path class="st0" d="M471.1,931.7c34.1,0,61.4,27.5,61.4,61.6s-27.3,61.2-61.4,61.2s-61.2-27.1-61.2-61.2
					C409.8,959.2,436.9,931.7,471.1,931.7z M471.1,1027.3c18.8,0,34.1-15.4,34.1-34c0-18.8-15.4-34.3-34.1-34.3
					c-18.6,0-34,15.5-34,34.3C437.1,1011.9,452.5,1027.3,471.1,1027.3z"/>
			</g>
		</g>
		<g>
			<g>
				<path class="st0" d="M806.8,937.5c0-1.7,1.5-3.2,3.2-3.2h20.3c1.9,0,3.2,1.5,3.2,3.2v43h48.8v-43c0-1.7,1.4-3.2,3.2-3.2h20.3
					c1.7,0,3.2,1.5,3.2,3.2v112.9c0,1.7-1.5,3.2-3.2,3.2h-20.3c-1.9,0-3.2-1.5-3.2-3.2v-44.9h-48.8v44.9c0,1.7-1.4,3.2-3.2,3.2H810
					c-1.7,0-3.2-1.5-3.2-3.2V937.5z"/>
				<path class="st0" d="M931.7,1049.3l53.4-114.8c0.5-1,1.7-1.9,2.9-1.9h1.7c1.2,0,2.4,0.9,2.9,1.9l53.4,114.8
					c1,2.2-0.3,4.4-2.9,4.4h-18.9c-3.1,0-4.4-1-6-4.3l-6.1-13.5h-46.4l-6.1,13.6c-0.9,2-2.7,4.1-6.1,4.1h-18.8
					C932,1053.7,930.6,1051.5,931.7,1049.3z M1001.8,1012.8l-13-28.2h-0.2l-12.8,28.2H1001.8z"/>
				<path class="st0" d="M1120.4,932.6c17.1,0,29.7,5.3,41.3,15.9c1.5,1.4,1.5,3.4,0.2,4.8l-13.3,13.8c-1.2,1.2-3.1,1.2-4.3,0
					c-6.3-5.6-14.7-8.7-23-8.7c-19.3,0-33.4,16-33.4,35.1c0,18.9,14.3,34.6,33.6,34.6c8,0,16.7-2.9,22.9-8.2c1.2-1,3.4-1,4.4,0.2
					l13.3,14.2c1.2,1.2,1,3.4-0.2,4.6c-11.6,11.3-26.3,16.5-41.5,16.5c-34.1,0-61.6-27.1-61.6-61.2
					C1058.8,960,1086.2,932.6,1120.4,932.6z"/>
				<path class="st0" d="M1190.8,938.4c0-2.2,1.7-4.1,4.1-4.1h20c2.2,0,4.1,1.9,4.1,4.1v44.9l37.9-47.3c0.7-0.9,2.2-1.7,3.2-1.7
					h21.5c3.2,0,4.9,3.8,3.1,6.3l-39.9,50l43.5,56.6c1.9,2.6,0,6.3-3.2,6.3h-23.5c-1.2,0-2.7-0.7-3.1-1.2l-39.4-53.6v50.8
					c0,2.2-1.9,4.1-4.1,4.1h-20c-2.4,0-4.1-1.9-4.1-4.1L1190.8,938.4L1190.8,938.4z"/>
				<path class="st0" d="M1307.3,1037.5l8-14.2c1.4-2.2,4.6-1.9,5.8-1c0.7,0.3,13,9.4,24.2,9.4c6.8,0,11.8-4.3,11.8-10.2
					c0-7.2-6-12.6-17.6-17.2c-14.7-5.8-33.1-17.2-33.1-37.7c0-16.9,13.1-34,39.4-34c17.7,0,31.4,9,36.5,12.8c2,1.2,1.7,4.3,1,5.5
					l-8.7,13.1c-1.2,1.9-4.3,3.4-5.8,2.2c-1.5-0.9-14-10.2-24.4-10.2c-6.1,0-10.7,4.1-10.7,8.7c0,6.3,5.1,11.1,18.6,16.5
					c13.3,5.3,34.5,15.7,34.5,38.9c0,17.6-15.2,35.3-40.3,35.3c-22.2,0-34.5-9.2-38.4-13.1C1306.5,1040.6,1306,1039.9,1307.3,1037.5
					z"/>
			</g>
		</g>
	</g>
</g>
<rect x="509.4" y="767.1" class="st20" width="478.1" height="5.3"/>
</svg>
